<svg width="700" height="516" viewBox="0 0 700 516" fill="none" xmlns="http://www.w3.org/2000/svg">
<g clip-path="url(#clip0_448_2629)">
<path d="M650.3 515.315V456.877C650.3 456.877 673.074 498.307 650.3 515.315Z" fill="#F1F1F1"/>
<path d="M651.706 515.305L608.658 475.785C608.658 475.785 654.579 487.026 651.706 515.305Z" fill="#F1F1F1"/>
<path d="M465.734 360.951C465.639 359.881 465.779 358.804 466.144 357.794C466.51 356.784 467.093 355.866 467.852 355.106C468.61 354.346 469.527 353.761 470.536 353.393C471.545 353.025 472.623 352.883 473.693 352.976L481.453 338.087L491.651 340.597L480.397 361.469C480.12 363.256 479.198 364.88 477.804 366.032C476.411 367.185 474.643 367.786 472.836 367.723C471.028 367.659 469.307 366.934 467.998 365.686C466.69 364.438 465.884 362.754 465.734 360.951Z" fill="#FFB7B7"/>
<path d="M512.057 506.002L503.451 506.001L499.357 472.808L512.059 472.809L512.057 506.002Z" fill="#FFB7B7"/>
<path d="M514.252 514.343L486.504 514.342V513.991C486.504 511.127 487.642 508.38 489.667 506.354C491.693 504.329 494.44 503.191 497.304 503.191L514.252 503.192L514.252 514.343Z" fill="#2F2E41"/>
<path d="M581.27 499.573L572.967 501.836L560.284 470.89L572.538 467.549L581.27 499.573Z" fill="#FFB7B7"/>
<path d="M585.582 507.043L558.812 514.343L558.719 514.004C557.966 511.241 558.341 508.291 559.762 505.804C561.183 503.317 563.534 501.497 566.297 500.743L582.648 496.284L585.582 507.043Z" fill="#2F2E41"/>
<path d="M496.346 362.617L492.054 427.804L501.275 500.94L516.379 496.33L517.015 430.984L529.098 393.303L564.872 493.945L581.247 487.903L567.733 422.557L560.102 361.187L496.346 362.617Z" fill="#2F2E41"/>
<path d="M538.08 248.15L512.645 251.9L503.482 260.962L500.637 293.523L502.404 322.364L495.038 373.224C495.038 373.224 513.561 362.941 527.917 375.813C542.272 388.686 562.359 378.088 562.772 369.525L538.08 248.15Z" fill="#CBCBCB"/>
<path d="M525.164 288.986L525.164 288.949L537.8 247.763L537.963 247.753C538.862 247.694 560.046 246.446 564.784 256.905L564.807 256.956L563.368 299.757L565.35 366.79L526.17 375.276L525.886 375.338L525.164 288.986Z" fill="#2F2E41"/>
<path d="M511.162 286.139L513.48 251.224C496.995 252.25 497.243 263.938 497.262 264.447L497.082 316.673L493.78 372.545L505.785 371.645L511.162 286.139Z" fill="#2F2E41"/>
<path d="M473.989 349.67L488.625 315.703L498.84 296.944L504.174 330.783L485.656 358.559L473.989 349.67Z" fill="#2F2E41"/>
<path d="M534.475 337.172C534.699 336.121 535.151 335.133 535.798 334.276C536.446 333.419 537.273 332.714 538.222 332.211C539.172 331.709 540.22 331.42 541.292 331.366C542.365 331.313 543.437 331.495 544.432 331.9L556.239 319.963L565.243 325.369L548.332 341.992C547.541 343.618 546.181 344.898 544.509 345.588C542.837 346.278 540.971 346.331 539.263 345.737C537.554 345.143 536.124 343.943 535.241 342.364C534.359 340.785 534.086 338.938 534.475 337.172Z" fill="#FFB7B7"/>
<path d="M544.404 327.542L568.478 301.132L552.543 278.393L554.183 267.276L563.575 255.673L563.759 255.91C564.76 257.206 588.286 287.77 588.961 299.341C589.638 310.955 555.823 340.331 554.383 341.576L554.183 341.749L544.404 327.542Z" fill="#2F2E41"/>
<path d="M523.403 245.289C532.853 245.289 540.514 237.628 540.514 228.178C540.514 218.728 532.853 211.067 523.403 211.067C513.953 211.067 506.292 218.728 506.292 228.178C506.292 237.628 513.953 245.289 523.403 245.289Z" fill="#FFB7B7"/>
<path d="M539.497 214.499L540.326 212.829L536.152 210.756C536.152 210.756 531.548 203.264 523.216 205.369C514.884 207.474 511.135 208.734 511.135 208.734L506.971 210.829L509.061 212.908L505.312 214.169L507.817 215.413L504.903 217.088L506.471 225.673C506.471 225.673 509.077 219.161 514.085 221.65C519.094 224.139 528.256 220.364 528.256 220.364L536.215 235.768C536.215 235.768 537.857 230.368 540.785 231.808C540.785 231.808 548.265 219.896 539.497 214.499Z" fill="#2F2E41"/>
<path d="M345.886 311.373L85.6834 383.133L0 72.4451L260.203 0.684814L345.886 311.373Z" fill="white"/>
<path d="M345.886 311.373L85.6834 383.133L0 72.4451L260.203 0.684814L345.886 311.373ZM89.0078 377.277L340.03 308.048L256.878 6.54113L5.85635 75.7695L89.0078 377.277Z" fill="#F1F1F1"/>
<path d="M203.577 139.868L138.352 157.856C137.432 158.108 136.449 157.986 135.619 157.515C134.79 157.044 134.18 156.263 133.926 155.343L115.938 90.1185C115.685 89.1984 115.808 88.2157 116.279 87.3859C116.75 86.5561 117.531 85.9471 118.45 85.6923L183.675 67.7043C184.595 67.4516 185.578 67.5743 186.408 68.0453C187.237 68.5164 187.846 69.2973 188.101 70.2169L206.089 135.442C206.342 136.362 206.219 137.344 205.748 138.174C205.277 139.004 204.496 139.613 203.577 139.868ZM118.833 87.0801C118.281 87.2329 117.813 87.5984 117.53 88.0963C117.247 88.5941 117.174 89.1838 117.325 89.7359L135.313 154.961C135.466 155.512 135.832 155.981 136.33 156.263C136.827 156.546 137.417 156.62 137.969 156.468L203.194 138.48C203.746 138.327 204.214 137.962 204.497 137.464C204.779 136.966 204.853 136.376 204.701 135.824L186.713 70.5997C186.56 70.0479 186.195 69.5793 185.697 69.2967C185.199 69.0141 184.61 68.9405 184.058 69.0921L118.833 87.0801Z" fill="#E5E5E5"/>
<path d="M187.043 153.014L121.818 171.002C120.99 171.23 120.105 171.119 119.359 170.695C118.612 170.271 118.064 169.569 117.834 168.741L99.8462 103.516C99.6188 102.688 99.7292 101.804 100.153 101.057C100.577 100.31 101.28 99.762 102.108 99.5328L167.332 81.5447C168.16 81.3173 169.045 81.4277 169.792 81.8516C170.538 82.2756 171.087 82.9784 171.316 83.806L189.304 149.031C189.531 149.859 189.421 150.743 188.997 151.49C188.573 152.237 187.87 152.785 187.043 153.014Z" fill="#2962FF"/>
<path d="M262.602 161.919L80.5854 212.116L82.5253 219.15L264.542 168.952L262.602 161.919Z" fill="#F1F1F1"/>
<path d="M267.66 180.258L85.6436 230.455L87.5834 237.489L269.6 187.291L267.66 180.258Z" fill="#F1F1F1"/>
<path d="M272.718 198.597L90.7012 248.794L92.641 255.828L274.658 205.631L272.718 198.597Z" fill="#F1F1F1"/>
<path d="M281.619 230.874L99.6025 281.072L101.542 288.105L283.559 237.908L281.619 230.874Z" fill="#F1F1F1"/>
<path d="M286.677 249.213L104.66 299.411L106.6 306.444L288.617 256.247L286.677 249.213Z" fill="#F1F1F1"/>
<path d="M291.734 267.552L109.718 317.75L111.658 324.784L293.674 274.586L291.734 267.552Z" fill="#F1F1F1"/>
<path d="M429.179 382.095H159.262V59.8086H429.179V382.095Z" fill="white"/>
<path d="M429.179 382.095H159.262V59.8086H429.179V382.095ZM164.024 377.333H424.417V64.5703H164.024V377.333Z" fill="#E5E5E5"/>
<path d="M380.035 198.355H225.713V205.652H380.035V198.355Z" fill="#2962FF"/>
<path d="M380.035 217.326H225.713V224.622H380.035V217.326Z" fill="#2962FF"/>
<path d="M380.035 236.296H225.713V243.593H380.035V236.296Z" fill="#2962FF"/>
<path d="M213.167 207.834C215.797 207.834 217.929 205.702 217.929 203.073C217.929 200.443 215.797 198.311 213.167 198.311C210.537 198.311 208.405 200.443 208.405 203.073C208.405 205.702 210.537 207.834 213.167 207.834Z" fill="#2962FF"/>
<path d="M380.035 116.612H225.713V123.908H380.035V116.612Z" fill="#E5E5E5"/>
<path d="M380.035 135.583H225.713V142.879H380.035V135.583Z" fill="#E5E5E5"/>
<path d="M380.035 154.553H225.713V161.849H380.035V154.553Z" fill="#E5E5E5"/>
<path d="M213.167 125.297C215.797 125.297 217.929 123.165 217.929 120.535C217.929 117.906 215.797 115.774 213.167 115.774C210.537 115.774 208.405 117.906 208.405 120.535C208.405 123.165 210.537 125.297 213.167 125.297Z" fill="#E5E5E5"/>
<path d="M380.035 280.893H225.713V288.189H380.035V280.893Z" fill="#E5E5E5"/>
<path d="M380.035 299.863H225.713V307.159H380.035V299.863Z" fill="#E5E5E5"/>
<path d="M380.035 318.833H225.713V326.13H380.035V318.833Z" fill="#E5E5E5"/>
<path d="M213.167 289.578C215.797 289.578 217.929 287.446 217.929 284.816C217.929 282.186 215.797 280.054 213.167 280.054C210.537 280.054 208.405 282.186 208.405 284.816C208.405 287.446 210.537 289.578 213.167 289.578Z" fill="#E5E5E5"/>
<path d="M416.577 409.847C447.046 409.847 471.746 385.147 471.746 354.678C471.746 324.209 447.046 299.509 416.577 299.509C386.108 299.509 361.408 324.209 361.408 354.678C361.408 385.147 386.108 409.847 416.577 409.847Z" fill="#2962FF"/>
<path d="M431.862 351.159V340.603C431.864 338.595 431.469 336.606 430.702 334.75C429.934 332.894 428.809 331.208 427.389 329.787C425.97 328.367 424.284 327.24 422.429 326.471C420.574 325.702 418.585 325.307 416.577 325.307C414.569 325.307 412.58 325.702 410.725 326.471C408.87 327.24 407.185 328.367 405.765 329.787C404.346 331.208 403.22 332.894 402.452 334.75C401.685 336.606 401.291 338.595 401.292 340.603V351.159C399.249 351.251 397.32 352.127 395.906 353.605C394.493 355.083 393.703 357.049 393.702 359.094V384.039H439.452V359.094C439.451 357.049 438.662 355.083 437.248 353.605C435.834 352.127 433.905 351.251 431.862 351.159ZM416.577 330.699C419.203 330.703 421.72 331.747 423.576 333.604C425.433 335.46 426.477 337.977 426.48 340.603V351.14H406.674V340.603C406.677 337.977 407.722 335.46 409.578 333.604C411.435 331.747 413.952 330.703 416.577 330.699Z" fill="white"/>
<path d="M420.69 363.477C420.69 362.768 420.507 362.071 420.158 361.454C419.809 360.837 419.307 360.32 418.7 359.954C418.092 359.588 417.401 359.385 416.692 359.365C415.983 359.346 415.281 359.509 414.655 359.841C414.028 360.172 413.497 360.66 413.115 361.257C412.732 361.854 412.51 362.54 412.471 363.248C412.432 363.956 412.576 364.662 412.89 365.298C413.204 365.933 413.678 366.477 414.264 366.876V375.815H418.89V366.876C419.444 366.499 419.898 365.993 420.212 365.4C420.526 364.808 420.69 364.148 420.69 363.477Z" fill="#2962FF"/>
<path d="M699.192 514.987H391.41C391.196 514.987 390.991 514.902 390.839 514.75C390.688 514.599 390.603 514.393 390.603 514.179C390.603 513.965 390.688 513.759 390.839 513.608C390.991 513.456 391.196 513.371 391.41 513.371H699.192C699.406 513.371 699.612 513.456 699.763 513.608C699.915 513.759 700 513.965 700 514.179C700 514.393 699.915 514.599 699.763 514.75C699.612 514.902 699.406 514.987 699.192 514.987Z" fill="#CBCBCB"/>
</g>
<defs>
<clipPath id="clip0_448_2629">
<rect width="700" height="514.63" fill="white" transform="translate(0 0.684814)"/>
</clipPath>
</defs>
</svg>
