<svg width="600" height="400" viewBox="0 0 600 400" fill="none" xmlns="http://www.w3.org/2000/svg">
<g clip-path="url(#clip0_191_2291)">
<path d="M303.955 112.771C298.605 103.923 292.266 94.4757 282.338 91.5865C270.84 88.2406 259.03 94.8873 249.011 101.446C219.051 121.062 190.199 142.32 162.587 165.122L162.618 165.466C184.115 163.983 205.612 162.501 227.108 161.019C242.64 159.947 258.705 158.729 272.431 151.381C277.639 148.593 282.716 144.869 288.618 144.609C295.951 144.287 302.345 149.408 307.369 154.758C337.09 186.408 345.691 234.807 379.036 262.614C358.01 210.76 332.904 160.655 303.955 112.771Z" fill="#F2F2F2"/>
<path d="M486.649 381.215C483.362 377.065 482.019 376.093 478.777 371.904C452.379 337.762 427.567 302.467 404.341 266.019C388.565 241.264 373.571 216.035 359.36 190.33C352.594 178.109 346.014 165.793 339.619 153.38C334.657 143.756 329.805 134.074 325.064 124.335C323.709 121.553 322.391 118.759 321.08 115.958C317.992 109.371 314.96 102.753 311.705 96.2554C307.997 88.8502 303.482 81.0869 296.671 76.1117C293.572 73.7546 289.865 72.3284 285.985 71.9999C280.441 71.6418 275.325 73.9311 270.516 76.4315C235.332 94.7782 202.392 117.78 172.599 143.954C142.729 170.187 116.03 199.824 93.0471 232.261C92.3439 233.265 90.6812 232.305 91.3909 231.295C94.1855 227.343 97.0355 223.434 99.9409 219.567C136.067 171.52 180.363 130.202 230.804 97.5024C239.291 92.0029 247.936 86.7612 256.742 81.7775C261.18 79.2643 265.637 76.7832 270.171 74.4555C274.615 72.1725 279.335 70.1198 284.412 70.043C301.691 69.7745 310.638 89.3426 316.783 102.51C318.714 106.653 320.669 110.784 322.647 114.903C330.122 130.538 337.886 146.031 345.937 161.38C350.906 170.857 355.983 180.279 361.169 189.645C377.31 218.812 394.465 247.389 412.635 275.374C436.705 312.445 460.583 345.193 488.004 379.859C488.759 380.819 487.41 382.187 486.649 381.215Z" fill="#E4E4E4"/>
<path d="M170.891 134.292C169.888 133.173 168.89 132.054 167.88 130.934C159.912 122.122 151.362 113.413 140.42 108.361C135.203 105.876 129.508 104.556 123.73 104.492C117.757 104.511 111.919 106.078 106.4 108.271C103.791 109.314 101.239 110.497 98.7261 111.756C95.8547 113.202 93.0345 114.743 90.2274 116.297C84.9579 119.213 79.7568 122.257 74.6241 125.429C64.4114 131.74 54.5186 138.534 44.9456 145.809C39.983 149.582 35.1229 153.478 30.3652 157.499C25.94 161.233 21.6044 165.068 17.3582 169.003C16.4502 169.841 15.0944 168.485 16.0025 167.647C17.1215 166.605 18.2535 165.569 19.3854 164.546C22.5828 161.655 25.8314 158.82 29.1312 156.041C35.1485 150.963 41.3217 146.082 47.6506 141.396C57.4923 134.106 67.6728 127.311 78.1921 121.01C83.4488 117.863 88.7778 114.849 94.1792 111.967C95.8101 111.098 97.46 110.247 99.1289 109.441C102.916 107.531 106.851 105.929 110.895 104.652C116.625 102.798 122.686 102.203 128.667 102.906C134.441 103.746 140.004 105.67 145.063 108.578C155.806 114.583 164.139 123.868 172.247 132.93C173.066 133.85 171.716 135.213 170.891 134.292Z" fill="#E4E4E4"/>
<path d="M391.016 225.608L416.76 216.193L429.542 211.518C433.704 209.995 437.857 208.262 442.161 207.172C445.9 206.103 449.871 206.154 453.582 207.317C456.892 208.542 459.921 210.42 462.491 212.839C465.116 215.257 467.558 217.865 469.798 220.643C472.581 223.987 475.322 227.366 478.076 230.735C489.443 244.635 500.735 258.596 511.952 272.617C523.17 286.638 534.312 300.719 545.38 314.859C556.474 329.034 567.492 343.268 578.434 357.561C579.775 359.312 581.114 361.064 582.452 362.817C583.191 363.785 584.858 362.831 584.109 361.849C573.086 347.412 561.986 333.034 550.81 318.715C539.606 304.362 528.325 290.07 516.967 275.838C505.608 261.607 494.173 247.438 482.661 233.33C479.793 229.816 476.921 226.305 474.043 222.798C471.616 219.84 469.216 216.85 466.554 214.096C461.667 209.042 455.562 204.576 448.254 204.455C443.957 204.384 439.798 205.747 435.806 207.191C431.502 208.748 427.209 210.334 422.911 211.906L396.987 221.388L390.506 223.758C389.356 224.179 389.853 226.034 391.016 225.608L391.016 225.608Z" fill="#E4E4E4"/>
<path d="M137.032 119.449C123.95 112.726 107.196 114.042 95.1748 122.443C118.105 126.399 140.785 131.692 163.097 138.295C153.832 132.866 146.584 124.358 137.032 119.449Z" fill="#F2F2F2"/>
<path d="M95.0459 122.419L92.5273 124.467C93.3792 123.75 94.2649 123.078 95.1746 122.443C95.1317 122.435 95.0888 122.427 95.0459 122.419Z" fill="#F2F2F2"/>
<path d="M461.521 225.702C458.987 222.618 456.247 219.388 452.457 218.135L448.918 218.275C475.857 265.876 512.239 307.47 555.832 340.503C524.395 302.236 492.958 263.969 461.521 225.702Z" fill="#F2F2F2"/>
<path d="M241.463 200.256C243.101 206.205 246.79 211.384 251.879 214.876C253.846 216.215 256.173 217.5 256.846 219.783C257.2 221.238 256.982 222.774 256.237 224.073C255.493 225.355 254.588 226.537 253.543 227.59L253.448 227.947C248.566 225.054 243.922 221.394 241.225 216.401C238.528 211.408 238.152 204.864 241.463 200.256" fill="#F2F2F2"/>
<path d="M403.996 341.862C405.634 347.812 409.323 352.99 414.412 356.482C416.379 357.821 418.707 359.106 419.379 361.389C419.734 362.844 419.515 364.38 418.77 365.679C418.026 366.961 417.121 368.143 416.077 369.196L415.981 369.553C411.099 366.66 406.455 363 403.758 358.007C401.062 353.014 400.685 346.47 403.996 341.862" fill="#F2F2F2"/>
<path d="M79.6271 332.096C81.2647 338.046 84.9542 343.225 90.0426 346.716C92.0098 348.055 94.3373 349.34 95.0103 351.623C95.3643 353.078 95.1462 354.614 94.4009 355.913C93.657 357.196 92.7518 358.377 91.7074 359.43L91.6121 359.787C86.7302 356.894 82.0858 353.234 79.3891 348.241C76.6924 343.248 76.316 336.704 79.6271 332.096" fill="#F2F2F2"/>
<path d="M452.895 71.9446C472.543 71.9446 488.471 56.0167 488.471 36.3687C488.471 16.7206 472.543 0.792725 452.895 0.792725C433.247 0.792725 417.319 16.7206 417.319 36.3687C417.319 56.0167 433.247 71.9446 452.895 71.9446Z" fill="#2962FF"/>
<path d="M517.096 9.07318C499.855 6.74264 480.17 16.0619 475.702 32.8767C474.575 29.887 472.528 27.3327 469.855 25.5829C467.182 23.8331 464.022 22.9783 460.832 23.142C457.641 23.3057 454.585 24.4795 452.105 26.4937C449.626 28.508 447.85 31.2584 447.036 34.3476L449.01 35.7614C485.958 43.7515 524.206 43.5786 561.08 35.2547C549.087 22.6504 534.338 11.4037 517.096 9.07318Z" fill="#F0F0F0"/>
<path d="M443.154 56.5077C425.912 54.1772 406.228 63.4965 401.759 80.3112C400.633 77.3216 398.586 74.7673 395.913 73.0175C393.24 71.2677 390.08 70.4129 386.889 70.5766C383.699 70.7403 380.643 71.9141 378.163 73.9283C375.683 75.9425 373.908 78.693 373.094 81.7822L375.068 83.1959C412.016 91.1861 450.263 91.0131 487.138 82.6892C475.145 70.0849 460.396 58.8382 443.154 56.5077Z" fill="#F0F0F0"/>
<path d="M593.638 65.4771C593.567 65.4772 593.495 65.4662 593.427 65.4444C408.986 7.11502 246.426 14.7426 142.534 31.4127C128.395 33.6805 114.218 36.2998 100.398 39.1984C96.8695 39.9375 93.209 40.7297 89.5182 41.5547C85.1103 42.5363 80.7611 43.5473 76.5907 44.5582C74.7895 44.9846 73.0236 45.4145 71.2928 45.8477C68.6712 46.4949 66.011 47.1693 63.1594 47.9104C59.973 48.732 56.7355 49.5937 53.5348 50.4718C53.5231 50.476 53.5112 50.4794 53.499 50.4821L53.4994 50.4827C49.8842 51.4698 46.288 52.4855 42.8104 53.4999C40.9282 54.0435 39.1107 54.5796 37.3698 55.1089C37.1753 55.1627 37.003 55.2145 36.8283 55.2676L36.4543 55.3814C36.2376 55.4475 36.0238 55.5122 35.8099 55.5735L35.7962 55.5776L35.7966 55.5783L35.2305 55.7541C34.5554 55.9585 33.8966 56.158 33.2488 56.3569C16.1271 61.635 6.71465 65.3899 6.62167 65.4267C6.53664 65.4608 6.44573 65.4778 6.35413 65.4767C6.26253 65.4757 6.17203 65.4566 6.0878 65.4206C6.00358 65.3845 5.92726 65.3323 5.86324 65.2668C5.79921 65.2013 5.74871 65.1238 5.71462 65.0387C5.68054 64.9537 5.66355 64.8628 5.6646 64.7712C5.66565 64.6796 5.68473 64.5891 5.72075 64.5049C5.75678 64.4207 5.80904 64.3443 5.87455 64.2803C5.94006 64.2163 6.01755 64.1658 6.10258 64.1317C6.19625 64.0949 15.6546 60.321 32.8387 55.0231C33.4889 54.8235 34.1494 54.6239 34.8265 54.4189L35.3524 54.2554C35.3705 54.2486 35.3885 54.2431 35.4069 54.2377C35.6198 54.1771 35.8323 54.1123 36.0483 54.0469L36.4229 53.9332C36.6096 53.8766 36.7935 53.8208 36.9819 53.769C38.7108 53.2431 40.5344 52.7056 42.4214 52.16C45.9004 51.1449 49.5 50.1293 53.1179 49.1408C53.1292 49.1367 53.1407 49.134 53.152 49.1306V49.1299C56.3639 48.2491 59.6133 47.3839 62.81 46.5597C65.666 45.8178 68.3312 45.142 70.9573 44.4935C72.6955 44.0609 74.4648 43.6302 76.2654 43.2012C80.4406 42.1889 84.7987 41.1767 89.2143 40.193C92.911 39.3673 96.5776 38.573 100.112 37.8332C113.954 34.9299 128.152 32.3065 142.313 30.0353C246.354 13.3414 409.147 5.70148 593.848 64.1146C594.007 64.1647 594.142 64.2701 594.23 64.4115C594.318 64.553 594.353 64.7212 594.327 64.8858C594.302 65.0504 594.218 65.2005 594.092 65.309C593.966 65.4174 593.805 65.477 593.638 65.4771Z" fill="#CCCCCC"/>
<path d="M183.452 293.66C183.211 292.953 182.804 292.315 182.267 291.797C182.068 291.613 181.853 291.447 181.625 291.302C179.804 290.088 177.084 289.816 175.354 291.302C175.179 291.453 175.018 291.619 174.872 291.797C174.356 292.432 173.826 293.053 173.282 293.66C172.389 294.678 171.475 295.662 170.52 296.617C170.247 296.882 169.975 297.155 169.696 297.42C169.536 297.58 169.376 297.733 169.215 297.887C168.601 298.473 167.973 299.038 167.339 299.596C167.004 299.896 166.669 300.189 166.327 300.475C165.818 300.9 165.309 301.326 164.793 301.738C164.744 301.772 164.695 301.807 164.646 301.849C164.632 301.856 164.625 301.87 164.611 301.877C164.604 301.877 164.597 301.877 164.59 301.891C164.571 301.898 164.555 301.91 164.541 301.926C164.388 302.031 164.283 302.1 164.207 302.163C164.234 302.149 164.262 302.128 164.29 302.114C164.165 302.212 164.032 302.31 163.907 302.407C162.686 303.307 161.437 304.172 160.161 304.981C157.002 307.003 153.685 308.764 150.241 310.248C150.011 310.339 149.774 310.436 149.537 310.527C140.52 314.221 130.74 315.662 121.041 314.726C120.05 314.65 119.06 314.545 118.069 314.412C116.925 314.245 115.788 314.043 114.658 313.812C110.356 312.954 106.147 311.683 102.088 310.018C97.0113 307.693 92.1828 304.86 87.6764 301.563C86.9788 301.068 86.2743 300.573 85.5697 300.091C86.3719 298.124 87.1602 296.157 87.9275 294.176C88.3112 293.22 88.6809 292.265 89.0436 291.302C91.8967 283.887 94.5753 276.402 97.1424 268.889C99.7373 261.279 102.186 253.624 104.488 245.925C104.725 245.144 104.955 244.363 105.178 243.581C106.385 239.514 107.543 235.438 108.652 231.353C108.757 230.955 108.869 230.565 108.966 230.167C109.287 228.995 109.601 227.823 109.908 226.651C110.605 224.008 109.029 220.848 106.253 220.213C104.916 219.87 103.498 220.06 102.299 220.741C101.099 221.423 100.211 222.544 99.821 223.868C99.5211 224.998 99.2211 226.121 98.9142 227.251C97.4423 232.713 95.8937 238.157 94.2684 243.581C94.0312 244.363 93.7941 245.144 93.5569 245.925C89.9714 257.742 86.0348 269.44 81.7471 281.02C81.2309 282.422 80.7077 283.819 80.1775 285.212C79.9194 285.896 79.6613 286.579 79.3963 287.263C78.887 288.609 78.3639 289.956 77.8407 291.302C77.5407 292.09 77.2338 292.878 76.9269 293.66C76.7246 294.155 76.5293 294.65 76.3339 295.139C74.345 294.424 72.2844 293.929 70.1884 293.66L69.8535 293.618C68.2285 293.422 66.585 293.436 64.9636 293.66C62.5368 293.943 60.2018 294.756 58.1237 296.041C56.0457 297.326 54.2752 299.051 52.9375 301.096C49.6101 306.335 49.652 313.826 54.3187 318.277C59.1249 322.86 66.4006 322.825 72.0579 319.958C75.0558 318.336 77.5837 315.967 79.3963 313.08C80.0907 312.034 80.7287 310.951 81.3076 309.836C81.4541 309.934 81.6006 310.032 81.7471 310.136C82.3051 310.527 82.8632 310.924 83.4143 311.315C86.6252 313.641 90.0089 315.719 93.536 317.53C101.12 321.301 109.284 323.77 117.686 324.834C117.874 324.855 118.055 324.883 118.244 324.904C119.172 325.022 120.106 325.113 121.041 325.19C134.45 326.2 147.875 323.456 159.812 317.265C160.823 316.742 161.826 316.193 162.818 315.619C164.36 314.726 165.867 313.778 167.339 312.773C168.141 312.229 168.922 311.678 169.696 311.099C173.08 308.607 176.234 305.817 179.121 302.763C180.216 301.612 181.264 300.424 182.267 299.198C183.214 298.196 183.76 296.88 183.801 295.501C183.796 294.871 183.678 294.248 183.452 293.66ZM67.9422 310.276C68.0887 310.171 68.2352 310.06 68.3747 309.948C68.3329 310.053 68.1305 310.171 67.9422 310.276H67.9422ZM70.1814 308.023C70.021 308.204 69.8745 308.385 69.714 308.567C69.2259 309.113 68.7016 309.626 68.1445 310.101C68.0678 310.171 67.9841 310.241 67.9004 310.304C67.8994 310.304 67.8985 310.304 67.8976 310.304C67.8968 310.305 67.896 310.305 67.8954 310.306C67.8947 310.306 67.8942 310.307 67.8939 310.308C67.8935 310.309 67.8933 310.31 67.8934 310.311C67.7926 310.356 67.6947 310.407 67.6004 310.464C67.3004 310.645 66.9935 310.813 66.6796 310.966C66.065 311.193 65.4327 311.368 64.7892 311.49C64.2947 311.526 63.7985 311.53 63.3034 311.503H63.2894C62.9478 311.428 62.6102 311.335 62.278 311.224C62.1105 311.141 61.9501 311.043 61.7897 310.945C61.7269 310.89 61.671 310.834 61.6362 310.799C61.568 310.737 61.5051 310.669 61.4479 310.597C61.4479 310.596 61.4477 310.595 61.4474 310.594C61.447 310.593 61.4465 310.592 61.4459 310.592C61.4452 310.591 61.4444 310.59 61.4436 310.59C61.4427 310.59 61.4418 310.59 61.4409 310.59C61.3641 310.45 61.2804 310.311 61.2037 310.171C61.1998 310.167 61.1973 310.163 61.1968 310.157C61.141 309.983 61.0921 309.801 61.0503 309.62C61.0351 309.302 61.0375 308.983 61.0572 308.664C61.1508 308.219 61.2767 307.78 61.4339 307.353C61.5752 307.05 61.7359 306.756 61.9153 306.474C61.9292 306.446 61.999 306.334 62.0757 306.209C62.0827 306.202 62.0827 306.202 62.0827 306.195C62.1873 306.076 62.2919 305.951 62.4036 305.839C62.5919 305.63 62.7942 305.449 62.9965 305.26C63.3899 305.003 63.7975 304.768 64.2172 304.556C64.8832 304.319 65.5665 304.135 66.2611 304.005C67.2853 303.923 68.3148 303.933 69.3374 304.033C70.306 304.201 71.2616 304.436 72.1974 304.737C71.6302 305.838 70.9845 306.896 70.2651 307.904C70.2372 307.946 70.2093 307.988 70.1814 308.023ZM62.4244 305.728C62.363 305.826 62.2904 305.918 62.2082 306C62.2635 305.897 62.3368 305.805 62.4244 305.728Z" fill="#3F3D56"/>
<path d="M162.484 222.417C162.421 224.607 162.358 226.798 162.295 228.988C162.163 233.85 162.026 238.715 161.884 243.581C161.737 249.057 161.584 254.531 161.423 260.002C161.347 262.827 161.268 265.652 161.186 268.477C160.97 276.088 160.756 283.696 160.545 291.302C160.524 292.09 160.496 292.871 160.475 293.66C160.37 297.434 160.265 301.207 160.161 304.981C160.042 309.076 159.926 313.171 159.812 317.265C159.728 320.335 159.642 323.406 159.554 326.48C158.926 348.754 158.298 371.027 157.671 393.3C157.644 394.68 157.084 395.995 156.109 396.97C155.133 397.946 153.818 398.506 152.439 398.532C151.055 398.521 149.73 397.966 148.752 396.987C147.773 396.009 147.218 394.684 147.207 393.3C147.556 380.772 147.909 368.244 148.267 355.715C148.581 344.387 148.9 333.058 149.223 321.73C149.328 317.998 149.432 314.264 149.537 310.527C149.697 304.904 149.855 299.282 150.011 293.66C150.032 292.871 150.06 292.09 150.081 291.302C150.095 290.611 150.116 289.928 150.137 289.237C150.444 278.32 150.751 267.401 151.058 256.479C151.183 252.182 151.304 247.883 151.42 243.581C151.56 238.677 151.699 233.776 151.839 228.877C151.902 226.721 151.957 224.573 152.02 222.417C152.047 221.038 152.606 219.722 153.582 218.747C154.557 217.772 155.873 217.212 157.252 217.185C158.636 217.196 159.96 217.751 160.939 218.73C161.918 219.709 162.473 221.033 162.484 222.417Z" fill="#3F3D56"/>
<path d="M449.483 223.869C443.997 244.642 437.44 265.118 429.839 285.214C427.741 290.757 425.595 296.289 423.301 301.754L423.829 300.505C422.805 303.108 421.497 305.59 419.93 307.907C419.823 308.056 419.714 308.204 419.604 308.351C420.146 307.658 420.249 307.521 419.913 307.94C419.736 308.15 419.561 308.36 419.377 308.565C418.889 309.111 418.365 309.625 417.809 310.102C417.668 310.222 417.526 310.339 417.382 310.453L418.036 309.945C417.96 310.124 417.427 310.362 417.261 310.463C416.724 310.787 416.163 311.072 415.584 311.313L416.834 310.786C415.884 311.168 414.894 311.44 413.882 311.595L415.273 311.409C414.279 311.546 413.271 311.557 412.275 311.441L413.666 311.627C412.85 311.515 412.052 311.3 411.29 310.988L412.54 311.515C412.134 311.338 411.742 311.129 411.369 310.89C411.18 310.767 410.598 310.326 411.359 310.907C412.149 311.511 411.46 310.959 411.298 310.799C411.162 310.665 411.04 310.52 410.907 310.383C410.292 309.753 411.602 311.469 411.184 310.731C410.96 310.361 410.756 309.98 410.571 309.59L411.099 310.839C410.859 310.244 410.688 309.624 410.591 308.99L410.778 310.381C410.678 309.592 410.677 308.794 410.776 308.005L410.589 309.396C410.717 308.516 410.95 307.654 411.283 306.829L410.755 308.079C410.987 307.524 411.262 306.988 411.577 306.476C411.722 306.211 411.892 305.96 412.085 305.728C412.119 305.739 411.2 306.783 411.688 306.256C411.816 306.118 411.935 305.973 412.064 305.836C412.271 305.617 412.492 305.417 412.71 305.21C413.438 304.516 411.69 305.884 412.531 305.335C413.14 304.934 413.782 304.584 414.448 304.289L413.199 304.816C414.316 304.358 415.487 304.044 416.683 303.882L415.292 304.069C416.791 303.896 418.305 303.914 419.799 304.122L418.408 303.935C420.3 304.222 422.149 304.742 423.913 305.484L422.664 304.956C426.423 306.57 429.753 308.967 433.077 311.317C436.287 313.641 439.67 315.718 443.196 317.53C450.78 321.301 458.944 323.77 467.347 324.836C479.398 326.312 491.627 324.738 502.911 320.259C514.196 315.779 524.174 308.538 531.932 299.199C532.879 298.195 533.424 296.878 533.464 295.499C533.454 294.114 532.905 292.787 531.932 291.8C530.013 290.038 526.387 289.541 524.533 291.8C522.777 293.945 520.888 295.978 518.878 297.888C517.94 298.778 516.977 299.64 515.989 300.475C515.424 300.952 514.852 301.42 514.272 301.878C513.998 302.095 513.143 302.672 514.456 301.741C514.155 301.954 513.866 302.187 513.569 302.407C509.176 305.645 504.415 308.353 499.386 310.474L500.636 309.946C495.239 312.21 489.572 313.763 483.775 314.566L485.166 314.379C479.203 315.164 473.162 315.155 467.201 314.353L468.592 314.54C462.632 313.721 456.804 312.134 451.252 309.817L452.502 310.344C447.145 307.974 442.061 305.029 437.339 301.561C434.882 299.742 432.291 298.111 429.587 296.682C426.438 295.074 423.028 294.037 419.516 293.621C412.932 292.846 406.222 295.411 402.603 301.099C399.271 306.334 399.314 313.825 403.979 318.277C408.784 322.862 416.06 322.823 421.722 319.955C427.176 317.193 430.451 311.455 432.754 306.044C437.938 293.868 442.527 281.41 446.803 268.89C451.034 256.502 454.87 243.989 458.312 231.351C458.738 229.786 459.159 228.219 459.573 226.65C460.271 224.008 458.693 220.847 455.919 220.215C454.581 219.871 453.163 220.059 451.962 220.741C450.761 221.423 449.872 222.544 449.483 223.869L449.483 223.869Z" fill="#3F3D56"/>
<path d="M501.683 222.417L499.8 289.239L497.927 355.713L496.868 393.301C496.879 394.685 497.434 396.008 498.413 396.987C499.392 397.966 500.716 398.521 502.099 398.532C503.479 398.506 504.794 397.946 505.769 396.971C506.745 395.995 507.305 394.68 507.331 393.301L509.214 326.478L511.088 260.004L512.147 222.417C512.135 221.033 511.58 219.709 510.602 218.73C509.623 217.752 508.299 217.197 506.915 217.185C505.536 217.212 504.221 217.771 503.245 218.747C502.27 219.722 501.71 221.038 501.683 222.417Z" fill="#3F3D56"/>
<path opacity="0.2" d="M320.596 374.644H322.221V300.673H360.119V299.052H322.221V267.84H351.488C351.059 267.294 350.617 266.756 350.163 266.224H322.221V245.609C321.683 245.38 321.142 245.159 320.596 244.951V266.224H288.751V239.81C288.205 239.835 287.668 239.873 287.126 239.919V266.224H261.721V246.517C261.175 246.758 260.638 247.012 260.105 247.279V266.224H238.748V267.84H260.105V299.052H238.748V300.673H260.105V374.644H261.721V300.673C265.057 300.672 268.361 301.329 271.444 302.605C274.527 303.882 277.328 305.753 279.687 308.112C282.046 310.472 283.917 313.272 285.194 316.355C286.47 319.438 287.127 322.742 287.126 326.078V374.644H288.751V300.673H320.596V374.644ZM261.721 299.052V267.84H287.126V299.052H261.721ZM288.751 299.052V267.84H289.388C293.487 267.84 297.545 268.648 301.332 270.217C305.118 271.785 308.559 274.084 311.457 276.983C314.354 279.881 316.653 283.322 318.221 287.109C319.79 290.895 320.597 294.954 320.596 299.052H288.751Z" fill="black"/>
<path d="M310.675 352.465C308.63 361.588 303.731 369.822 296.689 375.973C296.172 376.419 295.656 376.852 295.119 377.277C293.815 377.396 292.52 377.517 291.234 377.64C290.166 377.737 289.113 377.842 288.067 377.94L287.878 377.961L287.746 376.817L287.216 372.185C285.159 368.827 283.884 365.05 283.486 361.133C283.087 357.215 283.575 353.259 284.914 349.556C286.755 344.589 290.09 340.201 293.368 335.849C297.895 329.835 302.297 323.892 302.458 316.561C304.685 319.411 306.537 322.537 307.968 325.859C306.618 326.495 305.405 327.388 304.397 328.489C304.111 328.803 303.825 329.243 304.02 329.619C304.188 329.94 304.606 330.017 304.969 330.059C305.841 330.149 306.72 330.24 307.592 330.331C308.289 330.407 308.987 330.477 309.684 330.554C310.528 333.324 311.101 336.169 311.393 339.05C311.863 343.532 311.621 348.059 310.675 352.465Z" fill="#3F3D56"/>
<path d="M333.834 334.181C329.719 337.174 327.312 341.478 325.442 346.221C323.526 346.834 321.803 347.935 320.441 349.416C320.155 349.73 319.869 350.17 320.064 350.546C320.232 350.867 320.65 350.944 321.013 350.986C321.885 351.076 322.764 351.167 323.636 351.258C321.766 356.866 320.05 362.67 316.744 367.406C314.545 370.534 311.678 373.133 308.352 375.017C307.445 375.534 306.509 375.997 305.548 376.405C302.004 376.677 298.528 376.968 295.119 377.277C293.815 377.396 292.52 377.517 291.234 377.64C290.166 377.737 289.113 377.842 288.067 377.94C288.06 377.556 288.06 377.172 288.067 376.789C288.287 366.568 292.047 356.741 298.705 348.984C299.019 348.621 299.339 348.265 299.667 347.909C303.04 344.307 307.006 341.31 311.393 339.05C318.306 335.456 326.054 333.775 333.834 334.181Z" fill="#2962FF"/>
<path d="M292.441 374.061L291.638 376.433L291.234 377.64C290.166 377.738 289.113 377.842 288.067 377.94L287.878 377.961C286.72 378.079 285.569 378.198 284.418 378.317C284.119 377.968 283.819 377.612 283.526 377.249C276.244 368.432 272.749 357.091 273.804 345.705C274.859 334.319 280.378 323.814 289.155 316.484C288.234 321.304 289.308 325.922 291.073 330.505C290.885 330.582 290.704 330.659 290.529 330.742C289.179 331.378 287.966 332.271 286.958 333.372C286.672 333.686 286.386 334.126 286.581 334.502C286.748 334.823 287.167 334.9 287.53 334.942C288.402 335.032 289.281 335.123 290.152 335.214C290.85 335.291 291.548 335.36 292.245 335.437C292.573 335.472 292.901 335.507 293.229 335.542C293.278 335.646 293.319 335.744 293.368 335.849C295.356 340.16 297.498 344.491 298.705 348.984C299.007 350.111 299.245 351.254 299.416 352.409C299.953 356.31 299.605 360.282 298.398 364.031C297.19 367.779 295.154 371.207 292.441 374.061Z" fill="#2962FF"/>
<path d="M362.657 272.886C356.651 261.173 347.348 251.317 336.406 244.074C325.428 236.842 312.832 232.437 299.74 231.253C298.023 231.097 296.303 231.006 294.578 230.979C292.54 230.949 261.886 239.791 251.617 247.011C241.354 254.143 232.911 263.588 226.97 274.583C221.039 285.639 218.122 298.061 218.511 310.601C219.02 323.217 222.536 335.528 228.768 346.509C234.914 357.454 243.641 366.733 254.19 373.537C264.889 380.364 275.637 398.465 288.269 399.104C300.997 399.748 315.512 382.673 327.12 377.488C338.729 372.261 348.764 364.082 356.227 353.768C363.478 343.659 368.17 331.943 369.898 319.623C371.694 307.009 370.857 294 366.549 281.943C365.444 278.845 364.144 275.82 362.657 272.886C361.415 270.441 357.776 269.541 355.499 271.01C354.325 271.732 353.475 272.879 353.126 274.212C352.776 275.546 352.954 276.962 353.622 278.168C354.351 279.603 355.029 281.063 355.655 282.547L355.128 281.297C357.5 286.999 359.112 292.989 359.925 299.111L359.738 297.721C360.602 304.363 360.586 311.09 359.692 317.729L359.879 316.338C358.974 322.976 357.202 329.466 354.609 335.642L355.136 334.393C353.802 337.544 352.247 340.597 350.482 343.53C349.588 345.011 348.639 346.458 347.636 347.87C347.195 348.489 346.741 349.098 346.283 349.705C345.686 350.497 347.097 348.67 346.48 349.447C346.375 349.58 346.27 349.713 346.165 349.844C345.848 350.241 345.527 350.633 345.201 351.022C343.026 353.617 340.653 356.038 338.102 358.265C337.467 358.82 336.821 359.362 336.164 359.891C335.838 360.155 335.514 360.43 335.173 360.676C335.186 360.666 336.275 359.839 335.631 360.319C335.428 360.47 335.227 360.624 335.024 360.774C333.671 361.777 332.282 362.728 330.857 363.628C327.576 365.695 324.133 367.495 320.563 369.009L321.813 368.481C315.655 371.074 309.183 372.845 302.563 373.749L303.954 373.562C297.337 374.456 290.631 374.468 284.011 373.598L285.402 373.784C279.385 372.977 273.5 371.386 267.896 369.052L269.146 369.579C265.9 368.209 262.77 366.578 259.787 364.703C258.311 363.772 256.873 362.785 255.474 361.74C255.274 361.591 255.076 361.439 254.877 361.289C254.238 360.807 255.336 361.645 255.345 361.651C254.973 361.384 254.616 361.099 254.274 360.796C253.598 360.246 252.933 359.683 252.278 359.107C249.658 356.8 247.211 354.303 244.958 351.636C244.394 350.97 243.842 350.293 243.302 349.606C243.068 349.309 242.642 348.706 243.584 349.975C243.46 349.808 243.332 349.644 243.206 349.478C242.906 349.079 242.609 348.678 242.316 348.273C241.292 346.855 240.318 345.403 239.395 343.916C237.309 340.55 235.489 337.026 233.95 333.377L234.478 334.627C231.96 328.637 230.239 322.343 229.357 315.906L229.544 317.297C228.749 311.363 228.737 305.351 229.51 299.414L229.323 300.805C230.116 295.056 231.663 289.436 233.924 284.092L233.396 285.342C234.819 281.996 236.497 278.764 238.415 275.676C239.376 274.13 240.394 272.623 241.469 271.152C241.713 270.818 241.96 270.486 242.21 270.156C242.436 269.858 243.058 269.115 241.997 270.427C242.101 270.299 242.201 270.166 242.304 270.036C242.894 269.289 243.498 268.553 244.117 267.829C246.459 265.087 248.997 262.517 251.709 260.141C252.394 259.54 253.091 258.952 253.798 258.377C254.119 258.115 254.443 257.856 254.768 257.6C254.898 257.498 255.03 257.398 255.16 257.294C253.767 258.403 254.773 257.596 255.089 257.359C256.547 256.267 258.043 255.23 259.578 254.247C262.991 252.064 266.582 250.172 270.311 248.591L269.062 249.119C274.475 246.846 298.458 241.481 302.82 242.066L301.429 241.88C307.84 242.775 314.106 244.506 320.068 247.029L318.818 246.502C321.839 247.785 324.775 249.259 327.608 250.917C329.023 251.747 330.41 252.621 331.77 253.542C332.414 253.977 333.05 254.422 333.68 254.877C333.995 255.105 334.308 255.335 334.619 255.567C334.792 255.696 334.964 255.827 335.136 255.956C335.861 256.5 334.138 255.169 334.898 255.77C337.441 257.769 339.857 259.924 342.13 262.225C343.247 263.362 344.325 264.535 345.365 265.745C345.898 266.365 346.42 266.995 346.932 267.633C347.186 267.951 348.051 269.099 346.991 267.692C347.25 268.036 347.512 268.378 347.768 268.724C349.972 271.708 351.93 274.866 353.622 278.168C354.872 280.607 358.495 281.517 360.78 280.044C361.954 279.322 362.804 278.175 363.153 276.842C363.503 275.508 363.325 274.092 362.657 272.886Z" fill="#3F3D56"/>
<path d="M301.696 358.265C301.156 358.29 300.621 358.148 300.164 357.859C299.707 357.57 299.351 357.147 299.142 356.649C298.934 356.15 298.883 355.599 298.998 355.071C299.113 354.542 299.388 354.062 299.785 353.695C299.851 353.431 299.899 353.241 299.965 352.977C299.942 352.92 299.918 352.862 299.894 352.805C297.466 347.016 281.977 363.152 281.307 368.592C281.012 370.996 281.136 373.434 281.675 375.796C276.657 364.851 274.052 352.956 274.035 340.916C274.034 337.894 274.202 334.875 274.538 331.873C274.816 329.411 275.201 326.967 275.694 324.541C278.383 311.376 284.157 299.036 292.541 288.535C297.336 288.803 301.538 288.072 301.944 278.779C302.016 277.126 303.242 275.695 303.512 274.067C303.055 274.127 302.589 274.164 302.132 274.194C301.989 274.202 301.839 274.209 301.696 274.217L301.643 274.219C301.14 274.242 300.641 274.118 300.206 273.864C299.771 273.61 299.42 273.235 299.193 272.785C298.966 272.336 298.874 271.83 298.928 271.329C298.982 270.829 299.18 270.354 299.497 269.963C299.695 269.72 299.893 269.477 300.09 269.234C300.391 268.859 300.698 268.491 300.998 268.116C301.033 268.08 301.066 268.042 301.096 268.003C301.441 267.575 301.786 267.155 302.132 266.727C301.502 265.749 300.654 264.93 299.655 264.333C296.196 262.307 291.423 263.711 288.924 266.84C286.417 269.969 285.945 274.359 286.815 278.269C287.671 281.596 289.087 284.753 291.003 287.604C290.815 287.845 290.62 288.077 290.432 288.317C287.003 292.727 284.014 297.463 281.508 302.456C282.217 296.918 273.548 276.919 270.195 272.683C266.168 267.595 257.91 269.816 257.201 276.266C257.194 276.328 257.187 276.391 257.18 276.453C257.678 276.734 258.166 277.032 258.643 277.348C259.242 277.748 259.706 278.32 259.975 278.988C260.243 279.657 260.304 280.391 260.148 281.095C259.992 281.798 259.627 282.438 259.101 282.931C258.575 283.424 257.913 283.746 257.201 283.856L257.128 283.867C250.462 293.385 271.831 318.156 277.18 312.594C274.662 319.729 273.083 327.16 272.482 334.702C272.142 339.151 272.162 343.621 272.542 348.067L272.519 347.91C271.331 338.226 250.943 323.828 244.989 325.027C241.559 325.718 238.181 325.561 238.702 329.021C238.71 329.076 238.719 329.131 238.727 329.186C239.651 329.563 240.551 329.996 241.421 330.485C241.919 330.766 242.407 331.064 242.884 331.379C243.483 331.779 243.947 332.351 244.216 333.02C244.484 333.689 244.544 334.423 244.388 335.126C244.233 335.83 243.868 336.47 243.342 336.963C242.816 337.455 242.154 337.778 241.442 337.888L241.369 337.899C241.316 337.906 241.271 337.914 241.219 337.921C238.184 348.361 260.686 365.21 274.365 359.849H274.373C275.729 365.74 277.693 371.474 280.234 376.959H301.171C301.246 376.727 301.314 376.486 301.381 376.254C299.443 376.376 297.498 376.26 295.588 375.909C297.141 374.002 298.695 372.081 300.248 370.175C300.283 370.14 300.315 370.102 300.346 370.063C301.134 369.087 301.929 368.119 302.717 367.143L302.717 367.142C302.759 364.152 302.416 361.169 301.696 358.266L301.696 358.265ZM277.72 311.101L277.731 311.086L277.72 311.116V311.101ZM273.082 352.908L272.902 352.502C272.91 352.21 272.91 351.917 272.902 351.617C272.902 351.534 272.887 351.452 272.887 351.369C272.955 351.887 273.015 352.405 273.09 352.923L273.082 352.908Z" fill="#3F3D56"/>
<path d="M66.4423 314.698C70.6801 314.698 74.1155 311.263 74.1155 307.025C74.1155 302.787 70.6801 299.352 66.4423 299.352C62.2045 299.352 58.769 302.787 58.769 307.025C58.769 311.263 62.2045 314.698 66.4423 314.698Z" fill="#3F3D56"/>
<path d="M158.521 398.407C162.759 398.407 166.195 394.971 166.195 390.733C166.195 386.495 162.759 383.06 158.521 383.06C154.284 383.06 150.848 386.495 150.848 390.733C150.848 394.971 154.284 398.407 158.521 398.407Z" fill="#3F3D56"/>
<path d="M508.003 398.407C512.241 398.407 515.676 394.971 515.676 390.733C515.676 386.495 512.241 383.06 508.003 383.06C503.765 383.06 500.33 386.495 500.33 390.733C500.33 394.971 503.765 398.407 508.003 398.407Z" fill="#3F3D56"/>
<path d="M526.837 300.747C531.075 300.747 534.511 297.311 534.511 293.074C534.511 288.836 531.075 285.4 526.837 285.4C522.599 285.4 519.164 288.836 519.164 293.074C519.164 297.311 522.599 300.747 526.837 300.747Z" fill="#3F3D56"/>
<path d="M504.515 229.595C508.753 229.595 512.188 226.16 512.188 221.922C512.188 217.684 508.753 214.249 504.515 214.249C500.277 214.249 496.842 217.684 496.842 221.922C496.842 226.16 500.277 229.595 504.515 229.595Z" fill="#3F3D56"/>
<path d="M184.331 293.074C184.327 295.034 183.569 296.917 182.214 298.334C180.86 299.75 179.013 300.592 177.055 300.685C175.097 300.777 173.178 300.114 171.696 298.831C170.214 297.549 169.282 295.746 169.092 293.795C168.902 291.844 169.47 289.895 170.677 288.351C171.885 286.807 173.64 285.786 175.579 285.5C177.518 285.214 179.492 285.684 181.094 286.813C182.696 287.942 183.803 289.644 184.185 291.567C184.283 292.063 184.332 292.568 184.331 293.074Z" fill="#3F3D56"/>
<path d="M337.796 251.917C342.034 251.917 345.47 248.482 345.47 244.244C345.47 240.006 342.034 236.571 337.796 236.571C333.558 236.571 330.123 240.006 330.123 244.244C330.123 248.482 333.558 251.917 337.796 251.917Z" fill="#3F3D56"/>
<path d="M261.762 244.244C261.757 246.204 260.999 248.087 259.645 249.504C258.29 250.921 256.443 251.763 254.485 251.855C252.527 251.948 250.609 251.284 249.126 250.002C247.644 248.719 246.712 246.916 246.522 244.965C246.333 243.014 246.9 241.065 248.108 239.521C249.315 237.977 251.07 236.956 253.009 236.67C254.948 236.384 256.923 236.854 258.525 237.984C260.127 239.113 261.233 240.815 261.615 242.737C261.714 243.233 261.763 243.738 261.762 244.244Z" fill="#3F3D56"/>
<path d="M162.707 221.922C162.702 223.882 161.944 225.765 160.59 227.182C159.235 228.599 157.388 229.44 155.43 229.533C153.472 229.626 151.554 228.962 150.072 227.679C148.59 226.397 147.657 224.594 147.468 222.643C147.278 220.692 147.845 218.743 149.053 217.199C150.26 215.655 152.015 214.634 153.954 214.348C155.893 214.062 157.868 214.532 159.47 215.661C161.072 216.791 162.178 218.493 162.56 220.415C162.659 220.911 162.708 221.416 162.707 221.922Z" fill="#3F3D56"/>
<path d="M418.017 317.489C422.254 317.489 425.69 314.053 425.69 309.815C425.69 305.578 422.254 302.142 418.017 302.142C413.779 302.142 410.343 305.578 410.343 309.815C410.343 314.053 413.779 317.489 418.017 317.489Z" fill="#3F3D56"/>
<path d="M297.337 247.732C303.501 247.732 308.498 242.735 308.498 236.571C308.498 230.407 303.501 225.41 297.337 225.41C291.173 225.41 286.176 230.407 286.176 236.571C286.176 242.735 291.173 247.732 297.337 247.732Z" fill="#3F3D56"/>
<path d="M599.169 398.993L0.830576 399.207C0.721502 399.207 0.613494 399.186 0.512723 399.144C0.411953 399.102 0.320396 399.041 0.24327 398.964C0.166143 398.887 0.104956 398.795 0.063215 398.694C0.0214744 398.594 0 398.486 0 398.376C0 398.267 0.0214744 398.159 0.063215 398.059C0.104956 397.958 0.166143 397.866 0.24327 397.789C0.320396 397.712 0.411953 397.651 0.512723 397.609C0.613494 397.567 0.721502 397.546 0.830576 397.546L599.169 397.332C599.389 397.332 599.6 397.42 599.755 397.576C599.91 397.731 599.998 397.942 599.998 398.162C599.998 398.382 599.91 398.593 599.755 398.749C599.6 398.904 599.389 398.992 599.169 398.993Z" fill="#CACACA"/>
</g>
<defs>
<clipPath id="clip0_191_2291">
<rect width="600" height="398.415" fill="white" transform="translate(0 0.792725)"/>
</clipPath>
</defs>
</svg>
