<svg width="459" height="300" viewBox="0 0 459 300" fill="none" xmlns="http://www.w3.org/2000/svg">
<g clip-path="url(#clip0_616_4160)">
<path d="M66.4975 300C102.754 300 132.146 297.758 132.146 294.993C132.146 292.228 102.754 289.986 66.4975 289.986C30.2406 289.986 0.848633 292.228 0.848633 294.993C0.848633 297.758 30.2406 300 66.4975 300Z" fill="#2962FF" fill-opacity="0.1"/>
<path d="M87.7598 75.363L61.5693 68.2201C68.5629 61.6207 71.6052 55.4038 70.6963 49.5693H87.7598V75.363Z" fill="#9F616A"/>
<path d="M90.5376 276.157L82.0778 277.347L71.8867 183.697L55.6169 276.95L46.8867 277.347V159.093H100.855L90.5376 276.157Z" fill="#2F2E41"/>
<path d="M51.2803 295.036C52.6082 295.074 53.9106 294.666 54.98 293.878C56.0495 293.09 56.8245 291.967 57.1815 290.687L57.7995 281.466L56.5538 274.926C53.2672 272.225 49.9445 272.281 46.5883 274.926L45.5181 288.624C45.4553 289.428 45.5565 290.236 45.8155 291C46.0745 291.763 46.4859 292.466 47.0248 293.065C47.5636 293.665 48.2187 294.149 48.9502 294.487C49.6818 294.826 50.4745 295.013 51.2803 295.036Z" fill="#2F2E41"/>
<path d="M86.2012 295.036C87.5291 295.074 88.8315 294.666 89.9009 293.878C90.9704 293.09 91.7454 291.967 92.1024 290.687L92.7204 281.466L91.4747 274.926C88.1881 272.225 84.8654 272.281 81.5092 274.926L80.439 288.624C80.3762 289.428 80.4774 290.236 80.7364 291C80.9954 291.763 81.4068 292.466 81.9457 293.065C82.4845 293.665 83.1396 294.149 83.8712 294.487C84.6027 294.826 85.3954 295.013 86.2012 295.036Z" fill="#2F2E41"/>
<path d="M84.1887 61.8711C92.5168 61.8711 99.2681 55.1199 99.2681 46.7918C99.2681 38.4637 92.5168 31.7124 84.1887 31.7124C75.8606 31.7124 69.1094 38.4637 69.1094 46.7918C69.1094 55.1199 75.8606 61.8711 84.1887 61.8711Z" fill="#9F616A"/>
<path d="M103.236 161.077H45.6963C53.154 126.515 53.1332 98.6785 47.1927 76.1663C46.8143 74.733 46.9784 73.2105 47.6536 71.8909C48.3287 70.5712 49.4673 69.5472 50.851 69.0154L66.3312 63.0615C70.9787 69.0634 77.537 71.6849 87.7598 67.8234L95.8717 69.4874C97.847 69.8901 99.6093 70.995 100.832 72.5975C102.056 74.1999 102.656 76.1913 102.524 78.2028C101.927 87.0073 102.162 95.8792 101.649 103.538C100.058 127.254 99.371 145.742 103.236 161.077Z" fill="#2962FF" fill-opacity="0.1"/>
<path d="M76.2518 26.9505C76.2518 26.9505 84.9819 17.0299 95.2994 26.5537L98.0772 27.3474L96.093 28.9347C96.093 28.9347 106.41 33.6965 105.617 43.6172C105.617 43.6172 104.03 43.2204 103.236 43.6172C102.442 44.014 102.045 48.3791 102.045 48.3791C102.045 48.3791 100.855 45.2045 100.458 44.8077C100.061 44.4108 94.5058 49.1728 85.3788 42.0299C85.3788 42.0299 82.601 49.1727 79.4264 48.3791C76.2518 47.5854 71.8867 47.9823 69.9026 53.141C69.9026 53.141 59.1883 30.1251 76.2518 26.9505Z" fill="#2F2E41"/>
<path d="M106.014 152.347L100.92 159.175C100.389 159.886 100.006 160.695 99.7908 161.556C99.576 162.417 99.5346 163.312 99.6689 164.189C99.8032 165.066 100.111 165.907 100.573 166.665C101.036 167.422 101.644 168.079 102.363 168.599C103.289 169.268 104.371 169.689 105.506 169.822C106.641 169.955 107.791 169.794 108.846 169.357C109.902 168.919 110.827 168.218 111.535 167.321C112.243 166.425 112.71 165.361 112.89 164.233L114.347 155.125L117.125 115.839L115.141 95.998L102.443 100.76L106.014 117.823V152.347Z" fill="#9F616A"/>
<path d="M100.855 105.522L116.331 98.3789L115.538 92.7566C115.538 88.1017 114.13 83.5557 111.5 79.7151C108.87 75.8745 105.141 72.9188 100.801 71.2359L96.0933 69.4106L100.855 105.522Z" fill="#2962FF" fill-opacity="0.1"/>
<path d="M44.5061 150.76L49.6001 157.587C50.1307 158.298 50.5145 159.108 50.7293 159.969C50.9441 160.83 50.9855 161.725 50.8512 162.602C50.7169 163.479 50.4095 164.32 49.947 165.077C49.4844 165.834 48.8759 166.492 48.1568 167.012C47.2308 167.681 46.1489 168.102 45.014 168.235C43.8792 168.367 42.7293 168.207 41.6739 167.769C40.6185 167.332 39.6928 166.631 38.9849 165.734C38.277 164.837 37.8106 163.774 37.6301 162.646L36.1728 153.538L33.395 114.252L35.3791 94.4106L48.0775 99.1725L44.5061 116.236V150.76Z" fill="#9F616A"/>
<path d="M49.6647 103.934L34.1885 96.7915L34.9821 91.1691C34.9821 86.5143 36.3895 81.9683 39.0195 78.1277C41.6495 74.2871 45.3793 71.3314 49.7192 69.6485L54.4266 67.8232L49.6647 103.934Z" fill="#2962FF" fill-opacity="0.1"/>
<path d="M454.827 255.771H190.007C188.9 255.769 187.84 255.329 187.057 254.547C186.275 253.765 185.835 252.704 185.834 251.598V136.434C185.835 135.328 186.275 134.267 187.057 133.485C187.84 132.703 188.9 132.263 190.007 132.262H454.827C455.934 132.263 456.994 132.703 457.777 133.485C458.559 134.267 458.999 135.328 459 136.434V251.598C458.999 252.704 458.559 253.765 457.777 254.547C456.994 255.329 455.934 255.769 454.827 255.771ZM190.007 133.931C189.343 133.931 188.706 134.195 188.237 134.665C187.768 135.134 187.504 135.771 187.503 136.434V251.598C187.504 252.262 187.768 252.898 188.237 253.367C188.706 253.837 189.343 254.101 190.007 254.102H454.827C455.491 254.101 456.128 253.837 456.597 253.367C457.066 252.898 457.33 252.262 457.331 251.598V136.434C457.33 135.771 457.066 135.134 456.597 134.665C456.128 134.195 455.491 133.931 454.827 133.931H190.007Z" fill="#2962FF" fill-opacity="0.1"/>
<path d="M200.855 146.448C200.191 146.448 199.554 146.712 199.085 147.182C198.615 147.651 198.352 148.288 198.352 148.952C198.352 149.616 198.615 150.253 199.085 150.722C199.554 151.192 200.191 151.455 200.855 151.455H235.905C236.569 151.455 237.206 151.192 237.675 150.722C238.145 150.253 238.408 149.616 238.408 148.952C238.408 148.288 238.145 147.651 237.675 147.182C237.206 146.712 236.569 146.448 235.905 146.448H200.855Z" fill="#2962FF" fill-opacity="0.1"/>
<path d="M440.802 163.859V210.286H204.449V185.842C206.085 184.791 207.732 183.745 209.393 182.733C216.489 178.391 224.084 174.33 232.361 172.825C236.276 172.095 240.287 172.045 244.218 172.677C248.372 173.363 252.347 174.794 256.283 176.23C260.165 177.651 264.056 179.116 268.116 179.94C272.072 180.717 276.133 180.797 280.116 180.177C287.716 179.037 294.856 175.983 301.967 173.22C309.121 170.442 316.494 167.817 324.237 167.471C331.882 167.126 339.432 168.932 346.686 171.172C361.475 175.736 376.576 182.506 392.236 177.863C408.138 173.156 422.764 159.567 440.386 163.598C440.553 163.629 440.702 163.722 440.802 163.859Z" fill="#2962FF" fill-opacity="0.1"/>
<path d="M440.802 164.669C440.726 164.81 440.606 164.922 440.459 164.987C440.312 165.051 440.148 165.064 439.993 165.024C437.893 164.543 435.742 164.321 433.588 164.363C416.254 164.669 402.926 178.623 385.977 180.71C370.695 182.59 356.312 175.159 341.943 171.276C334.478 169.258 326.78 168.187 319.097 169.559C311.474 170.916 304.319 174.034 297.135 176.802C290.217 179.467 283.028 181.944 275.537 182.067C267.302 182.205 259.886 178.81 252.247 176.225C248.275 174.878 244.2 173.812 239.991 173.708C235.889 173.659 231.807 174.291 227.911 175.578C219.795 178.159 212.482 182.758 205.362 187.327C205.24 187.413 205.091 187.453 204.942 187.441C204.789 187.42 204.645 187.353 204.53 187.249C204.415 187.145 204.335 187.008 204.299 186.857C204.264 186.706 204.275 186.548 204.332 186.404C204.389 186.259 204.488 186.136 204.617 186.049L204.942 185.842C206.576 184.791 208.219 183.745 209.877 182.733C216.957 178.391 224.536 174.33 232.796 172.825C236.703 172.095 240.706 172.045 244.629 172.677C248.774 173.363 252.741 174.794 256.669 176.23C260.542 177.651 264.425 179.116 268.476 179.94C272.424 180.717 276.477 180.797 280.452 180.177C288.036 179.037 295.161 175.983 302.257 173.22C309.396 170.442 316.754 167.817 324.481 167.471C332.109 167.126 339.644 168.932 346.882 171.172C361.641 175.736 376.71 182.506 392.337 177.863C408.206 173.156 422.802 159.567 440.387 163.598C440.554 163.629 440.702 163.722 440.802 163.859C440.878 163.981 440.918 164.121 440.918 164.264C440.918 164.407 440.878 164.548 440.802 164.669Z" fill="#2962FF"/>
<path d="M237.015 176.733C238.923 176.733 240.469 175.187 240.469 173.279C240.469 171.372 238.923 169.825 237.015 169.825C235.107 169.825 233.561 171.372 233.561 173.279C233.561 175.187 235.107 176.733 237.015 176.733Z" fill="#2962FF"/>
<path d="M324.352 172.292C326.26 172.292 327.806 170.746 327.806 168.838C327.806 166.931 326.26 165.384 324.352 165.384C322.445 165.384 320.898 166.931 320.898 168.838C320.898 170.746 322.445 172.292 324.352 172.292Z" fill="#2962FF"/>
<path d="M430.933 167.851C432.841 167.851 434.388 166.305 434.388 164.397C434.388 162.49 432.841 160.943 430.933 160.943C429.026 160.943 427.479 162.49 427.479 164.397C427.479 166.305 429.026 167.851 430.933 167.851Z" fill="#2962FF"/>
<path d="M235.07 229.9C234.406 229.9 233.77 230.164 233.3 230.634C232.831 231.103 232.567 231.74 232.567 232.404C232.567 233.068 232.831 233.705 233.3 234.174C233.77 234.644 234.406 234.908 235.07 234.908H270.12C270.784 234.908 271.421 234.644 271.891 234.174C272.36 233.705 272.624 233.068 272.624 232.404C272.624 231.74 272.36 231.103 271.891 230.634C271.421 230.164 270.784 229.9 270.12 229.9H235.07Z" fill="#2962FF" fill-opacity="0.1"/>
<path d="M212.538 241.584C217.762 241.584 221.996 237.349 221.996 232.126C221.996 226.902 217.762 222.668 212.538 222.668C207.315 222.668 203.081 226.902 203.081 232.126C203.081 237.349 207.315 241.584 212.538 241.584Z" fill="#2962FF"/>
<path d="M319.635 229.9C318.971 229.9 318.334 230.164 317.865 230.634C317.395 231.103 317.131 231.74 317.131 232.404C317.131 233.068 317.395 233.705 317.865 234.174C318.334 234.644 318.971 234.908 319.635 234.908H354.685C355.349 234.908 355.986 234.644 356.455 234.174C356.925 233.705 357.188 233.068 357.188 232.404C357.188 231.74 356.925 231.103 356.455 230.634C355.986 230.164 355.349 229.9 354.685 229.9H319.635Z" fill="#2962FF" fill-opacity="0.1"/>
<path d="M297.103 241.584C302.326 241.584 306.561 237.349 306.561 232.126C306.561 226.902 302.326 222.668 297.103 222.668C291.879 222.668 287.645 226.902 287.645 232.126C287.645 237.349 291.879 241.584 297.103 241.584Z" fill="#2962FF"/>
<path d="M404.2 229.9C403.536 229.9 402.899 230.164 402.43 230.634C401.96 231.103 401.696 231.74 401.696 232.404C401.696 233.068 401.96 233.705 402.43 234.174C402.899 234.644 403.536 234.908 404.2 234.908H439.25C439.914 234.908 440.55 234.644 441.02 234.174C441.489 233.705 441.753 233.068 441.753 232.404C441.753 231.74 441.489 231.103 441.02 230.634C440.55 230.164 439.914 229.9 439.25 229.9H404.2Z" fill="#2962FF" fill-opacity="0.1"/>
<path d="M381.668 241.584C386.891 241.584 391.126 237.349 391.126 232.126C391.126 226.902 386.891 222.668 381.668 222.668C376.444 222.668 372.21 226.902 372.21 232.126C372.21 237.349 376.444 241.584 381.668 241.584Z" fill="#2962FF"/>
<path d="M436.701 101.167H306.05C303.503 101.167 301.439 99.6966 301.436 97.8846V69.4875C301.439 67.6755 303.503 66.2051 306.05 66.2051H436.701C439.248 66.2051 441.312 67.6755 441.315 69.4875V97.884C441.313 99.696 439.248 101.165 436.701 101.167ZM306.05 67.5169C304.522 67.5169 303.283 68.3993 303.281 69.4864V97.8829C303.281 98.97 304.522 99.8512 306.05 99.8523H436.701C438.229 99.8523 439.468 98.97 439.469 97.8829V69.4875C439.469 68.4004 438.229 67.5192 436.701 67.5181L306.05 67.5169Z" fill="#2962FF" fill-opacity="0.1"/>
<path d="M335.59 82.3433C334.853 82.3441 334.146 82.6375 333.624 83.159C333.103 83.6805 332.809 84.3875 332.809 85.125V104.597C332.809 105.335 333.103 106.042 333.624 106.563C334.146 107.085 334.853 107.378 335.59 107.379H435.176C435.914 107.378 436.621 107.085 437.142 106.563C437.664 106.042 437.957 105.335 437.958 104.597V85.125C437.957 84.3875 437.664 83.6805 437.142 83.159C436.621 82.6375 435.914 82.3441 435.176 82.3433H335.59Z" fill="#2962FF"/>
<path d="M349.499 101.259C352.879 101.259 355.619 98.5192 355.619 95.1393C355.619 91.7595 352.879 89.0195 349.499 89.0195C346.119 89.0195 343.379 91.7595 343.379 95.1393C343.379 98.5192 346.119 101.259 349.499 101.259Z" fill="white"/>
<path d="M377.39 92.4829C376.726 92.4829 376.089 92.7467 375.62 93.2162C375.15 93.6857 374.886 94.3225 374.886 94.9865C374.886 95.6505 375.15 96.2872 375.62 96.7567C376.089 97.2263 376.726 97.49 377.39 97.49H412.44C413.104 97.49 413.74 97.2263 414.21 96.7567C414.679 96.2872 414.943 95.6505 414.943 94.9865C414.943 94.3225 414.679 93.6857 414.21 93.2162C413.74 92.7467 413.104 92.4829 412.44 92.4829H377.39Z" fill="white"/>
<path d="M338.784 34.9619H208.133C205.586 34.9619 203.522 33.4915 203.519 31.6795V3.28245C203.522 1.47043 205.586 0 208.133 0H338.784C341.331 0 343.395 1.47043 343.398 3.28245V31.6789C343.396 33.4909 341.331 34.9597 338.784 34.9619ZM208.133 1.31187C206.605 1.31187 205.366 2.19423 205.364 3.28133V31.6778C205.364 32.7649 206.605 33.6462 208.133 33.6473H338.784C340.312 33.6473 341.551 32.7649 341.552 31.6778V3.28245C341.552 2.19535 340.312 1.31409 338.784 1.31298L208.133 1.31187Z" fill="#2962FF" fill-opacity="0.1"/>
<path d="M237.673 16.1382C236.936 16.1391 236.229 16.4324 235.707 16.9539C235.186 17.4754 234.892 18.1824 234.892 18.9199V38.392C234.892 39.1295 235.186 39.8366 235.707 40.3581C236.229 40.8795 236.936 41.1729 237.673 41.1738H337.259C337.997 41.1729 338.704 40.8795 339.225 40.3581C339.747 39.8366 340.04 39.1295 340.041 38.392V18.9199C340.04 18.1824 339.747 17.4754 339.225 16.9539C338.704 16.4324 337.997 16.139 337.259 16.1382H237.673Z" fill="#2962FF"/>
<path d="M251.582 35.0536C254.962 35.0536 257.702 32.3137 257.702 28.9338C257.702 25.5539 254.962 22.814 251.582 22.814C248.202 22.814 245.462 25.5539 245.462 28.9338C245.462 32.3137 248.202 35.0536 251.582 35.0536Z" fill="white"/>
<path d="M279.473 26.2778C278.809 26.2778 278.172 26.5416 277.703 27.0111C277.233 27.4806 276.969 28.1174 276.969 28.7814C276.969 29.4454 277.233 30.0822 277.703 30.5517C278.172 31.0212 278.809 31.2849 279.473 31.2849H314.523C315.187 31.2849 315.823 31.0212 316.293 30.5517C316.762 30.0822 317.026 29.4454 317.026 28.7814C317.026 28.1174 316.762 27.4806 316.293 27.0111C315.823 26.5416 315.187 26.2778 314.523 26.2778H279.473Z" fill="white"/>
</g>
<defs>
<clipPath id="clip0_616_4160">
<rect width="458.151" height="300" fill="white" transform="translate(0.848633)"/>
</clipPath>
</defs>
</svg>
