<svg width="471" height="300" viewBox="0 0 471 300" fill="none" xmlns="http://www.w3.org/2000/svg">
<g clip-path="url(#clip0_610_3792)">
<path d="M84.0505 297.39C88.5338 293.602 91.257 287.617 90.5428 281.791C89.8287 275.965 85.4054 270.61 79.6677 269.372C73.9301 268.135 67.3896 271.56 65.6469 277.165C64.6878 266.359 63.5826 255.1 57.8375 245.898C52.6354 237.566 43.6254 231.603 33.8606 230.537C24.0957 229.47 13.8146 233.499 7.72462 241.206C1.63465 248.913 0.143531 260.118 4.40879 268.967C7.55086 275.485 13.3397 280.336 19.4049 284.283C39.0038 296.928 62.5101 302.071 85.5988 298.764L84.0505 297.39Z" fill="#2962FF" fill-opacity="0.1"/>
<path d="M17.3811 233.722C25.4383 240.285 32.8299 247.625 39.4491 255.636C46.0693 263.638 51.8976 272.264 56.8523 281.392C59.6218 286.513 62.1096 291.78 64.3048 297.172C64.7523 298.269 62.9714 298.746 62.5288 297.662C58.6406 288.156 53.8302 279.055 48.1666 270.488C42.5304 261.952 36.0795 253.983 28.9046 246.692C24.8464 242.571 20.5646 238.676 16.0787 235.024C15.1593 234.276 16.4692 232.979 17.3811 233.722Z" fill="white"/>
<path d="M351.59 0H108.795C107.869 0.00102665 106.982 0.369035 106.328 1.02329C105.674 1.67755 105.306 2.56461 105.305 3.48987V168.012C105.306 168.938 105.674 169.825 106.328 170.479C106.982 171.133 107.869 171.501 108.795 171.502H351.59C352.515 171.501 353.402 171.133 354.056 170.479C354.711 169.825 355.079 168.938 355.08 168.012V3.48987C355.079 2.56461 354.711 1.67755 354.056 1.02329C353.402 0.369035 352.515 0.00102665 351.59 0ZM354.083 168.012C354.082 168.673 353.82 169.307 353.352 169.775C352.885 170.242 352.251 170.505 351.59 170.505H108.795C108.134 170.505 107.5 170.242 107.032 169.775C106.565 169.307 106.302 168.673 106.302 168.012V3.48987C106.302 2.82883 106.565 2.19494 107.032 1.72751C107.5 1.26009 108.134 0.99737 108.795 0.997106H351.59C352.251 0.99737 352.885 1.26009 353.352 1.72751C353.82 2.19494 354.082 2.82883 354.083 3.48987V168.012Z" fill="#3F3D56"/>
<path d="M354.581 13.9795H105.803V14.9766H354.581V13.9795Z" fill="#3F3D56"/>
<path d="M114.279 10.4695C115.931 10.4695 117.27 9.13019 117.27 7.47813C117.27 5.82607 115.931 4.48682 114.279 4.48682C112.627 4.48682 111.288 5.82607 111.288 7.47813C111.288 9.13019 112.627 10.4695 114.279 10.4695Z" fill="#3F3D56"/>
<path d="M122.879 10.4695C124.531 10.4695 125.87 9.13019 125.87 7.47813C125.87 5.82607 124.531 4.48682 122.879 4.48682C121.227 4.48682 119.888 5.82607 119.888 7.47813C119.888 9.13019 121.227 10.4695 122.879 10.4695Z" fill="#3F3D56"/>
<path d="M131.479 10.4695C133.131 10.4695 134.47 9.13019 134.47 7.47813C134.47 5.82607 133.131 4.48682 131.479 4.48682C129.827 4.48682 128.488 5.82607 128.488 7.47813C128.488 9.13019 129.827 10.4695 131.479 10.4695Z" fill="#3F3D56"/>
<path d="M251.132 37.1423H209.253C208.327 37.1423 207.44 36.7747 206.785 36.1202C206.131 35.4657 205.763 34.578 205.763 33.6525C205.763 32.7269 206.131 31.8392 206.785 31.1848C207.44 30.5303 208.327 30.1626 209.253 30.1626H251.132C252.057 30.1626 252.945 30.5303 253.599 31.1848C254.254 31.8392 254.621 32.7269 254.621 33.6525C254.621 34.578 254.254 35.4657 253.599 36.1202C252.945 36.7747 252.057 37.1423 251.132 37.1423Z" fill="#2962FF" fill-opacity="0.2"/>
<path d="M279.799 54.093H180.587C179.661 54.093 178.773 53.7253 178.119 53.0709C177.464 52.4164 177.097 51.5287 177.097 50.6032C177.097 49.6776 177.464 48.7899 178.119 48.1354C178.773 47.481 179.661 47.1133 180.587 47.1133H279.799C280.724 47.1133 281.612 47.481 282.266 48.1354C282.921 48.7899 283.288 49.6776 283.288 50.6032C283.288 51.5287 282.921 52.4164 282.266 53.0709C281.612 53.7253 280.724 54.093 279.799 54.093Z" fill="#2962FF" fill-opacity="0.2"/>
<path d="M309.553 158.266C305.792 158.266 302.116 157.151 298.989 155.062C295.863 152.973 293.426 150.003 291.986 146.529C290.547 143.054 290.171 139.231 290.904 135.543C291.638 131.855 293.449 128.467 296.108 125.808C298.767 123.149 302.155 121.338 305.843 120.604C309.532 119.87 313.355 120.247 316.829 121.686C320.303 123.125 323.273 125.562 325.362 128.689C327.451 131.816 328.567 135.492 328.567 139.253C328.561 144.294 326.556 149.126 322.991 152.691C319.427 156.256 314.594 158.261 309.553 158.266ZM309.553 121.55C306.052 121.55 302.629 122.588 299.718 124.533C296.807 126.479 294.538 129.243 293.198 132.478C291.858 135.713 291.507 139.272 292.191 142.706C292.874 146.14 294.56 149.294 297.035 151.77C299.511 154.246 302.665 155.932 306.099 156.615C309.533 157.298 313.093 156.947 316.327 155.608C319.562 154.268 322.327 151.999 324.272 149.088C326.217 146.176 327.255 142.754 327.255 139.253C327.25 134.559 325.383 130.06 322.064 126.741C318.746 123.422 314.246 121.555 309.553 121.55Z" fill="#3F3D56"/>
<path d="M150.147 107.342C146.387 107.342 142.71 106.227 139.584 104.138C136.457 102.049 134.02 99.0793 132.581 95.605C131.142 92.1307 130.765 88.3076 131.499 84.6193C132.232 80.931 134.043 77.5431 136.702 74.884C139.361 72.2248 142.749 70.4139 146.438 69.6803C150.126 68.9466 153.949 69.3232 157.423 70.7623C160.898 72.2014 163.867 74.6384 165.956 77.7652C168.046 80.892 169.161 84.5682 169.161 88.3287C169.155 93.3697 167.15 98.2027 163.586 101.767C160.021 105.332 155.188 107.337 150.147 107.342ZM150.147 70.6262C146.646 70.6262 143.223 71.6645 140.312 73.6097C137.401 75.5548 135.132 78.3196 133.792 81.5543C132.452 84.789 132.102 88.3484 132.785 91.7823C133.468 95.2163 135.154 98.3705 137.63 100.846C140.105 103.322 143.26 105.008 146.694 105.691C150.127 106.374 153.687 106.024 156.922 104.684C160.156 103.344 162.921 101.075 164.866 98.1637C166.811 95.2525 167.85 91.8299 167.85 88.3287C167.844 83.6354 165.977 79.1358 162.659 75.8171C159.34 72.4983 154.84 70.6316 150.147 70.6262Z" fill="#3F3D56"/>
<path d="M157.533 98.4082C157.035 98.4083 156.558 98.2108 156.205 97.8591C155.853 97.5073 155.655 97.0301 155.654 96.5323V85.8641C155.654 85.3667 155.852 84.8899 156.204 84.5382C156.555 84.1865 157.032 83.9887 157.53 83.9881H157.533C158.03 83.9887 158.507 84.1865 158.859 84.5382C159.21 84.8899 159.408 85.3667 159.409 85.8641V96.5323C159.408 97.0296 159.21 97.5064 158.859 97.8581C158.507 98.2098 158.03 98.4076 157.533 98.4082ZM152.635 98.4082C152.387 98.4107 152.14 98.3641 151.91 98.271C151.68 98.1779 151.47 98.0403 151.294 97.8659C151.117 97.6916 150.976 97.484 150.88 97.2552C150.783 97.0263 150.733 96.7806 150.732 96.5323V90.7856C150.733 90.2883 150.931 89.8115 151.282 89.4598C151.634 89.1082 152.111 88.9104 152.608 88.9099H152.635C153.132 88.9104 153.609 89.1082 153.961 89.4598C154.312 89.8115 154.51 90.2883 154.511 90.7856V96.5323C154.51 97.0296 154.312 97.5064 153.961 97.8581C153.609 98.2098 153.132 98.4076 152.635 98.4082ZM147.69 98.4082C147.192 98.4083 146.714 98.2108 146.362 97.8591C146.01 97.5073 145.811 97.0301 145.811 96.5323V80.1254C145.811 79.6281 146.009 79.1513 146.361 78.7996C146.712 78.4479 147.189 78.2501 147.687 78.2495H147.69C148.187 78.2501 148.664 78.4479 149.016 78.7996C149.367 79.1513 149.565 79.6281 149.566 80.1254V96.5323C149.565 97.0296 149.367 97.5064 149.016 97.8581C148.664 98.2098 148.187 98.4076 147.69 98.4082ZM142.763 98.4082C142.517 98.4084 142.273 98.3601 142.045 98.2658C141.817 98.1716 141.61 98.0333 141.435 97.859C141.261 97.6846 141.123 97.4775 141.028 97.2497C140.934 97.0218 140.886 96.7775 140.886 96.5309L140.888 94.0667C140.888 93.5692 141.086 93.0922 141.438 92.7406C141.79 92.389 142.267 92.1915 142.764 92.1918C143.262 92.192 143.739 92.3898 144.09 92.7417C144.442 93.0936 144.639 93.5708 144.639 94.0683V96.5323C144.639 97.0296 144.441 97.5064 144.089 97.8581C143.738 98.2098 143.261 98.4076 142.763 98.4082Z" fill="#2962FF"/>
<path d="M438.582 298.787C434.821 298.787 431.145 297.672 428.018 295.582C424.891 293.493 422.454 290.524 421.015 287.049C419.576 283.575 419.2 279.752 419.933 276.064C420.667 272.375 422.478 268.987 425.137 266.328C427.796 263.669 431.184 261.858 434.872 261.125C438.561 260.391 442.384 260.768 445.858 262.207C449.332 263.646 452.302 266.083 454.391 269.21C456.48 272.336 457.595 276.012 457.595 279.773C457.59 284.814 455.585 289.647 452.02 293.212C448.456 296.776 443.623 298.781 438.582 298.787ZM438.582 262.071C435.08 262.071 431.658 263.109 428.747 265.054C425.836 266.999 423.567 269.764 422.227 272.999C420.887 276.233 420.536 279.793 421.219 283.227C421.902 286.661 423.588 289.815 426.064 292.291C428.54 294.766 431.694 296.452 435.128 297.135C438.562 297.818 442.121 297.468 445.356 296.128C448.591 294.788 451.356 292.519 453.301 289.608C455.246 286.697 456.284 283.274 456.284 279.773C456.279 275.08 454.412 270.58 451.093 267.261C447.775 263.943 443.275 262.076 438.582 262.071Z" fill="#3F3D56"/>
<path d="M443.823 276.473L440.116 282.141C440.414 282.502 440.576 282.957 440.574 283.425C440.573 283.965 440.358 284.483 439.975 284.865C439.593 285.247 439.075 285.461 438.534 285.461C437.994 285.461 437.476 285.247 437.093 284.865C436.711 284.483 436.496 283.965 436.495 283.425C436.496 283.294 436.508 283.163 436.53 283.034L434.084 281.609C433.768 281.914 433.361 282.11 432.925 282.165C432.489 282.22 432.047 282.132 431.665 281.914L429.062 284.353V286.784C429.063 287.264 429.254 287.725 429.593 288.065C429.933 288.406 430.393 288.598 430.874 288.6H446.285C446.766 288.598 447.227 288.406 447.567 288.066C447.907 287.725 448.099 287.265 448.101 286.784V277.769L445.612 276.113C445.362 276.307 445.07 276.441 444.76 276.503C444.449 276.566 444.129 276.555 443.823 276.473Z" fill="#2962FF"/>
<path d="M432.671 278.117C433.212 278.117 433.73 278.332 434.113 278.714C434.495 279.097 434.71 279.616 434.71 280.156V280.419L437.262 281.847C437.626 281.549 438.083 281.385 438.554 281.386C438.703 281.387 438.851 281.402 438.996 281.433L442.711 275.682C442.526 275.422 442.404 275.121 442.357 274.804C442.31 274.488 442.338 274.165 442.439 273.861C442.54 273.558 442.712 273.282 442.94 273.058C443.167 272.833 443.445 272.665 443.75 272.568C444.055 272.471 444.378 272.447 444.694 272.499C445.01 272.55 445.309 272.676 445.567 272.865C445.825 273.054 446.035 273.301 446.18 273.587C446.324 273.872 446.399 274.188 446.398 274.508C446.398 274.67 446.38 274.831 446.344 274.989L448.101 276.164V272.762C448.099 272.281 447.907 271.82 447.567 271.48C447.227 271.14 446.766 270.948 446.285 270.946H430.874C430.393 270.948 429.933 271.14 429.593 271.48C429.254 271.821 429.063 272.281 429.062 272.762V282.505L430.76 280.877C430.647 280.569 430.609 280.238 430.651 279.913C430.693 279.588 430.813 279.277 431 279.008C431.188 278.739 431.438 278.519 431.729 278.367C432.019 278.216 432.343 278.137 432.671 278.137V278.117Z" fill="#2962FF"/>
<path d="M230.946 107.342C227.186 107.342 223.51 106.227 220.383 104.138C217.256 102.049 214.819 99.0793 213.38 95.605C211.941 92.1307 211.564 88.3076 212.298 84.6193C213.032 80.931 214.842 77.5431 217.502 74.884C220.161 72.2248 223.549 70.4139 227.237 69.6803C230.925 68.9466 234.748 69.3232 238.223 70.7623C241.697 72.2014 244.666 74.6384 246.756 77.7652C248.845 80.892 249.96 84.5682 249.96 88.3287C249.954 93.3697 247.949 98.2027 244.385 101.767C240.82 105.332 235.987 107.337 230.946 107.342ZM230.946 70.6262C227.445 70.6262 224.023 71.6645 221.111 73.6097C218.2 75.5548 215.931 78.3196 214.591 81.5543C213.252 84.789 212.901 88.3484 213.584 91.7823C214.267 95.2163 215.953 98.3705 218.429 100.846C220.905 103.322 224.059 105.008 227.493 105.691C230.927 106.374 234.486 106.024 237.721 104.684C240.956 103.344 243.72 101.075 245.665 98.1637C247.611 95.2525 248.649 91.8299 248.649 88.3287C248.644 83.6354 246.777 79.1358 243.458 75.8171C240.139 72.4983 235.64 70.6316 230.946 70.6262Z" fill="#3F3D56"/>
<path d="M220.845 95.2212C220.571 95.2212 220.304 95.1401 220.077 94.9884C219.85 94.8366 219.673 94.6209 219.568 94.3685C219.463 94.1161 219.436 93.8384 219.489 93.5703C219.542 93.3022 219.673 93.0559 219.866 92.8624L226.891 85.8172C227.001 85.707 227.131 85.6196 227.274 85.56C227.418 85.5005 227.571 85.47 227.727 85.4704H227.727C227.882 85.4699 228.036 85.5003 228.179 85.5596C228.323 85.619 228.453 85.7061 228.562 85.8161L231.821 89.0744C231.886 89.1404 231.964 89.1927 232.05 89.2284C232.136 89.264 232.228 89.2822 232.322 89.2819C232.415 89.2822 232.507 89.264 232.593 89.2283C232.679 89.1926 232.757 89.1402 232.823 89.0741L237.423 84.4662C237.445 84.4443 237.462 84.4183 237.474 84.3896C237.486 84.3609 237.492 84.3302 237.492 84.2992C237.492 84.2682 237.486 84.2375 237.474 84.2088C237.462 84.1802 237.445 84.1542 237.423 84.1323L235.934 82.6464C235.835 82.5474 235.767 82.4211 235.74 82.2837C235.713 82.1462 235.726 82.0037 235.78 81.8741C235.834 81.7446 235.924 81.6339 236.041 81.556C236.158 81.4781 236.295 81.4365 236.435 81.4365H241.721C241.909 81.4367 242.089 81.5114 242.222 81.6443C242.355 81.7771 242.43 81.9572 242.43 82.145V87.4282C242.43 87.5683 242.388 87.7053 242.31 87.8218C242.233 87.9384 242.122 88.0292 241.993 88.0829C241.863 88.1365 241.721 88.1506 241.583 88.1232C241.446 88.0959 241.319 88.0284 241.22 87.9293L239.73 86.4386C239.708 86.4166 239.682 86.3992 239.653 86.3873C239.624 86.3755 239.594 86.3694 239.563 86.3694C239.532 86.3694 239.501 86.3755 239.472 86.3873C239.444 86.3992 239.418 86.4166 239.396 86.4386L233.166 92.6636C233.057 92.7736 232.927 92.8607 232.784 92.9201C232.64 92.9794 232.487 93.0097 232.332 93.0093C232.177 93.0097 232.023 92.9793 231.88 92.92C231.736 92.8606 231.606 92.7734 231.497 92.6634L228.237 89.4035C228.102 89.2747 227.922 89.2028 227.736 89.2028C227.549 89.2028 227.37 89.2747 227.235 89.4035L221.822 94.816C221.694 94.9449 221.542 95.047 221.374 95.1166C221.206 95.1861 221.026 95.2217 220.845 95.2212Z" fill="#2962FF"/>
<path d="M230.946 157.198C227.186 157.198 223.51 156.083 220.383 153.994C217.256 151.904 214.819 148.935 213.38 145.46C211.941 141.986 211.564 138.163 212.298 134.475C213.032 130.786 214.842 127.399 217.502 124.739C220.161 122.08 223.549 120.269 227.237 119.536C230.925 118.802 234.748 119.179 238.223 120.618C241.697 122.057 244.666 124.494 246.756 127.621C248.845 130.748 249.96 134.424 249.96 138.184C249.954 143.225 247.949 148.058 244.385 151.623C240.82 155.187 235.987 157.192 230.946 157.198Z" fill="#2962FF" fill-opacity="0.1"/>
<path d="M309.718 105.847C305.957 105.847 302.281 104.732 299.154 102.642C296.028 100.553 293.591 97.5837 292.151 94.1094C290.712 90.6351 290.336 86.812 291.069 83.1237C291.803 79.4354 293.614 76.0475 296.273 73.3884C298.932 70.7292 302.32 68.9183 306.008 68.1847C309.697 67.451 313.52 67.8276 316.994 69.2667C320.468 70.7058 323.438 73.1428 325.527 76.2696C327.616 79.3964 328.732 83.0726 328.732 86.8331C328.726 91.8741 326.721 96.7071 323.156 100.272C319.592 103.836 314.759 105.841 309.718 105.847Z" fill="#2962FF" fill-opacity="0.1"/>
<path d="M150.148 119.17C146.884 119.174 143.676 120.015 140.83 121.613C144.943 121.976 148.799 123.766 151.732 126.672C154.666 129.577 156.491 133.417 156.894 137.526C157.296 141.636 156.249 145.756 153.935 149.176C151.621 152.595 148.184 155.098 144.22 156.252C144.963 156.498 145.72 156.697 146.488 156.846C147.694 157.083 148.919 157.201 150.148 157.2C155.191 157.2 160.027 155.196 163.593 151.63C167.159 148.064 169.162 143.228 169.162 138.185C169.162 133.142 167.159 128.305 163.593 124.739C160.027 121.173 155.191 119.17 150.148 119.17Z" fill="#2962FF" fill-opacity="0.1"/>
<path d="M142.934 120.596C141.729 120.355 140.503 120.234 139.274 120.237C134.385 120.232 129.682 122.108 126.139 125.477C122.595 128.846 120.484 133.448 120.243 138.331C120.002 143.214 121.648 148.003 124.842 151.705C128.035 155.407 132.531 157.738 137.396 158.215C142.262 158.693 147.125 157.279 150.977 154.269C154.828 151.258 157.374 146.88 158.086 142.043C158.798 137.207 157.622 132.281 154.801 128.288C151.98 124.295 147.73 121.541 142.934 120.596ZM144.22 156.252C141.785 156.961 139.226 157.138 136.717 156.771C134.207 156.405 131.806 155.503 129.675 154.128C127.544 152.753 125.734 150.936 124.366 148.801C122.998 146.665 122.106 144.261 121.748 141.75C121.39 139.24 121.576 136.682 122.292 134.249C123.009 131.816 124.24 129.566 125.902 127.651C127.564 125.735 129.618 124.199 131.925 123.146C134.232 122.093 136.738 121.548 139.274 121.548C139.798 121.548 140.316 121.573 140.83 121.613C144.943 121.976 148.799 123.766 151.733 126.672C154.666 129.577 156.491 133.417 156.894 137.526C157.296 141.636 156.249 145.756 153.935 149.176C151.621 152.595 148.184 155.098 144.22 156.252Z" fill="#3F3D56"/>
<path d="M150.345 135.905C149.716 133.15 148.021 130.757 145.63 129.252C143.239 127.746 140.348 127.251 137.592 127.875C137.323 127.936 137.044 128.012 136.799 128.088L139.34 139.253L150.506 136.717C150.458 136.457 150.406 136.174 150.345 135.905Z" fill="#2962FF"/>
<path d="M149.263 138.677L138.093 141.213L135.557 130.048C133.609 130.65 131.875 131.799 130.56 133.357C129.246 134.915 128.405 136.817 128.139 138.839C127.872 140.86 128.191 142.915 129.057 144.761C129.923 146.606 131.3 148.165 133.025 149.251C134.75 150.338 136.751 150.907 138.789 150.892C140.828 150.876 142.819 150.276 144.527 149.163C146.235 148.05 147.588 146.471 148.426 144.612C149.264 142.754 149.551 140.694 149.254 138.677H149.263Z" fill="#2962FF"/>
<path d="M345.548 228.064C341.788 228.064 338.112 226.949 334.985 224.859C331.858 222.77 329.421 219.8 327.982 216.326C326.543 212.852 326.166 209.029 326.9 205.341C327.634 201.652 329.445 198.264 332.104 195.605C334.763 192.946 338.151 191.135 341.839 190.401C345.527 189.668 349.35 190.044 352.825 191.483C356.299 192.923 359.269 195.36 361.358 198.486C363.447 201.613 364.562 205.289 364.562 209.05C364.557 214.091 362.551 218.924 358.987 222.488C355.422 226.053 350.589 228.058 345.548 228.064ZM345.548 191.347C342.047 191.347 338.625 192.386 335.713 194.331C332.802 196.276 330.533 199.041 329.194 202.275C327.854 205.51 327.503 209.07 328.186 212.504C328.869 215.937 330.555 219.092 333.031 221.567C335.507 224.043 338.661 225.729 342.095 226.412C345.529 227.095 349.088 226.745 352.323 225.405C355.558 224.065 358.322 221.796 360.268 218.885C362.213 215.974 363.251 212.551 363.251 209.05C363.246 204.357 361.379 199.857 358.06 196.538C354.741 193.22 350.242 191.353 345.548 191.347Z" fill="#3F3D56"/>
<path d="M353.753 216.668C353.057 216.669 352.377 216.463 351.798 216.077C351.219 215.69 350.767 215.141 350.501 214.498C350.234 213.856 350.164 213.148 350.299 212.465C350.434 211.783 350.769 211.156 351.261 210.663C351.753 210.171 352.379 209.835 353.062 209.699C353.744 209.563 354.452 209.632 355.095 209.898C355.738 210.164 356.288 210.614 356.675 211.193C357.062 211.771 357.269 212.451 357.269 213.147C357.27 214.08 356.899 214.975 356.24 215.636C355.581 216.296 354.686 216.667 353.753 216.668ZM345.549 216.668C344.616 216.667 343.723 216.296 343.063 215.637C342.404 214.978 342.033 214.084 342.032 213.152V204.948C342.034 204.016 342.404 203.123 343.064 202.464C343.723 201.805 344.617 201.436 345.549 201.436C346.481 201.436 347.374 201.805 348.034 202.464C348.693 203.123 349.064 204.016 349.065 204.948V213.152C349.064 214.084 348.693 214.978 348.034 215.637C347.375 216.297 346.481 216.667 345.549 216.668ZM337.347 216.668C336.414 216.667 335.52 216.296 334.86 215.637C334.2 214.977 333.829 214.082 333.828 213.149V209.872C333.828 208.938 334.199 208.043 334.859 207.383C335.519 206.724 336.414 206.353 337.347 206.353C338.28 206.353 339.175 206.724 339.835 207.383C340.495 208.043 340.866 208.938 340.866 209.872V213.149C340.865 214.082 340.494 214.977 339.834 215.637C339.174 216.296 338.28 216.667 337.347 216.668Z" fill="#2962FF"/>
<path d="M104.445 294.354L110.241 293.697L110.462 271.03L101.909 272L104.445 294.354Z" fill="#A0616A"/>
<path d="M122.028 297.81L103.814 299.876L103.016 292.839L114.192 291.571C116.059 291.359 117.933 291.897 119.402 293.067C120.872 294.237 121.817 295.943 122.028 297.81Z" fill="#2F2E41"/>
<path d="M44.8438 293.992L50.6763 293.992L53.4508 271.495L44.8428 271.495L44.8438 293.992Z" fill="#A0616A"/>
<path d="M61.9248 299.407L43.5938 299.408L43.5935 292.326L54.842 292.325C56.7204 292.325 58.5219 293.071 59.8502 294.399C61.1785 295.727 61.9247 297.529 61.9248 299.407Z" fill="#2F2E41"/>
<path d="M86.6912 193.386L90.0215 204.219L108.1 243.34L112.858 280.448L101.915 280.924L95.2547 246.67L72.4187 221.931L52.4372 286.633L43.3979 285.682C43.3979 285.682 51.01 201.95 61.4765 193.386C61.4765 193.386 78.6035 185.298 86.6912 193.386Z" fill="#2F2E41"/>
<path d="M71.9183 146.645C78.3717 146.645 83.6032 141.414 83.6032 134.96C83.6032 128.507 78.3717 123.275 71.9183 123.275C65.4649 123.275 60.2334 128.507 60.2334 134.96C60.2334 141.414 65.4649 146.645 71.9183 146.645Z" fill="#A0616A"/>
<path d="M87.8805 195.527C87.8805 195.527 89.3078 147 69.3263 150.33C49.3447 153.661 57.6704 200.522 57.6704 200.522C57.6704 200.522 61.9521 209.086 72.4186 199.571C82.8851 190.056 87.8805 195.527 87.8805 195.527Z" fill="#2962FF"/>
<path d="M129.247 155.136C128.872 155.726 128.372 156.227 127.782 156.603C127.193 156.979 126.528 157.221 125.834 157.313C125.141 157.404 124.436 157.342 123.769 157.132C123.102 156.921 122.489 156.567 121.974 156.094L107.007 164.158L107.791 155.358L121.884 149.05C122.736 148.237 123.856 147.765 125.033 147.723C126.21 147.681 127.361 148.072 128.269 148.822C129.176 149.572 129.777 150.629 129.957 151.793C130.138 152.957 129.885 154.146 129.247 155.136Z" fill="#A0616A"/>
<path d="M71.8071 156.255L96.1021 160.362L117.874 150.084L121.18 157.152L97.3455 172.333C97.3455 172.333 72.1127 174.046 66.2788 167.392C64.0911 164.897 63.8411 162.626 64.383 160.761C64.8578 159.234 65.8746 157.933 67.2419 157.103C68.6093 156.273 70.233 155.971 71.8071 156.255Z" fill="#2962FF"/>
<path d="M70.5285 147.238C70.5844 147.188 70.6277 147.126 70.6553 147.056C70.6828 146.987 70.6936 146.911 70.687 146.837C70.6804 146.762 70.6565 146.69 70.6172 146.626C70.5778 146.562 70.5242 146.509 70.4604 146.469C69.4228 145.827 68.5774 144.916 68.013 143.834C67.4487 142.752 67.1862 141.538 67.2532 140.319C67.3202 139.101 67.7141 137.922 68.3937 136.909C69.0732 135.895 70.0133 135.083 71.1151 134.558C74.5505 132.92 79.2057 134.194 81.7453 131.046C82.2618 130.373 82.627 129.596 82.8161 128.769C83.0051 127.941 83.0136 127.083 82.8408 126.252C82.2928 123.279 80.058 121.072 77.5551 119.559C74.4805 117.7 70.9469 116.74 67.3545 116.786C63.7621 116.833 60.2546 117.885 57.2294 119.823C54.2042 121.761 51.7822 124.507 50.238 127.751C48.6937 130.995 48.0889 134.607 48.4919 138.177C48.815 141.038 49.6979 144.246 47.9966 146.569C46.4992 148.614 43.6729 148.997 41.1901 149.505C35.865 150.595 30.7276 153.109 27.1138 157.169C23.5001 161.229 21.5723 166.926 22.6618 172.251C23.7514 177.576 28.1225 182.256 33.4949 183.081C37.8679 183.753 42.3832 181.896 45.5945 178.853C48.8057 175.809 50.8355 171.7 52.1158 167.465C53.6355 162.438 54.2349 157.022 56.9784 152.544C59.6631 148.163 65.4486 145.022 69.983 147.304C70.0699 147.349 70.1685 147.367 70.2659 147.355C70.3633 147.344 70.4548 147.303 70.5285 147.238Z" fill="#2F2E41"/>
<path d="M409.15 233.729C409.782 233.415 410.338 232.965 410.778 232.413C411.218 231.86 411.531 231.218 411.696 230.531C411.86 229.844 411.872 229.129 411.731 228.437C411.59 227.745 411.298 227.093 410.878 226.525L422.136 164.219L411.63 164.08L403.812 225.693C402.906 226.464 402.314 227.539 402.148 228.717C401.982 229.894 402.253 231.092 402.911 232.082C403.569 233.073 404.568 233.788 405.718 234.091C406.868 234.395 408.089 234.266 409.15 233.729Z" fill="#FFB8B8"/>
<path d="M376.544 230.775L372.555 249.72L373.054 292.097H380.532L384.022 250.718L389.506 233.268L376.544 230.775Z" fill="#FFB8B8"/>
<path d="M401.259 232.197L397.271 251.142L397.769 293.519H405.247L408.737 252.139L414.221 234.69L401.259 232.197Z" fill="#FFB8B8"/>
<path d="M370.442 291.616L382.23 291.586L382.248 299.008L363.039 299.056C363.036 298.081 363.226 297.116 363.596 296.214C363.967 295.313 364.512 294.494 365.199 293.803C365.887 293.112 366.704 292.563 367.603 292.188C368.503 291.812 369.467 291.618 370.442 291.616Z" fill="#2F2E41"/>
<path d="M395.341 292.417L407.128 292.388L407.147 299.81L387.938 299.858C387.935 298.883 388.125 297.918 388.495 297.016C388.866 296.115 389.411 295.295 390.098 294.604C390.786 293.913 391.602 293.365 392.502 292.99C393.402 292.614 394.366 292.42 395.341 292.417Z" fill="#2F2E41"/>
<path d="M394.741 137.867C401.503 137.867 406.986 132.385 406.986 125.622C406.986 118.859 401.503 113.377 394.741 113.377C387.978 113.377 382.496 118.859 382.496 125.622C382.496 132.385 387.978 137.867 394.741 137.867Z" fill="#FFB8B8"/>
<path d="M421.801 155.909C418.076 150.063 406.378 136.199 388.973 144.157C387.602 144.791 386.457 145.83 385.694 147.134C384.93 148.438 384.584 149.944 384.702 151.45C385.544 162.568 386.607 190.892 377.541 207.842C377.541 207.842 403.964 215.819 418.422 208.341C418.422 208.341 413.436 174.937 418.422 168.456C420.084 166.385 421.431 164.079 422.417 161.613C422.763 160.679 422.888 159.678 422.781 158.688C422.674 157.698 422.339 156.747 421.801 155.909Z" fill="#3F3D56"/>
<path d="M416.926 155.494L421.819 157.533C422.144 157.668 422.424 157.894 422.626 158.184C422.828 158.473 422.943 158.814 422.958 159.167L423.407 169.952L412.439 168.955L416.926 155.494Z" fill="#3F3D56"/>
<path d="M379.535 206.845C379.535 206.845 368.566 227.285 370.561 246.23L386.016 248.723L396.984 222.3L394.491 249.222L410.445 249.72C410.445 249.72 420.915 210.833 417.425 207.343L379.535 206.845Z" fill="#2F2E41"/>
<path d="M363.957 208.669C364.655 208.563 365.322 208.304 365.909 207.912C366.496 207.52 366.991 207.004 367.357 206.4C367.724 205.796 367.953 205.119 368.03 204.417C368.106 203.715 368.028 203.004 367.8 202.336L390.05 160.392L380.087 157.056L361.325 199.388C360.227 199.845 359.335 200.689 358.818 201.76C358.3 202.831 358.194 204.054 358.518 205.198C358.843 206.342 359.576 207.327 360.578 207.967C361.58 208.607 362.783 208.857 363.957 208.669Z" fill="#FFB8B8"/>
<path d="M393.087 149.038L388.966 147.194C388.966 147.194 385.472 145.028 382.375 149.794C379.277 154.561 375.932 165.006 375.932 165.006L389.378 168.79L393.087 149.038Z" fill="#3F3D56"/>
<path d="M396.702 131.517C397.142 129.991 397.015 127.925 395.535 127.348C394.764 127.047 393.903 127.284 393.08 127.369C391.469 127.527 389.856 127.083 388.553 126.122C387.022 124.984 386.077 123.245 385.179 121.562L383.821 119.017C383.518 118.486 383.261 117.931 383.05 117.358C382.294 115.111 383.115 112.509 384.795 110.836C386.55 109.203 388.86 108.297 391.257 108.302C393.636 108.319 395.986 108.823 398.163 109.782C402.032 111.359 405.537 113.713 408.459 116.699C410.37 118.653 412.109 121.199 411.71 123.903C411.399 126.008 409.865 127.693 408.402 129.237L403.095 134.84C402.155 135.832 401.151 136.864 399.839 137.246C398.526 137.627 396.836 137.067 396.478 135.748C396.478 135.748 396.262 133.044 396.702 131.517Z" fill="#2F2E41"/>
<path d="M470.069 300H0.930682C0.798457 300 0.671648 299.948 0.578151 299.854C0.484654 299.761 0.432129 299.634 0.432129 299.501C0.432129 299.369 0.484654 299.242 0.578151 299.149C0.671648 299.055 0.798457 299.003 0.930682 299.003H470.069C470.201 299.003 470.328 299.055 470.422 299.149C470.515 299.242 470.568 299.369 470.568 299.501C470.568 299.634 470.515 299.761 470.422 299.854C470.328 299.948 470.201 300 470.069 300Z" fill="#3F3D56"/>
<path d="M316.532 147.229H302.573C302.176 147.229 301.796 147.072 301.515 146.791C301.235 146.511 301.077 146.13 301.077 145.733C301.077 145.337 301.235 144.956 301.515 144.676C301.796 144.395 302.176 144.238 302.573 144.238H316.532C316.929 144.238 317.309 144.395 317.59 144.676C317.87 144.956 318.028 145.337 318.028 145.733C318.028 146.13 317.87 146.511 317.59 146.791C317.309 147.072 316.929 147.229 316.532 147.229Z" fill="#2962FF"/>
<path d="M316.532 140.748H302.573C302.176 140.748 301.796 140.591 301.515 140.31C301.235 140.03 301.077 139.649 301.077 139.252C301.077 138.856 301.235 138.475 301.515 138.195C301.796 137.914 302.176 137.757 302.573 137.757H316.532C316.929 137.757 317.309 137.914 317.59 138.195C317.87 138.475 318.028 138.856 318.028 139.252C318.028 139.649 317.87 140.03 317.59 140.31C317.309 140.591 316.929 140.748 316.532 140.748Z" fill="#2962FF"/>
<path d="M316.532 134.267H302.573C302.176 134.267 301.796 134.109 301.515 133.829C301.235 133.548 301.077 133.168 301.077 132.771C301.077 132.374 301.235 131.994 301.515 131.713C301.796 131.433 302.176 131.275 302.573 131.275H316.532C316.929 131.275 317.309 131.433 317.59 131.713C317.87 131.994 318.028 132.374 318.028 132.771C318.028 133.168 317.87 133.548 317.59 133.829C317.309 134.109 316.929 134.267 316.532 134.267Z" fill="#2962FF"/>
</g>
<defs>
<clipPath id="clip0_610_3792">
<rect width="470.135" height="300" fill="white" transform="translate(0.432129)"/>
</clipPath>
</defs>
</svg>
