<svg width="360" height="300" viewBox="0 0 360 300" fill="none" xmlns="http://www.w3.org/2000/svg">
<g clip-path="url(#clip0_610_3372)">
<path d="M330.658 294.222L325.31 294.222L322.767 273.597H330.659L330.658 294.222Z" fill="#9E616A"/>
<path d="M332.022 299.406L314.779 299.405V299.187C314.779 297.407 315.487 295.7 316.745 294.442C318.004 293.183 319.711 292.476 321.49 292.476L332.022 292.477L332.022 299.406Z" fill="#2F2E41"/>
<path d="M310.158 294.222L304.81 294.222L302.267 273.597H310.159L310.158 294.222Z" fill="#9E616A"/>
<path d="M311.522 299.406L294.279 299.405V299.187C294.279 297.407 294.987 295.7 296.245 294.442C297.504 293.183 299.211 292.476 300.99 292.476L311.522 292.477L311.522 299.406Z" fill="#2F2E41"/>
<path d="M79.1343 298.608V132.946C79.1343 131.925 79.5396 130.947 80.2611 130.225C80.9825 129.504 81.961 129.099 82.9813 129.099H100.149C101.169 129.099 102.148 129.504 102.869 130.225C103.591 130.947 103.996 131.925 103.996 132.946V299.04L79.1343 298.608Z" fill="#3F3D56"/>
<path d="M135.836 299.127V167.403C135.836 166.383 136.242 165.404 136.963 164.683C137.685 163.961 138.663 163.556 139.683 163.556H156.851C157.871 163.556 158.85 163.961 159.571 164.683C160.293 165.404 160.698 166.383 160.698 167.403V298.844L135.836 299.127Z" fill="#3F3D56"/>
<path d="M35.0801 142.628C34.8274 142.628 34.5802 142.555 34.3682 142.417C34.1562 142.28 33.9886 142.084 33.8856 141.853C33.7826 141.622 33.7486 141.367 33.7878 141.117C33.8269 140.867 33.9375 140.634 34.1062 140.446L91.5089 76.4201L148.001 108.143L204.829 10.2231L262.722 57.8728C262.854 57.982 262.964 58.1162 263.045 58.2679C263.126 58.4196 263.177 58.5858 263.193 58.7569C263.21 58.928 263.193 59.1007 263.143 59.2652C263.092 59.4297 263.01 59.5826 262.901 59.7154C262.792 59.8481 262.658 59.958 262.506 60.0389C262.354 60.1197 262.188 60.1698 262.017 60.1863C261.846 60.2028 261.673 60.1855 261.508 60.1353C261.344 60.085 261.191 60.0029 261.058 59.8935L205.546 14.2024L148.97 111.688L92.0569 79.7293L36.0548 142.193C35.9322 142.33 35.782 142.44 35.614 142.515C35.446 142.59 35.2641 142.628 35.0801 142.628Z" fill="#3F3D56"/>
<path d="M34.8627 153.533C41.6077 153.533 47.0755 148.065 47.0755 141.32C47.0755 134.575 41.6077 129.107 34.8627 129.107C28.1178 129.107 22.6499 134.575 22.6499 141.32C22.6499 148.065 28.1178 153.533 34.8627 153.533Z" fill="#2962FF"/>
<path d="M91.5649 90.2877C98.3098 90.2877 103.778 84.8198 103.778 78.0749C103.778 71.3299 98.3098 65.8621 91.5649 65.8621C84.8199 65.8621 79.3521 71.3299 79.3521 78.0749C79.3521 84.8198 84.8199 90.2877 91.5649 90.2877Z" fill="#CCCCCC"/>
<path d="M148.268 122.128C155.012 122.128 160.48 116.66 160.48 109.915C160.48 103.171 155.012 97.7026 148.268 97.7026C141.523 97.7026 136.055 103.171 136.055 109.915C136.055 116.66 141.523 122.128 148.268 122.128Z" fill="#E6E6E6"/>
<path d="M204.97 24.4256C211.715 24.4256 217.182 18.9578 217.182 12.2128C217.182 5.46786 211.715 0 204.97 0C198.225 0 192.757 5.46786 192.757 12.2128C192.757 18.9578 198.225 24.4256 204.97 24.4256Z" fill="#2962FF"/>
<path d="M314.013 115.383C320.758 115.383 326.225 109.915 326.225 103.17C326.225 96.4249 320.758 90.957 314.013 90.957C307.268 90.957 301.8 96.4249 301.8 103.17C301.8 109.915 307.268 115.383 314.013 115.383Z" fill="#2962FF"/>
<path d="M309.695 198.308C314.266 198.859 325.955 194.689 326.588 201.033C332.605 218.743 332.426 286.634 332.426 286.634L323.267 287.07C323.267 287.07 315.947 233.127 312.486 221.587C310.749 235.613 311.054 289.251 311.054 289.251L302.766 289.687C302.766 289.687 295.333 244.013 295.29 230.606C294.387 220.787 296.603 206.235 295.654 196.742C300.187 198.179 304.957 198.711 309.695 198.308Z" fill="#3F3D56"/>
<path d="M249.241 298.54V107.604C249.241 105.155 250.964 103.17 253.088 103.17H270.256C272.381 103.17 274.103 105.155 274.103 107.604V299.04L249.241 298.54Z" fill="#3F3D56"/>
<path d="M294.145 146.927C292.312 143.179 290.072 139.644 287.467 136.385C286.923 135.748 286.427 135.072 285.984 134.361C285.046 132.734 284.767 130.824 284.174 129.044C282.517 124.054 278.382 120.046 277.374 114.886C277.008 113.01 273.913 118.462 274.727 120.787C276.179 124.996 276.367 129.454 278.216 133.519C280.065 137.584 282.237 141.484 283.834 145.64C284.741 148 285.465 150.438 286.795 152.619C288.126 154.8 290.202 156.628 292.71 156.955C292.693 155.374 292.933 153.8 293.421 152.296C293.966 150.578 294.934 148.554 294.145 146.927Z" fill="#9E616A"/>
<path d="M321.585 149.754C321.472 146.669 321.954 143.592 323.002 140.69C323.403 139.578 323.874 138.448 323.835 137.266C323.779 136.167 323.255 135.159 322.78 134.165C321.14 130.741 319.988 127.112 318.854 123.492L316.673 116.666C315.962 116.144 320.115 115.963 321 117.189C323.896 121.21 326.09 125.829 328.385 130.222C328.97 131.268 329.469 132.361 329.876 133.489C330.437 135.316 330.702 137.222 330.661 139.133C330.661 142.705 330.19 146.264 329.702 149.806C329.392 152.026 328.986 154.442 327.307 155.912C325.562 153.679 323.809 151.498 321.585 149.754Z" fill="#9E616A"/>
<path d="M310.053 146.22C315.051 146.22 319.103 142.168 319.103 137.169C319.103 132.171 315.051 128.119 310.053 128.119C305.054 128.119 301.002 132.171 301.002 137.169C301.002 142.168 305.054 146.22 310.053 146.22Z" fill="#9E616A"/>
<path d="M302.695 128.14C302.593 127.865 302.57 127.567 302.629 127.28C302.687 126.993 302.825 126.728 303.026 126.515C303.252 126.337 303.552 126.271 303.795 126.101C304.139 125.811 304.421 125.455 304.623 125.053C305.241 124.188 306.146 123.569 307.177 123.308C308.207 123.046 309.298 123.158 310.254 123.624C311.749 124.406 312.652 125.974 313.983 127.029C314.658 127.576 315.441 127.982 316.121 128.529C317.481 129.705 318.449 131.269 318.892 133.012C319.333 134.743 319.591 136.516 319.661 138.3C319.731 138.836 319.71 139.38 319.599 139.908C319.461 140.351 319.256 140.771 318.99 141.151C317.622 143.223 315.82 145.104 313.562 146.173C311.304 147.242 308.557 147.416 306.33 146.297C306.106 146.207 305.913 146.052 305.775 145.854C305.649 145.551 305.618 145.217 305.688 144.897C305.809 143.631 305.559 142.357 304.967 141.23C304.553 140.402 303.931 139.689 303.6 138.832C303.292 137.872 303.16 136.864 303.211 135.857C303.171 133.248 303.348 130.65 302.695 128.14Z" fill="#2D293D"/>
<path d="M22.4312 298.8V206.619C22.4312 205.437 24.1536 204.478 26.2782 204.478H43.4459C45.5705 204.478 47.293 205.438 47.293 206.619V299.04L22.4312 298.8Z" fill="#3F3D56"/>
<path d="M358.649 300H1.35072C1.23504 300 1.1241 299.954 1.0423 299.872C0.960504 299.79 0.914551 299.68 0.914551 299.564C0.914551 299.448 0.960504 299.337 1.0423 299.255C1.1241 299.174 1.23504 299.128 1.35072 299.128H358.649C358.765 299.128 358.875 299.174 358.957 299.255C359.039 299.337 359.085 299.448 359.085 299.564C359.085 299.68 359.039 299.79 358.957 299.872C358.875 299.954 358.765 300 358.649 300H358.649Z" fill="#E6E6E6"/>
<path d="M192.539 298.475V81.798C192.539 79.0192 194.261 76.7664 196.386 76.7664H213.553C215.678 76.7664 217.4 79.0192 217.4 81.798V299.04L192.539 298.475Z" fill="#2962FF"/>
<path d="M274.474 119.671C276.642 119.671 278.399 117.913 278.399 115.745C278.399 113.577 276.642 111.82 274.474 111.82C272.306 111.82 270.548 113.577 270.548 115.745C270.548 117.913 272.306 119.671 274.474 119.671Z" fill="#A0616A"/>
<path d="M318.091 117.926C320.259 117.926 322.017 116.168 322.017 114C322.017 111.832 320.259 110.075 318.091 110.075C315.923 110.075 314.166 111.832 314.166 114C314.166 116.168 315.923 117.926 318.091 117.926Z" fill="#A0616A"/>
<path d="M327.63 162.595C328.013 162.244 331.136 143.981 331.118 143.57C331.069 141.32 324.204 138.75 322.83 139.644C321.534 140.488 319.277 150.167 317.824 151.929L316.288 149.24H304.075L303.335 150.615C301.732 149.649 300.291 148.759 299.777 148.465C299.6 148.345 299.407 148.25 299.205 148.183C297.935 147.9 296.744 147.34 295.715 146.543C294.712 145.771 290.056 137.686 288.809 137.9C287.4 138.135 282.648 142.244 282.703 146.187C283.301 146.174 291.083 161.735 291.192 162.315C291.79 164.767 293.763 200.515 294.4 202.182C297.334 201.898 295.017 201.392 297.857 202.182C300.915 203.032 304.142 202.112 307.296 201.772C308.609 201.642 309.928 201.583 311.247 201.597C316.045 201.619 322.893 201.885 327.538 203.076C327.565 200.031 324.891 193.445 323.901 190.571C323.771 189.712 323.775 188.838 323.914 187.98C324.04 186.929 326.594 163.757 327.63 162.595Z" fill="#E6E6E6"/>
</g>
<defs>
<clipPath id="clip0_610_3372">
<rect width="358.171" height="300" fill="white" transform="translate(0.914551)"/>
</clipPath>
</defs>
</svg>
