<svg width="48" height="48" viewBox="0 0 48 48" fill="none" xmlns="http://www.w3.org/2000/svg">
<rect width="48" height="48" rx="24" fill="white" fill-opacity="0.1"/>
<path d="M24.4294 31.3338C28.7322 31.3338 32.2203 27.8457 32.2203 23.543C32.2203 19.2402 28.7322 15.7521 24.4294 15.7521C20.1266 15.7521 16.6385 19.2402 16.6385 23.543C16.6385 27.8457 20.1266 31.3338 24.4294 31.3338Z" fill="#FFB6B6"/>
<path d="M19.957 32.4859L19.605 28.928L26.6337 27.6138L30.7841 37.719L23.566 46.0198L18.4232 35.9145L19.957 32.4859Z" fill="#FFB6B6"/>
<path d="M19.4921 30.709L21.0287 31.0561C21.0287 31.0561 19.8208 27.2257 20.2308 26.86C20.6408 26.4943 21.6455 27.0705 21.6455 27.0705L22.7013 28.2542L23.9874 26.9448C23.9874 26.9448 25.3836 25.2087 25.9303 24.7211C26.477 24.2335 25.5989 22.4236 25.5989 22.4236C25.5989 22.4236 33.7095 20.2367 30.6915 16.3028C30.6915 16.3028 28.9221 13.2185 28.3459 14.2232C27.7697 15.2279 27.0826 13.6322 27.0826 13.6322L24.9845 14.0312C24.9845 14.0312 20.8437 11.5896 16.9135 16.8128C12.9834 22.036 19.4921 30.709 19.4921 30.709H19.4921V30.709Z" fill="#2F2E41"/>
<path d="M39.0821 42.6722C34.8244 46.1243 29.557 48.0001 24 48.0001C18.9257 48.0001 14.0923 46.4355 10.0493 43.5357C10.0565 43.4599 10.0638 43.385 10.0701 43.3101C10.1774 42.1372 10.2731 40.9967 10.3362 40.0512C10.5807 36.3799 19.1459 33.933 19.1459 33.933C19.1459 33.933 19.1847 33.9718 19.2623 34.0395C19.735 34.4545 21.6541 35.9595 25.0195 36.3799C28.0204 36.7552 29.0084 34.9751 29.3071 34.1225C29.3973 33.8626 29.4244 33.6885 29.4244 33.6885L38.234 37.8488C38.8087 38.6698 39.0334 40.4383 39.0776 42.4259C39.0794 42.508 39.0812 42.5892 39.0821 42.6722Z" fill="white"/>
</svg>
