<svg width="200" height="200" viewBox="0 0 200 200" fill="none" xmlns="http://www.w3.org/2000/svg">
<rect width="200" height="200" rx="100" fill="#2962FF" fill-opacity="0.1"/>
<path d="M101.789 130.558C119.718 130.558 134.251 116.024 134.251 98.0958C134.251 80.1675 119.718 65.6338 101.789 65.6338C83.8611 65.6338 69.3274 80.1675 69.3274 98.0958C69.3274 116.024 83.8611 130.558 101.789 130.558Z" fill="#FFB6B6"/>
<path d="M83.1542 135.358L81.6876 120.533L110.974 115.057L128.267 157.162L98.1918 191.749L76.7632 149.644L83.1542 135.358Z" fill="#FFB6B6"/>
<path d="M81.217 127.954L87.6197 129.401C87.6197 129.401 82.5865 113.44 84.2949 111.917C86.0032 110.393 90.1896 112.794 90.1896 112.794L94.5889 117.726L99.9475 112.27C99.9475 112.27 105.765 105.036 108.043 103.005C110.321 100.973 106.662 93.432 106.662 93.432C106.662 93.432 140.456 84.3195 127.881 67.9284C127.881 67.9284 120.509 55.077 118.108 59.2634C115.707 63.4498 112.844 56.801 112.844 56.801L104.102 58.4634C104.102 58.4634 86.8485 48.2903 70.473 70.0534C54.0974 91.8166 81.217 127.954 81.217 127.954H81.217V127.954Z" fill="#2F2E41"/>
<path d="M162.842 177.8C145.101 192.184 123.154 200 99.9999 200C78.857 200 58.7179 193.481 41.8721 181.398C41.9022 181.082 41.9322 180.77 41.9586 180.458C42.4059 175.571 42.8044 170.819 43.0676 166.879C44.0864 151.582 79.7743 141.387 79.7743 141.387C79.7743 141.387 79.936 141.549 80.2593 141.831C82.2292 143.56 90.2255 149.831 104.248 151.582C116.752 153.146 120.868 145.729 122.113 142.176C122.489 141.094 122.601 140.368 122.601 140.368L159.308 157.703C161.703 161.124 162.639 168.492 162.823 176.774C162.831 177.116 162.838 177.455 162.842 177.8V177.8Z" fill="#2962FF"/>
</svg>
