<svg width="700" height="380" viewBox="0 0 700 380" fill="none" xmlns="http://www.w3.org/2000/svg">
<g clip-path="url(#clip0_111_2251)">
<path d="M158.469 330.428C158.335 345.708 157.213 360.963 155.111 376.099C155.038 376.63 154.958 377.162 154.884 377.693L11.501 376.894C11.08 376.366 10.6656 375.832 10.2641 375.291C8.9255 373.502 7.67088 371.662 6.51913 369.758C0.983322 360.588 -1.55103 349.852 0.988637 342.445L1.03411 342.33C1.58233 340.708 2.4462 339.21 3.57612 337.922C9.36651 331.417 21.0741 332.501 31.6985 337.752C22.1691 327.342 14.5812 314.206 14.0047 302.481C13.4394 291.044 19.4316 282.874 25.9309 275.931C26.1442 275.702 26.3574 275.478 26.5707 275.255C26.6741 275.14 26.7839 275.032 26.887 274.917C31.9579 269.626 37.8697 264.41 46.4265 265.041C55.8112 265.734 66.2159 273.579 73.5113 282.721C80.8068 291.856 85.6548 302.233 90.5687 312.361C95.489 322.482 100.812 332.862 108.708 341.514C98.0139 328.015 89.3918 312.656 86.2068 297.718C83.0218 282.78 85.8248 268.433 95.3556 261.398C98.2491 259.328 101.597 257.98 105.12 257.466C105.531 257.398 105.949 257.343 106.373 257.294C115.196 256.292 125.73 259.337 134.693 266.616C144.563 274.631 151.406 286.513 154.811 297.793C158.216 309.072 158.579 319.931 158.469 330.428Z" fill="#F2F2F2"/>
<path d="M64.6592 377.19L61.9175 377.175C61.0469 376.632 60.1722 376.095 59.2935 375.564C58.7494 375.222 58.1991 374.892 57.6485 374.555C48.5541 369.012 39.4028 363.695 30.1946 358.604C20.9948 353.509 11.7488 348.649 2.45652 344.023C2.21021 343.916 2.00926 343.726 1.88858 343.487C1.76791 343.247 1.73513 342.973 1.79596 342.712C1.80592 342.678 1.82135 342.645 1.84165 342.616C1.97126 342.373 2.26094 342.272 2.68371 342.48C3.82348 343.05 4.96982 343.621 6.10951 344.204C15.4272 348.909 24.7049 353.848 33.9426 359.023C43.1739 364.195 52.3526 369.595 61.4787 375.224C61.6706 375.34 61.8628 375.463 62.0547 375.58C62.9249 376.117 63.789 376.653 64.6592 377.19Z" fill="white"/>
<path d="M100.011 377.387L98.3155 377.378C97.9331 376.844 97.5573 376.31 97.1749 375.776C88.1907 363.202 79.2085 350.629 70.228 338.056C55.5215 317.472 40.8194 296.888 26.1218 276.304C26.0346 276.193 25.9699 276.066 25.931 275.931C25.8053 275.475 26.1408 275.208 26.5707 275.255C26.752 275.281 26.9256 275.345 27.0801 275.443C27.2346 275.541 27.3663 275.671 27.4665 275.824C35.7117 287.368 43.9549 298.907 52.196 310.442C66.8259 330.923 81.4538 351.402 96.0795 371.879C97.0098 373.179 97.9401 374.485 98.8704 375.785C99.2527 376.319 99.6351 376.853 100.011 377.387Z" fill="white"/>
<path d="M137.782 367.561C137.695 370.413 137.506 373.219 137.259 375.999C137.211 376.531 137.163 377.062 137.115 377.594L135.336 377.584C135.391 377.053 135.445 376.521 135.493 375.989C135.869 371.973 136.136 367.911 136.172 363.739C136.219 352.172 135.09 340.631 132.801 329.292C130.368 317.083 126.874 305.108 122.36 293.504C117.622 281.265 111.909 269.424 105.277 258.095C105.152 257.911 105.096 257.688 105.12 257.466C105.193 256.96 105.868 256.81 106.373 257.294C106.473 257.389 106.559 257.497 106.628 257.616C107.449 259.024 108.254 260.436 109.045 261.853C115.432 273.244 120.9 285.126 125.395 297.385C129.677 309.027 132.934 321.02 135.129 333.227C137.185 344.551 138.074 356.056 137.782 367.561V367.561Z" fill="white"/>
<path d="M634.481 294.333C634.481 287.47 608.598 281.906 576.671 281.906C544.744 281.906 518.861 287.47 518.861 294.333C518.861 298.731 529.502 302.593 545.543 304.801V372.884C545.543 374.414 546.152 375.881 547.236 376.963C548.32 378.045 549.79 378.653 551.324 378.653C552.857 378.653 554.327 378.045 555.411 376.963C556.496 375.881 557.105 374.414 557.105 372.884V306.027C563.216 306.5 569.802 306.759 576.671 306.759C583.54 306.759 590.125 306.5 596.237 306.027V372.884C596.237 374.414 596.846 375.881 597.93 376.963C599.015 378.045 600.485 378.653 602.018 378.653C603.551 378.653 605.022 378.045 606.106 376.963C607.19 375.881 607.799 374.414 607.799 372.884V304.801C623.84 302.593 634.481 298.731 634.481 294.333Z" fill="#CCCCCC"/>
<path d="M583.064 180.595C596.817 180.595 607.966 169.468 607.966 155.743C607.966 142.017 596.817 130.89 583.064 130.89C569.31 130.89 558.161 142.017 558.161 155.743C558.161 169.468 569.31 180.595 583.064 180.595Z" fill="#2F2E41"/>
<path d="M521.092 368.378H510.188L505.001 326.406H521.093L521.092 368.378Z" fill="#A0616A"/>
<path d="M502.399 365.269H523.428V378.482H489.159C489.159 376.747 489.502 375.029 490.167 373.426C490.832 371.822 491.808 370.366 493.037 369.139C494.267 367.912 495.726 366.939 497.332 366.274C498.939 365.61 500.661 365.269 502.399 365.269V365.269Z" fill="#2F2E41"/>
<path d="M504.071 362.305L493.667 359.047L501.309 317.45L516.663 322.258L504.071 362.305Z" fill="#A0616A"/>
<path d="M487.169 353.753L507.232 360.037L503.268 372.644L470.572 362.404C471.092 360.748 471.935 359.211 473.05 357.881C474.166 356.55 475.534 355.451 477.075 354.648C478.616 353.845 480.301 353.352 482.033 353.199C483.765 353.045 485.51 353.234 487.169 353.753Z" fill="#2F2E41"/>
<path d="M507.618 345.559C507.14 345.559 506.667 345.473 506.22 345.305L498.198 342.303C497.298 341.963 496.549 341.311 496.09 340.467C495.631 339.622 495.491 338.641 495.695 337.702C497.715 328.64 504.598 297.787 508.367 281.238C512.837 261.609 578.043 257.962 580.816 257.816L581.044 257.804L588.38 267.003C591.03 275.505 590.19 282.137 585.883 286.715C573.314 300.07 535.786 291.783 531.311 290.734L511.365 342.987C511.074 343.744 510.561 344.394 509.892 344.854C509.223 345.313 508.43 345.559 507.618 345.559V345.559Z" fill="#2F2E41"/>
<path d="M519.18 351.772C518.703 351.772 518.229 351.686 517.782 351.518L509.761 348.516C508.86 348.176 508.112 347.524 507.653 346.68C507.193 345.835 507.053 344.854 507.258 343.915C509.277 334.853 516.16 304 519.929 287.451C524.399 267.822 589.606 264.175 592.379 264.029L592.607 264.017L599.942 273.216C602.593 281.718 601.753 288.35 597.445 292.928C584.876 306.282 547.349 297.996 542.874 296.947L522.928 349.2C522.637 349.957 522.123 350.607 521.454 351.067C520.785 351.526 519.992 351.772 519.18 351.772V351.772Z" fill="#2F2E41"/>
<path d="M495.972 223.942C496.267 224.335 496.53 224.751 496.759 225.186L540.623 229.798L546.938 221.158L561.248 228.964L548.846 249.93L495.05 236.241C493.693 237.562 491.965 238.438 490.096 238.755C488.228 239.072 486.306 238.813 484.589 238.013C482.871 237.214 481.437 235.911 480.479 234.279C479.521 232.647 479.084 230.762 479.225 228.876C479.367 226.989 480.08 225.191 481.271 223.719C482.461 222.247 484.073 221.171 485.891 220.636C487.709 220.1 489.647 220.13 491.448 220.72C493.249 221.311 494.827 222.434 495.972 223.942L495.972 223.942Z" fill="#A0616A"/>
<path d="M597.907 276.737C597.272 276.735 596.648 276.583 596.084 276.292C587.313 271.841 570.233 264.133 554.395 262.52C553.853 262.467 553.328 262.301 552.854 262.034C552.379 261.766 551.967 261.403 551.642 260.967C551.31 260.526 551.073 260.022 550.946 259.486C550.818 258.95 550.803 258.393 550.9 257.851C552.329 249.955 555.608 229.85 555.185 213.737C555.061 208.782 556.629 203.933 559.633 199.986C562.636 196.039 566.896 193.23 571.712 192.019V192.019C574.611 191.256 577.556 190.677 580.528 190.285C583.945 189.853 587.415 190.226 590.661 191.373C593.908 192.52 596.839 194.411 599.222 196.892C601.605 199.374 603.372 202.378 604.382 205.663C605.392 208.949 605.617 212.425 605.039 215.813C602.214 232.512 599.367 255.835 601.842 272.115C601.955 272.845 601.864 273.592 601.579 274.273C601.294 274.954 600.825 275.543 600.224 275.975C599.552 276.467 598.741 276.734 597.907 276.737Z" fill="#2962FF"/>
<path d="M555.997 234.265C555.45 234.264 554.909 234.151 554.408 233.933L542.981 228.997C542.008 228.575 541.242 227.785 540.852 226.801C540.461 225.816 540.478 224.718 540.898 223.745L549.731 203.382C550.264 202.151 551.035 201.037 551.999 200.104C552.964 199.17 554.103 198.435 555.352 197.941C556.602 197.448 557.936 197.204 559.279 197.225C560.623 197.246 561.949 197.531 563.182 198.064C564.415 198.596 565.531 199.366 566.466 200.329C567.401 201.292 568.136 202.43 568.63 203.677C569.124 204.924 569.368 206.256 569.346 207.596C569.324 208.937 569.038 210.26 568.503 211.491L559.67 231.854C559.36 232.569 558.846 233.178 558.194 233.606C557.541 234.035 556.778 234.263 555.997 234.265V234.265Z" fill="#2962FF"/>
<path d="M582.154 183.357C594.218 183.357 603.998 173.597 603.998 161.557C603.998 149.518 594.218 139.757 582.154 139.757C570.089 139.757 560.31 149.518 560.31 161.557C560.31 173.597 570.089 183.357 582.154 183.357Z" fill="#A0616A"/>
<path d="M559.916 150.847C570.263 157.15 581.928 160.986 594.002 162.056L590.409 157.759C593.026 158.725 595.778 159.27 598.566 159.376C601.35 159.332 604.267 158.263 605.847 155.975C606.551 154.837 606.97 153.547 607.067 152.213C607.164 150.879 606.936 149.542 606.403 148.315C605.308 145.868 603.603 143.741 601.452 142.137C597.639 139.127 593.138 137.105 588.352 136.251C583.566 135.397 578.642 135.739 574.02 137.244C570.849 138.19 568.01 140.008 565.826 142.49C563.756 145.039 559.769 147.311 560.829 150.417L559.916 150.847Z" fill="#2F2E41"/>
<path d="M585.826 133.254C578.936 126.282 570.599 120.901 561.401 117.491C555.497 115.308 549.07 113.96 542.898 115.199C536.725 116.439 530.887 120.701 529.165 126.745C527.757 131.687 529.211 137.009 531.396 141.661C533.582 146.314 536.499 150.628 538.266 155.454C540.07 160.379 540.612 165.674 539.844 170.861C539.076 176.047 537.023 180.961 533.87 185.154C530.716 189.348 526.564 192.689 521.789 194.875C517.014 197.06 511.767 198.021 506.525 197.67C512.59 198.481 518.181 201.326 524.109 202.84C530.037 204.354 537.034 204.251 541.44 200.013C546.101 195.528 546.194 188.237 545.969 181.78C545.634 172.18 545.299 162.581 544.964 152.982C544.793 148.086 544.647 143.034 546.416 138.465C548.185 133.896 552.389 129.895 557.297 129.936C561.017 129.968 564.31 132.217 567.293 134.434C570.276 136.652 573.434 139.019 577.139 139.349C580.844 139.678 585.075 136.942 584.797 133.24" fill="#2F2E41"/>
<path d="M545.428 271.137C543.981 271.135 542.552 270.813 541.244 270.194C539.936 269.575 538.783 268.674 537.866 267.556C536.949 266.438 536.292 265.132 535.942 263.73C535.593 262.328 535.559 260.866 535.843 259.45C536.128 258.034 536.723 256.698 537.587 255.539C538.451 254.38 539.562 253.427 540.84 252.748C542.118 252.069 543.53 251.682 544.976 251.613C546.422 251.545 547.865 251.797 549.201 252.353H549.201C549.603 252.522 549.993 252.719 550.368 252.942L590.159 235.114L591.277 224.343L608.429 223.885L608.316 241.816C608.295 243.893 607.603 245.908 606.344 247.562C605.084 249.215 603.324 250.42 601.324 250.996L554.79 264.215C554.7 264.522 554.593 264.824 554.471 265.119C553.724 266.899 552.468 268.419 550.86 269.49C549.251 270.56 547.362 271.133 545.428 271.137V271.137Z" fill="#A0616A"/>
<path d="M606.977 232.675C606.489 232.921 605.956 233.065 605.41 233.098L592.982 233.86C591.923 233.924 590.882 233.566 590.087 232.865C589.292 232.163 588.808 231.176 588.742 230.119L587.378 207.972C587.293 206.632 587.474 205.29 587.909 204.02C588.345 202.751 589.027 201.579 589.917 200.573C590.807 199.567 591.886 198.746 593.094 198.157C594.302 197.568 595.615 197.222 596.957 197.14C598.299 197.057 599.644 197.24 600.915 197.677C602.187 198.114 603.359 198.797 604.366 199.686C605.372 200.576 606.193 201.655 606.782 202.861C607.37 204.068 607.714 205.378 607.794 206.718L609.159 228.865C609.206 229.644 609.025 230.418 608.637 231.095C608.25 231.772 607.673 232.321 606.977 232.675L606.977 232.675Z" fill="#2962FF"/>
<path d="M579.966 273.376H509.705C508.88 273.376 508.088 273.049 507.504 272.467C506.921 271.884 506.593 271.094 506.593 270.27C506.593 269.446 506.921 268.656 507.504 268.073C508.088 267.491 508.88 267.163 509.705 267.163H579.966C580.792 267.163 581.584 267.491 582.167 268.073C582.751 268.656 583.079 269.446 583.079 270.27V270.27C583.079 271.094 582.751 271.884 582.167 272.467C581.584 273.049 580.792 273.376 579.966 273.376V273.376Z" fill="#3F3D56"/>
<path d="M479.021 267.607V224.115C479.023 222.586 479.633 221.119 480.717 220.038C481.8 218.956 483.27 218.348 484.802 218.346H563.957C565.49 218.348 566.959 218.956 568.043 220.038C569.127 221.119 569.736 222.586 569.738 224.115V267.607C569.736 269.137 569.127 270.603 568.043 271.685C566.959 272.766 565.49 273.375 563.957 273.376H484.802C483.27 273.375 481.8 272.766 480.717 271.685C479.633 270.603 479.023 269.137 479.021 267.607V267.607Z" fill="#3F3D56"/>
<path d="M524.38 251.187C527.327 251.187 529.716 248.802 529.716 245.861C529.716 242.92 527.327 240.536 524.38 240.536C521.433 240.536 519.044 242.92 519.044 245.861C519.044 248.802 521.433 251.187 524.38 251.187Z" fill="white"/>
<path d="M246.163 194.681C245.442 193.592 244.491 192.674 243.376 191.992C242.262 191.31 241.011 190.879 239.712 190.732C238.413 190.584 237.097 190.723 235.858 191.138C234.618 191.552 233.485 192.233 232.537 193.133L204.295 178.585L206.051 194.974L232.601 206.276C234.22 207.764 236.33 208.608 238.531 208.647C240.732 208.687 242.871 207.919 244.542 206.49C246.214 205.061 247.302 203.069 247.601 200.892C247.9 198.716 247.388 196.506 246.163 194.681H246.163Z" fill="#FFB8B8"/>
<path d="M221.064 201.277C220.553 201.511 219.998 201.635 219.436 201.641C218.874 201.647 218.317 201.535 217.801 201.312L190.975 189.699C181.803 185.729 174.388 178.57 170.109 169.553L156.006 139.844C154.965 138.51 154.198 136.984 153.749 135.353C153.299 133.723 153.176 132.02 153.387 130.342C153.598 128.664 154.138 127.044 154.976 125.574C155.814 124.105 156.935 122.815 158.273 121.778C159.612 120.74 161.142 119.977 162.776 119.53C164.41 119.084 166.117 118.963 167.798 119.176C169.479 119.388 171.102 119.929 172.573 120.767C174.044 121.606 175.336 122.725 176.373 124.062L201.163 169.963L224.053 187.219C224.708 187.715 225.194 188.4 225.447 189.181C225.699 189.962 225.705 190.802 225.464 191.587L223.217 198.829C222.976 199.605 222.503 200.29 221.862 200.792C221.616 200.984 221.348 201.147 221.064 201.277V201.277Z" fill="#CCCCCC"/>
<path d="M155.386 104.905C167.45 104.905 177.23 95.1453 177.23 83.1054C177.23 71.0656 167.45 61.3054 155.386 61.3054C143.321 61.3054 133.542 71.0656 133.542 83.1054C133.542 95.1453 143.321 104.905 155.386 104.905Z" fill="#FFB8B8"/>
<path d="M164.234 369.082H175.137L180.324 327.11H164.231L164.234 369.082Z" fill="#FFB8B8"/>
<path d="M196.166 379.185L161.897 379.187L161.897 365.973L182.925 365.972C186.436 365.972 189.804 367.364 192.287 369.842C194.77 372.32 196.165 375.681 196.166 379.185V379.185L196.166 379.185Z" fill="#2F2E41"/>
<path d="M128.658 369.082H139.561L144.749 327.11H128.656L128.658 369.082Z" fill="#FFB8B8"/>
<path d="M160.59 379.185L126.322 379.187L126.321 365.973L147.35 365.972C150.861 365.972 154.229 367.364 156.712 369.842C159.195 372.32 160.59 375.681 160.59 379.185V379.185L160.59 379.185Z" fill="#2F2E41"/>
<path d="M124.851 357.068C124.475 356.64 124.195 356.137 124.03 355.592C123.865 355.047 123.819 354.474 123.894 353.91L142.985 211.021L190.414 219.06L195.476 216.029L182.386 351.602C182.277 352.518 181.856 353.367 181.192 354.008C180.528 354.649 179.663 355.042 178.743 355.121L164.382 356.315C163.811 356.363 163.236 356.287 162.697 356.094C162.158 355.901 161.666 355.595 161.256 355.196C160.846 354.797 160.526 354.314 160.319 353.781C160.111 353.248 160.021 352.677 160.054 352.106L163.772 287.541C163.778 287.431 163.744 287.323 163.675 287.237C163.606 287.152 163.508 287.094 163.4 287.077C163.291 287.059 163.18 287.082 163.087 287.142C162.994 287.201 162.927 287.293 162.899 287.399L144.504 355.477C144.274 356.324 143.771 357.073 143.072 357.607C142.374 358.141 141.519 358.431 140.639 358.432H127.862C127.291 358.432 126.728 358.31 126.208 358.075C125.689 357.84 125.226 357.497 124.851 357.068Z" fill="#2F2E41"/>
<path d="M157.697 221.023C157.153 220.531 156.453 220.245 155.719 220.215C154.986 220.184 154.264 220.411 153.681 220.856L144.198 228.217C143.682 228.618 143.076 228.888 142.431 229.001C141.786 229.114 141.124 229.067 140.502 228.865C139.879 228.663 139.316 228.311 138.862 227.841C138.407 227.371 138.075 226.797 137.895 226.169C133.244 209.913 122.706 168.993 125.302 140.192C126.774 123.867 140.899 111.46 156.79 112.501C167.655 113.224 174.802 119.479 178.034 131.091C185.97 159.602 194.691 211.9 196.358 222.095C196.49 222.886 196.379 223.699 196.04 224.425C195.701 225.152 195.149 225.76 194.458 226.168C189.972 228.857 184.845 230.296 179.613 230.338C173.281 230.338 165.689 228.138 157.697 221.023Z" fill="#CCCCCC"/>
<path d="M161.276 231.165C161.382 229.865 161.201 228.557 160.746 227.334C160.291 226.11 159.572 225.002 158.641 224.085C157.711 223.169 156.59 222.468 155.358 222.031C154.126 221.594 152.813 221.431 151.511 221.556L138.285 192.715L129.532 206.692L143.434 231.937C143.788 234.105 144.926 236.068 146.634 237.455C148.341 238.842 150.499 239.555 152.698 239.46C154.897 239.365 156.985 238.468 158.566 236.939C160.147 235.41 161.111 233.356 161.276 231.165H161.276Z" fill="#FFB8B8"/>
<path d="M137.447 220.898C136.901 220.768 136.387 220.524 135.941 220.182C135.495 219.841 135.126 219.409 134.858 218.916L120.931 193.257C116.168 184.484 114.761 174.284 116.97 164.553L124.243 132.491C124.25 130.8 124.59 129.127 125.245 127.568C125.9 126.009 126.856 124.593 128.06 123.403C129.263 122.213 130.689 121.271 132.258 120.631C133.826 119.991 135.505 119.666 137.199 119.674C138.893 119.683 140.569 120.024 142.131 120.679C143.693 121.334 145.11 122.29 146.302 123.492C147.493 124.694 148.436 126.118 149.075 127.684C149.715 129.25 150.039 130.926 150.029 132.617L141.152 184.001L148.492 211.677C148.701 212.471 148.66 213.31 148.376 214.08C148.091 214.85 147.577 215.514 146.902 215.983L140.655 220.298C139.985 220.76 139.19 221.008 138.375 221.008C138.063 221.008 137.751 220.971 137.447 220.898V220.898Z" fill="#CCCCCC"/>
<path opacity="0.2" d="M148.257 154.287L140.252 188.015L151.814 216.418L143.81 188.903L148.257 154.287Z" fill="black"/>
<path d="M142.92 101.032C140.977 101.068 139.046 100.719 137.239 100.006C136.443 99.7003 135.618 99.4489 134.824 99.1428C127.814 96.4401 123.197 88.9897 123.031 81.4919C122.866 73.9941 126.757 66.7167 132.534 61.9208C138.311 57.1249 145.795 54.6626 153.288 54.0932C161.359 53.4799 170.448 55.5226 174.958 62.2308C176.158 64.0164 176.998 66.1828 176.286 68.3388C176.073 68.9894 175.693 69.5727 175.183 70.0305C173.169 71.8188 171.161 70.4742 169.107 70.3553C166.285 70.192 163.75 72.4718 162.839 75.1426C161.928 77.8133 162.329 80.7535 163.065 83.4776C163.625 85.1168 163.979 86.8193 164.117 88.5458C164.176 89.4115 164.013 90.278 163.643 91.0632C163.272 91.8483 162.707 92.5261 162.001 93.0323C160.238 94.0961 157.922 93.4804 156.157 92.4183C154.392 91.3562 152.868 89.8794 150.962 89.0978C149.056 88.3162 146.495 88.4896 145.385 90.2226C145.033 90.8532 144.794 91.5408 144.68 92.2539C143.686 96.7761 143.915 96.5097 142.92 101.032L142.92 101.032Z" fill="#2F2E41"/>
<path d="M332.314 175.013C331.952 174.555 331.699 174.021 331.575 173.451C331.45 172.881 331.458 172.291 331.596 171.724C334.913 157.858 334.913 143.407 331.596 129.541C331.457 128.975 331.45 128.384 331.574 127.814C331.699 127.244 331.952 126.71 332.314 126.253C332.669 125.802 333.122 125.437 333.639 125.187C334.157 124.937 334.724 124.808 335.299 124.81H370.76C371.666 124.812 372.542 125.134 373.232 125.72C373.923 126.306 374.382 127.118 374.528 128.01C376.842 143.004 376.842 158.262 374.528 173.255C374.382 174.148 373.923 174.959 373.232 175.545C372.542 176.131 371.666 176.454 370.76 176.456H335.299C334.724 176.457 334.157 176.328 333.639 176.078C333.122 175.828 332.669 175.464 332.314 175.013V175.013Z" fill="#E6E6E6"/>
<path d="M277.457 50.2023C277.094 49.7449 276.841 49.2109 276.717 48.6411C276.593 48.0713 276.6 47.4807 276.739 46.9142C280.056 33.0482 280.056 18.5976 276.739 4.73156C276.6 4.1651 276.593 3.57448 276.717 3.00468C276.841 2.43488 277.094 1.90091 277.457 1.44344C277.811 0.992137 278.264 0.627545 278.782 0.377408C279.299 0.127272 279.866 -0.00180027 280.441 1.89672e-05H315.903C316.809 0.00184158 317.685 0.32449 318.375 0.910547C319.065 1.4966 319.524 2.30803 319.671 3.20038C321.984 18.1937 321.984 33.4521 319.671 48.4454C319.524 49.3377 319.065 50.1492 318.375 50.7352C317.685 51.3213 316.809 51.6439 315.903 51.6458H280.441C279.866 51.6476 279.299 51.5185 278.782 51.2684C278.264 51.0182 277.811 50.6536 277.457 50.2023Z" fill="#E6E6E6"/>
<path d="M364.715 91.9525C362.402 76.9591 362.402 61.7008 364.715 46.7075C364.862 45.8151 365.321 45.0036 366.011 44.4175C366.701 43.8314 367.577 43.5088 368.483 43.5071H403.945C404.52 43.5053 405.087 43.6343 405.605 43.8845C406.122 44.1346 406.575 44.4992 406.929 44.9505C407.292 45.408 407.545 45.942 407.669 46.5117C407.794 47.0815 407.786 47.6722 407.647 48.2387C404.33 62.1047 404.33 76.5552 407.647 90.4213C407.786 90.9877 407.794 91.5784 407.669 92.1482C407.545 92.718 407.292 93.252 406.929 93.7094C406.575 94.1607 406.122 94.5253 405.605 94.7754C405.087 95.0256 404.52 95.1547 403.945 95.1528H368.483C367.577 95.1511 366.701 94.8285 366.011 94.2424C365.321 93.6563 364.862 92.8448 364.715 91.9525V91.9525Z" fill="#2962FF"/>
<path d="M216.258 90.3726C213.945 75.3793 213.945 60.121 216.258 45.1276C216.404 44.2353 216.864 43.4238 217.554 42.8378C218.244 42.2517 219.12 41.9291 220.026 41.9273H255.488C256.062 41.9254 256.63 42.0545 257.147 42.3046C257.664 42.5548 258.117 42.9194 258.472 43.3707C258.834 43.8281 259.087 44.3621 259.212 44.9319C259.336 45.5017 259.329 46.0923 259.19 46.6588C255.873 60.5248 255.873 74.9754 259.19 88.8415C259.329 89.4079 259.336 89.9985 259.212 90.5683C259.087 91.1381 258.834 91.6721 258.472 92.1296C258.117 92.5809 257.664 92.9455 257.147 93.1956C256.63 93.4457 256.062 93.5748 255.488 93.573H220.026C219.12 93.5712 218.244 93.2485 217.554 92.6625C216.864 92.0764 216.404 91.265 216.258 90.3726Z" fill="#FF6584"/>
<path d="M225.028 194.816C224.66 194.351 224.403 193.809 224.276 193.229C224.15 192.65 224.157 192.05 224.298 191.474C227.67 177.38 227.67 162.692 224.298 148.598C224.157 148.022 224.15 147.422 224.276 146.843C224.403 146.263 224.66 145.721 225.028 145.255C225.389 144.797 225.849 144.426 226.375 144.172C226.901 143.918 227.477 143.787 228.061 143.789H264.105C265.027 143.791 265.917 144.119 266.618 144.714C267.32 145.31 267.787 146.135 267.936 147.042C270.287 162.281 270.287 177.79 267.936 193.03C267.787 193.937 267.32 194.762 266.618 195.358C265.917 195.953 265.027 196.281 264.105 196.283H228.061C227.477 196.285 226.901 196.154 226.375 195.9C225.849 195.645 225.389 195.275 225.028 194.816V194.816Z" fill="#2962FF"/>
<path d="M11.19 380H698.941C699.222 380 699.491 379.889 699.69 379.69C699.888 379.492 700 379.223 700 378.943C700 378.663 699.888 378.394 699.69 378.196C699.491 377.998 699.222 377.886 698.941 377.886H11.19C11.0506 377.886 10.9126 377.913 10.7838 377.966C10.6549 378.019 10.5379 378.097 10.4392 378.195C10.3405 378.293 10.2622 378.41 10.2088 378.538C10.1554 378.666 10.1279 378.804 10.1279 378.943C10.1279 379.082 10.1554 379.22 10.2088 379.348C10.2622 379.477 10.3405 379.593 10.4392 379.692C10.5379 379.79 10.6549 379.867 10.7838 379.92C10.9126 379.973 11.0506 380 11.19 380V380Z" fill="#3F3D56"/>
<path d="M257.15 163.158H238.162C237.455 163.157 236.777 162.876 236.276 162.377C235.776 161.878 235.495 161.201 235.494 160.495V159.364C235.495 158.658 235.776 157.981 236.276 157.482C236.777 156.983 237.455 156.702 238.162 156.701H257.15C257.857 156.702 258.536 156.983 259.036 157.482C259.536 157.981 259.817 158.658 259.818 159.364V160.495C259.817 161.201 259.536 161.878 259.036 162.377C258.536 162.876 257.857 163.157 257.15 163.158V163.158Z" fill="white"/>
<path d="M257.15 174.294H238.162C237.455 174.294 236.777 174.013 236.276 173.514C235.776 173.014 235.495 172.338 235.494 171.632V170.501C235.495 169.795 235.776 169.118 236.276 168.619C236.777 168.12 237.455 167.839 238.162 167.838H257.15C257.857 167.839 258.536 168.12 259.036 168.619C259.536 169.118 259.817 169.795 259.818 170.501V171.632C259.817 172.338 259.536 173.014 259.036 173.514C258.536 174.013 257.857 174.294 257.15 174.294V174.294Z" fill="white"/>
<path d="M244.575 63.8299H225.966C225.259 63.8291 224.58 63.5483 224.08 63.0491C223.58 62.5499 223.299 61.8731 223.298 61.1671V60.127C223.299 59.421 223.58 58.7442 224.08 58.245C224.58 57.7458 225.259 57.465 225.966 57.4642H244.575C245.282 57.465 245.961 57.7458 246.461 58.245C246.961 58.7442 247.242 59.421 247.243 60.127V61.1671C247.242 61.8731 246.961 62.5499 246.461 63.0491C245.961 63.5483 245.282 63.8291 244.575 63.8299V63.8299Z" fill="white"/>
<path d="M363.466 142.052H344.858C344.15 142.051 343.472 141.771 342.972 141.271C342.472 140.772 342.19 140.095 342.189 139.389V138.349C342.19 137.643 342.472 136.966 342.972 136.467C343.472 135.968 344.15 135.687 344.858 135.686H363.466C364.174 135.687 364.852 135.968 365.352 136.467C365.852 136.966 366.134 137.643 366.134 138.349V139.389C366.134 140.095 365.852 140.772 365.352 141.271C364.852 141.771 364.174 142.051 363.466 142.052Z" fill="white"/>
<path d="M363.466 155.2H344.858C344.15 155.2 343.472 154.919 342.972 154.42C342.472 153.921 342.19 153.244 342.189 152.538V151.497C342.19 150.791 342.472 150.114 342.972 149.615C343.472 149.116 344.15 148.835 344.858 148.834H363.466C364.174 148.835 364.852 149.116 365.352 149.615C365.852 150.114 366.134 150.791 366.134 151.497V152.538C366.134 153.244 365.852 153.921 365.352 154.42C364.852 154.919 364.174 155.2 363.466 155.2Z" fill="white"/>
<path d="M363.466 168.349H344.858C344.15 168.348 343.472 168.067 342.972 167.568C342.472 167.069 342.19 166.392 342.189 165.686V164.645C342.19 163.939 342.472 163.263 342.972 162.763C343.472 162.264 344.15 161.983 344.858 161.983H363.466C364.174 161.983 364.852 162.264 365.352 162.763C365.852 163.263 366.134 163.939 366.134 164.645V165.686C366.134 166.392 365.852 167.069 365.352 167.568C364.852 168.067 364.174 168.348 363.466 168.349V168.349Z" fill="white"/>
<path d="M244.575 74.7869H225.966C225.259 74.7862 224.58 74.5054 224.08 74.0062C223.58 73.507 223.299 72.8301 223.298 72.1242V71.0836C223.299 70.3776 223.58 69.7008 224.08 69.2016C224.58 68.7024 225.259 68.4216 225.966 68.4208H244.575C245.282 68.4216 245.961 68.7024 246.461 69.2016C246.961 69.7008 247.242 70.3776 247.243 71.0836V72.1242C247.242 72.8301 246.961 73.507 246.461 74.0062C245.961 74.5054 245.282 74.7862 244.575 74.7869Z" fill="white"/>
<path d="M308.768 19.4337H290.159C289.451 19.4329 288.773 19.1522 288.273 18.653C287.773 18.1538 287.491 17.4769 287.491 16.771V15.7304C287.491 15.0244 287.773 14.3476 288.273 13.8484C288.773 13.3492 289.451 13.0684 290.159 13.0676H308.768C309.475 13.0684 310.153 13.3492 310.653 13.8484C311.154 14.3476 311.435 15.0244 311.436 15.7304V16.771C311.435 17.4769 311.154 18.1538 310.653 18.653C310.153 19.1522 309.475 19.4329 308.768 19.4337V19.4337Z" fill="white"/>
<path d="M393.679 66.5057H375.07C374.363 66.5049 373.685 66.2241 373.185 65.7249C372.684 65.2257 372.403 64.5489 372.402 63.8429V62.8023C372.403 62.0964 372.684 61.4195 373.185 60.9203C373.685 60.4211 374.363 60.1404 375.07 60.1396H393.679C394.387 60.1404 395.065 60.4211 395.565 60.9203C396.065 61.4195 396.347 62.0964 396.348 62.8023V63.8429C396.347 64.5489 396.065 65.2257 395.565 65.7249C395.065 66.2241 394.387 66.5049 393.679 66.5057Z" fill="white"/>
</g>
<defs>
<clipPath id="clip0_111_2251">
<rect width="700" height="380" fill="white"/>
</clipPath>
</defs>
</svg>
