<svg width="165" height="120" viewBox="0 0 165 120" fill="none" xmlns="http://www.w3.org/2000/svg">
<g clip-path="url(#clip0_995_4787)">
<path opacity="0.1" d="M162.151 95.8797C158.065 104.31 149.765 109.948 141.167 113.666C134.283 116.623 127.005 118.565 119.563 119.431C118.138 119.6 116.708 119.731 115.273 119.825C111.607 120.064 107.93 120.059 104.264 119.812C102.06 119.666 99.8626 119.431 97.6733 119.109C90.066 118 82.6495 115.84 75.6357 112.692C73.6114 111.78 71.6282 110.785 69.686 109.706C66.442 107.908 63.3337 105.876 60.3861 103.624C59.7339 103.126 59.0899 102.617 58.4541 102.097L58.1926 101.883C57.6927 101.471 57.1974 101.05 56.6945 100.64C55.8584 99.9401 54.9709 99.3035 54.0395 98.7361C53.9765 98.6992 53.9134 98.6623 53.8488 98.6269C53.6765 98.5269 53.5012 98.4331 53.3227 98.3439C52.9552 98.1586 52.5783 97.9922 52.1937 97.8455C50.4171 97.1687 48.5144 96.9226 46.5855 96.9641C46.2656 96.9641 45.9456 96.9857 45.6241 97.0072C45.175 97.038 44.7243 97.0841 44.2751 97.1425L44.109 97.1656C42.6778 97.3682 41.2627 97.6719 39.8744 98.0747C37.7302 98.69 35.6244 99.4591 33.5048 100.153C32.6049 100.45 31.7036 100.733 30.7945 100.986L30.5945 101.042C29.3016 101.406 27.9855 101.681 26.6552 101.866C23.6323 102.253 20.562 102.006 17.6399 101.14L17.5384 101.111L17.3507 101.056L17.0939 100.976C16.6632 100.84 16.2361 100.692 15.8126 100.531L15.5557 100.433C15.1455 100.275 14.744 100.105 14.3513 99.9236L14.0944 99.8067C13.6842 99.6159 13.2828 99.4144 12.89 99.2022C12.7485 99.1283 12.6085 99.0484 12.4701 98.973C12.0517 98.7392 11.6415 98.4941 11.2395 98.2377C10.8129 97.966 10.3956 97.6825 9.98745 97.3871C9.79877 97.2518 9.61213 97.1128 9.42755 96.9703C8.36351 96.1564 7.36709 95.2577 6.44809 94.2831C6.39733 94.2323 6.34964 94.18 6.30196 94.1292C6.05739 93.8647 5.81743 93.5955 5.58516 93.3202C5.49902 93.2186 5.41289 93.1171 5.32829 93.0125C5.05244 92.6762 4.78633 92.3321 4.52997 91.9804C4.49151 91.9296 4.4546 91.8773 4.41768 91.8266C3.3667 90.3731 2.49539 88.7978 1.82276 87.1351C1.80123 87.0844 1.78123 87.0321 1.76277 86.9813C1.55768 86.4532 1.37054 85.9164 1.20133 85.3708C1.13212 85.1432 1.06597 84.9094 1.00752 84.6817C0.987527 84.614 0.969068 84.5448 0.952148 84.4771C0.10307 81.1347 0.00616455 77.6599 0.00616455 74.2051C0.00616455 73.8021 0.00616455 73.3996 0.00616455 72.9977C0.0307755 67.4094 0.116914 61.7258 0.941381 56.2145C0.941381 56.1761 0.952148 56.1376 0.958301 56.1007C1.23425 54.2453 1.60959 52.4061 2.08272 50.5909C2.57789 48.6863 3.21072 46.8202 3.97622 45.0073C5.8728 40.5466 8.63077 36.4873 11.6933 32.7249C15.3849 28.198 19.615 24.0203 24.3264 20.5732C25.0032 20.0779 25.6892 19.597 26.3845 19.1304L26.706 18.9197C26.8183 18.8443 26.9306 18.7658 27.0429 18.6997C27.2736 18.5459 27.5043 18.4013 27.7381 18.2552L27.9996 18.0921L28.498 17.7845L28.6518 17.6968L28.9179 17.543L29.1809 17.3892C29.4886 17.2077 29.7998 17.0303 30.1146 16.857C31.459 16.1073 32.8351 15.4223 34.2431 14.8019C34.6584 14.6184 35.0763 14.4415 35.4967 14.2713C37.4055 13.4938 39.3664 12.8509 41.3649 12.347C42.1032 12.1604 42.8462 11.9963 43.5937 11.8548C44.4756 11.6846 45.3621 11.5436 46.2532 11.4318C47.6713 11.2534 49.0975 11.1471 50.5263 11.1134C60.5738 10.8688 70.7227 14.139 78.5967 20.4071C81.7346 22.9051 84.5541 25.863 88.0781 27.7781C91.1544 29.4455 94.7553 30.1361 98.0501 28.824C100.773 27.7396 102.545 27.2013 105.603 27.3658C111.93 27.7223 118.168 29.0268 124.109 31.2359C124.348 31.3236 124.588 31.4143 124.827 31.5051C140.318 37.4348 153.637 49.2096 160.556 64.3407C160.738 64.7407 160.916 65.1437 161.09 65.5498C165.217 75.1865 166.705 86.4845 162.151 95.8797Z" fill="#2962FF"/>
<path opacity="0.1" d="M30.7898 42.6678V100.99L30.5899 101.045C29.297 101.409 27.9808 101.684 26.6506 101.87C23.6277 102.256 20.5574 102.009 17.6353 101.143L17.5338 101.114L17.3461 101.059L17.0892 100.979C16.6585 100.844 16.2314 100.695 15.8079 100.534L15.551 100.436C15.1409 100.278 14.7394 100.108 14.3466 99.9268L14.0898 99.8099C13.6796 99.6191 13.2781 99.4176 12.8854 99.2054C12.7439 99.1315 12.6039 99.0515 12.4654 98.9762C12.0471 98.7424 11.6369 98.4973 11.2349 98.2409C10.8083 97.9692 10.3909 97.6856 9.98281 97.3903C9.79413 97.2549 9.60749 97.116 9.42291 96.9735C8.35886 96.1596 7.36246 95.2609 6.44345 94.2863C6.39269 94.2355 6.345 94.1832 6.29732 94.1324C6.05275 93.8679 5.81279 93.5987 5.58052 93.3233C5.49439 93.2218 5.40825 93.1203 5.32365 93.0157C5.0478 92.6794 4.78169 92.3353 4.52533 91.9836C4.48687 91.9328 4.44996 91.8805 4.41304 91.8298C3.36206 90.3763 2.49076 88.801 1.81812 87.1383C1.79659 87.0875 1.77659 87.0352 1.75813 86.9845C1.55304 86.4564 1.3659 85.9195 1.1967 85.374C1.12748 85.1464 1.06134 84.9125 1.00288 84.6849C0.982888 84.6172 0.96443 84.548 0.94751 84.4803C0.0984312 81.1378 0.00152588 77.6631 0.00152588 74.2083C0.00152588 73.8053 0.00152588 73.4028 0.00152588 73.0008C0.0261368 67.4126 0.112275 61.729 0.936742 56.2177C0.936742 56.1792 0.94751 56.1408 0.953662 56.1039C1.22961 54.2485 1.60495 52.4092 2.07808 50.5941H17.786V42.6678H20.9178V36.3013H27.6581V42.6678H30.7898Z" fill="#2962FF"/>
<path opacity="0.1" d="M162.151 95.8796C158.065 104.31 149.765 109.948 141.167 113.666C134.283 116.623 127.005 118.565 119.563 119.431C118.138 119.6 116.708 119.731 115.273 119.825C111.607 120.063 107.93 120.059 104.264 119.812C102.06 119.666 99.8626 119.431 97.6733 119.109C90.066 118 82.6495 115.84 75.6357 112.692C73.6114 111.78 71.6282 110.785 69.686 109.706C66.442 107.908 63.3337 105.876 60.3861 103.624C59.7339 103.126 59.0899 102.617 58.4541 102.097L58.1926 101.883C57.6927 101.471 57.1974 101.049 56.6945 100.64C55.8584 99.94 54.9709 99.3034 54.0395 98.736C53.9765 98.6991 53.9134 98.6622 53.8488 98.6268C53.6765 98.5268 53.5012 98.433 53.3228 98.3438C52.9552 98.1585 52.5783 97.9921 52.1937 97.8454V73.9866H80.7409V79.298H93.2694V40.4465H108.016V55.9822H115.31V46.7838H121.337V36.9579H124.105V31.2358C124.345 31.3235 124.585 31.4143 124.824 31.505V36.9579H127.519V46.79H133.541V55.9883H142.421V91.0328H156.535V65.5466H161.083C165.217 75.1864 166.705 86.4844 162.151 95.8796Z" fill="#2962FF"/>
<path opacity="0.1" d="M104.267 46.2932H97.6763V52.8843H104.267V46.2932Z" fill="#2962FF"/>
<path opacity="0.1" d="M104.267 59.9553H97.6763V66.5464H104.267V59.9553Z" fill="#2962FF"/>
<path opacity="0.1" d="M104.267 73.6191H97.6763V80.2103H104.267V73.6191Z" fill="#2962FF"/>
<path opacity="0.1" d="M104.267 87.2827H97.6763V93.8738H104.267V87.2827Z" fill="#2962FF"/>
<path opacity="0.1" d="M104.267 100.945H97.6763V107.536H104.267V100.945Z" fill="#2962FF"/>
<path opacity="0.1" d="M104.267 114.605V119.811C102.063 119.664 99.8657 119.43 97.6763 119.108V114.605H104.267Z" fill="#2962FF"/>
<path opacity="0.1" d="M77.4384 82.5051H54.3672V85.4907H77.4384V82.5051Z" fill="#2962FF"/>
<path opacity="0.1" d="M77.4384 91.5728H54.3672V94.5584H77.4384V91.5728Z" fill="#2962FF"/>
<path opacity="0.1" d="M77.4384 100.64V103.624H60.3892C59.737 103.126 59.093 102.617 58.4572 102.097L58.1957 101.883C57.6958 101.471 57.2005 101.05 56.6975 100.64H77.4384Z" fill="#2962FF"/>
<path opacity="0.1" d="M77.4384 109.707V112.692H75.6387C73.6145 111.781 71.6312 110.785 69.689 109.707H77.4384Z" fill="#2962FF"/>
<path opacity="0.1" d="M119.566 64.1409H115.276V68.4309H119.566V64.1409Z" fill="#2962FF"/>
<path opacity="0.1" d="M26.6598 44.1475H22.3698V48.4375H26.6598V44.1475Z" fill="#2962FF"/>
<path opacity="0.1" d="M26.6598 54.115H22.3698V58.405H26.6598V54.115Z" fill="#2962FF"/>
<path opacity="0.1" d="M26.6598 64.0808H22.3698V68.3708H26.6598V64.0808Z" fill="#2962FF"/>
<path opacity="0.1" d="M26.6598 74.0483H22.3698V78.3383H26.6598V74.0483Z" fill="#2962FF"/>
<path opacity="0.1" d="M26.6598 84.0156H22.3698V88.3056H26.6598V84.0156Z" fill="#2962FF"/>
<path opacity="0.1" d="M26.6598 93.9817H22.3698V98.2717H26.6598V93.9817Z" fill="#2962FF"/>
<path opacity="0.1" d="M135.946 64.1409H131.656V68.4309H135.946V64.1409Z" fill="#2962FF"/>
<path opacity="0.1" d="M119.566 74.7236H115.276V79.0136H119.566V74.7236Z" fill="#2962FF"/>
<path opacity="0.1" d="M135.946 74.7236H131.656V79.0136H135.946V74.7236Z" fill="#2962FF"/>
<path opacity="0.1" d="M119.566 85.3079H115.276V89.5979H119.566V85.3079Z" fill="#2962FF"/>
<path opacity="0.1" d="M135.946 85.3079H131.656V89.5979H135.946V85.3079Z" fill="#2962FF"/>
<path opacity="0.1" d="M119.566 95.8921H115.276V100.182H119.566V95.8921Z" fill="#2962FF"/>
<path opacity="0.1" d="M135.946 95.8921H131.656V100.182H135.946V95.8921Z" fill="#2962FF"/>
<path opacity="0.1" d="M119.566 106.475H115.276V110.765H119.566V106.475Z" fill="#2962FF"/>
<path opacity="0.1" d="M135.946 106.475H131.656V110.765H135.946V106.475Z" fill="#2962FF"/>
<path opacity="0.1" d="M115.276 119.825V117.057H119.566V119.431L115.276 119.825Z" fill="#2962FF"/>
<path opacity="0.1" d="M0.938293 56.1052V58.5663H17.3461V56.1052H0.938293ZM2.39957 58.4125H1.19517V56.259H2.39957V58.4125ZM3.86085 58.4125H2.65645V56.259H3.86085V58.4125ZM5.32212 58.4125H4.11772V56.259H5.32212V58.4125ZM6.7834 58.4125H5.579V56.259H6.7834V58.4125ZM8.24467 58.4125H7.04027V56.259H8.24467V58.4125ZM9.70595 58.4125H8.50155V56.259H9.70595V58.4125ZM11.1672 58.4125H9.96283V56.259H11.1672V58.4125ZM12.6285 58.4125H11.4241V56.259H12.6285V58.4125ZM14.0898 58.4125H12.8854V56.259H14.0898V58.4125ZM15.5511 58.4125H14.3467V56.259H15.5511V58.4125ZM17.0892 58.4125H15.8079V56.259H17.0892V58.4125Z" fill="#2962FF"/>
<path opacity="0.1" d="M0.938293 63.2517V65.7051H17.3461V63.2517H0.938293ZM2.39957 65.5513H1.19517V63.4055H2.39957V65.5513ZM3.86085 65.5513H2.65645V63.4055H3.86085V65.5513ZM5.32212 65.5513H4.11772V63.4055H5.32212V65.5513ZM6.7834 65.5513H5.579V63.4055H6.7834V65.5513ZM8.24467 65.5513H7.04027V63.4055H8.24467V65.5513ZM9.70595 65.5513H8.50155V63.4055H9.70595V65.5513ZM11.1672 65.5513H9.96283V63.4055H11.1672V65.5513ZM12.6285 65.5513H11.4241V63.4055H12.6285V65.5513ZM14.0898 65.5513H12.8854V63.4055H14.0898V65.5513ZM15.5511 65.5513H14.3467V63.4055H15.5511V65.5513ZM17.0892 65.5513H15.8079V63.4055H17.0892V65.5513Z" fill="#2962FF"/>
<path opacity="0.1" d="M0.938293 70.3965V72.8499H17.3461V70.3965H0.938293ZM2.39957 72.6961H1.19517V70.5503H2.39957V72.6961ZM3.86085 72.6961H2.65645V70.5503H3.86085V72.6961ZM5.32212 72.6961H4.11772V70.5503H5.32212V72.6961ZM6.7834 72.6961H5.579V70.5503H6.7834V72.6961ZM8.24467 72.6961H7.04027V70.5503H8.24467V72.6961ZM9.70595 72.6961H8.50155V70.5503H9.70595V72.6961ZM11.1672 72.6961H9.96283V70.5503H11.1672V72.6961ZM12.6285 72.6961H11.4241V70.5503H12.6285V72.6961ZM14.0898 72.6961H12.8854V70.5503H14.0898V72.6961ZM15.5511 72.6961H14.3467V70.5503H15.5511V72.6961ZM17.0892 72.6961H15.8079V70.5503H17.0892V72.6961Z" fill="#2962FF"/>
<path opacity="0.1" d="M0.938293 77.5354V79.9965H17.3461V77.5354H0.938293ZM2.39957 79.8427H1.19517V77.6892H2.39957V79.8427ZM3.86085 79.8427H2.65645V77.6892H3.86085V79.8427ZM5.32212 79.8427H4.11772V77.6892H5.32212V79.8427ZM6.7834 79.8427H5.579V77.6892H6.7834V79.8427ZM8.24467 79.8427H7.04027V77.6892H8.24467V79.8427ZM9.70595 79.8427H8.50155V77.6892H9.70595V79.8427ZM11.1672 79.8427H9.96283V77.6892H11.1672V79.8427ZM12.6285 79.8427H11.4241V77.6892H12.6285V79.8427ZM14.0898 79.8427H12.8854V77.6892H14.0898V79.8427ZM15.5511 79.8427H14.3467V77.6892H15.5511V79.8427ZM17.0892 79.8427H15.8079V77.6892H17.0892V79.8427Z" fill="#2962FF"/>
<path opacity="0.1" d="M1.00134 84.6863C1.05979 84.917 1.12594 85.1477 1.19515 85.3754V84.8401H2.39955V86.9936H1.75659C1.77505 87.0443 1.79505 87.0966 1.81658 87.1474H17.3523V84.6863H1.00134ZM3.86083 86.9936H2.65643V84.8401H3.86083V86.9936ZM5.32211 86.9936H4.11771V84.8401H5.32211V86.9936ZM6.78338 86.9936H5.57898V84.8401H6.78338V86.9936ZM8.24466 86.9936H7.04026V84.8401H8.24466V86.9936ZM9.70593 86.9936H8.50153V84.8401H9.70593V86.9936ZM11.1672 86.9936H9.96281V84.8401H11.1672V86.9936ZM12.6285 86.9936H11.4241V84.8401H12.6285V86.9936ZM14.0898 86.9936H12.8854V84.8401H14.0898V86.9936ZM15.551 86.9936H14.3466V84.8401H15.551V86.9936ZM17.0892 86.9936H15.8079V84.8401H17.0892V86.9936Z" fill="#2962FF"/>
<path opacity="0.1" d="M4.4115 91.8313C4.44842 91.8821 4.48533 91.9344 4.52379 91.9851H5.3221V93.0172C5.4067 93.1203 5.49284 93.2218 5.57898 93.3249V91.9867H6.78338V94.1401H6.29578C6.34346 94.1909 6.39114 94.2432 6.4419 94.2939H17.3461V91.8328L4.4115 91.8313ZM8.24466 94.1386H7.04026V91.9851H8.24466V94.1386ZM9.70593 94.1386H8.50153V91.9851H9.70593V94.1386ZM11.1672 94.1386H9.96281V91.9851H11.1672V94.1386ZM12.6285 94.1386H11.4241V91.9851H12.6285V94.1386ZM14.0898 94.1386H12.8854V91.9851H14.0898V94.1386ZM15.551 94.1386H14.3466V91.9851H15.551V94.1386ZM17.0892 94.1386H15.8079V91.9851H17.0892V94.1386Z" fill="#2962FF"/>
<path opacity="0.1" d="M12.4655 98.9761C12.6039 99.0545 12.7439 99.1299 12.8854 99.2053V99.1299H14.0898V99.8098L14.3467 99.9267V99.1299H15.5511V100.436L15.8079 100.534V99.1299H17.0892V100.976L17.3461 101.056V98.9761H12.4655Z" fill="#2962FF"/>
<path opacity="0.1" d="M63.0594 34.8C63.0594 34.8 59.3924 34.5785 59.8292 37.1472C59.8068 37.2778 59.8263 37.4121 59.8849 37.5309C59.9435 37.6497 60.0381 37.7469 60.1553 37.8086C60.1553 37.8086 60.1553 37.6179 60.5306 37.6825C60.6623 37.7041 60.796 37.7103 60.929 37.701C61.109 37.6891 61.2802 37.6189 61.4166 37.501C61.4166 37.501 62.4472 37.0749 62.8487 35.3906C62.8487 35.3906 63.144 35.023 63.1333 34.9292L62.518 35.1937C62.518 35.1937 62.7303 35.6398 62.5641 36.0105C62.5641 36.0105 62.5441 35.2107 62.4242 35.2291C62.4011 35.2291 62.1027 35.3829 62.1027 35.3829C62.1027 35.3829 62.4672 36.1613 62.1919 36.7258C62.1919 36.7258 62.2965 35.769 61.9904 35.4398L61.5443 35.6967C61.5443 35.6967 61.9704 36.4997 61.6812 37.1549C61.6812 37.1549 61.7566 36.1505 61.4536 35.7598L61.0582 36.0674C61.0582 36.0674 61.4582 36.858 61.2121 37.4026C61.2121 37.4026 61.1798 36.232 60.9706 36.1428C60.8205 36.2693 60.6866 36.414 60.5722 36.5735C60.5722 36.5735 60.846 37.1472 60.6768 37.4502C60.6768 37.4502 60.5722 36.6719 60.486 36.6673C60.486 36.6673 60.143 37.1841 60.1076 37.5379C60.1235 37.2097 60.2253 36.8914 60.403 36.615C60.2048 36.6525 60.022 36.7471 59.8769 36.8873C59.8769 36.8873 59.9308 36.5227 60.4922 36.4904C60.4922 36.4904 60.7768 36.0997 60.8537 36.0751C60.8537 36.0751 60.2984 36.029 59.9615 36.1782C59.9615 36.1782 60.2584 35.8336 60.9552 35.9905L61.3444 35.6721C61.3444 35.6721 60.6137 35.5721 60.3045 35.6829C60.3045 35.6829 60.6599 35.3752 61.4489 35.5998L61.8735 35.346C61.5474 35.2746 61.2134 35.2456 60.8798 35.2599C60.8798 35.2599 61.2705 35.0491 61.9981 35.2783L62.3057 35.1414C62.3057 35.1414 61.8443 35.0522 61.7166 35.0384C61.5889 35.0245 61.5751 34.9876 61.5751 34.9876C61.864 34.9394 62.1606 34.9725 62.4318 35.083C62.4318 35.083 63.0702 34.84 63.0594 34.8Z" fill="#2962FF"/>
<path opacity="0.1" d="M53.4335 47.3008C53.4335 47.3008 52.1798 50.7525 54.7671 51.0678C54.8855 51.1261 55.0194 51.1454 55.1495 51.123C55.2796 51.1007 55.3994 51.0377 55.4916 50.9432C55.4916 50.9432 55.3116 50.8832 55.4777 50.5464C55.5359 50.4267 55.5803 50.3008 55.61 50.171C55.6489 49.9948 55.6295 49.8107 55.5546 49.6465C55.5546 49.6465 55.4393 48.5375 53.938 47.6746C53.938 47.6746 53.6703 47.2854 53.5765 47.27L53.6534 47.9391C53.6534 47.9391 54.141 47.8622 54.4502 48.1268C54.4502 48.1268 53.6811 47.9191 53.6611 48.0391C53.6611 48.0622 53.718 48.3914 53.718 48.3914C53.718 48.3914 54.5671 48.2622 55.0301 48.6867C55.0301 48.6867 54.141 48.3144 53.7396 48.516L53.8595 49.0051C53.8595 49.0051 54.7502 48.8267 55.2962 49.2881C55.2962 49.2881 54.3548 48.9328 53.8934 49.1112L54.0764 49.5727C54.0764 49.5727 54.9486 49.4189 55.4008 49.8019C55.4008 49.8019 54.2687 49.4942 54.1256 49.6757C54.2044 49.8548 54.3046 50.0237 54.4241 50.1787C54.4241 50.1787 55.0532 50.0803 55.2947 50.3325C55.2947 50.3325 54.5179 50.211 54.4902 50.291C54.4902 50.291 54.8886 50.7679 55.2178 50.9063C54.9086 50.7969 54.6335 50.6087 54.4194 50.3602C54.3991 50.5614 54.4381 50.764 54.5317 50.9432C54.5317 50.9432 54.1964 50.7894 54.3241 50.2433C54.3241 50.2433 54.0287 49.8603 54.0287 49.7819C54.0287 49.7819 53.8257 50.3002 53.8749 50.6663C53.8749 50.6663 53.6288 50.2833 53.9764 49.6604L53.7826 49.1989C53.7826 49.1989 53.475 49.8711 53.4965 50.2003C53.4965 50.2003 53.3058 49.7711 53.7426 49.0774L53.6211 48.599C53.4601 48.8896 53.3376 49.1998 53.2566 49.5219C53.2566 49.5219 53.1643 49.0866 53.5904 48.4544L53.5458 48.1253C53.5458 48.1253 53.3304 48.5375 53.2796 48.6621C53.2289 48.7867 53.1904 48.7821 53.1904 48.7821C53.2259 48.4912 53.3414 48.2158 53.5242 47.9868C53.5242 47.9868 53.475 47.3008 53.4335 47.3008Z" fill="#2962FF"/>
<path opacity="0.1" d="M77.7414 44.3905C77.7414 44.3905 76.4893 47.8483 79.075 48.1559C79.1939 48.2142 79.3281 48.2333 79.4585 48.2106C79.5889 48.188 79.7088 48.1247 79.8011 48.0298C79.8011 48.0298 79.6196 47.9698 79.7872 47.6345C79.8459 47.5146 79.8898 47.3881 79.918 47.2576C79.9574 47.0816 79.9385 46.8975 79.8641 46.7331C79.8641 46.7331 79.7488 45.6241 78.2475 44.7612C78.2475 44.7612 77.9783 44.3735 77.8845 44.3582L77.9629 45.0257C77.9629 45.0257 78.4505 44.9504 78.7597 45.2149C78.7597 45.2149 77.9906 45.0073 77.9691 45.1257C77.9691 45.1503 78.026 45.478 78.026 45.478C78.026 45.478 78.8751 45.3503 79.3396 45.7733C79.3396 45.7733 78.4505 45.4026 78.0475 45.6025L78.169 46.0932C78.169 46.0932 79.0597 45.9133 79.6057 46.3763C79.6057 46.3763 78.6628 46.0194 78.2013 46.1978L78.3844 46.6593C78.3844 46.6593 79.2565 46.5055 79.7088 46.8885C79.7088 46.8885 78.5782 46.5808 78.4336 46.7639C78.5149 46.9437 78.6182 47.1126 78.7413 47.2669C78.7413 47.2669 79.3688 47.1669 79.6119 47.4207C79.6119 47.4207 78.8351 47.2992 78.8074 47.3807C78.8074 47.3807 79.2042 47.856 79.5334 47.996C79.2245 47.887 78.9497 47.6987 78.7366 47.4499C78.7162 47.6509 78.7547 47.8534 78.8474 48.0329C78.8474 48.0329 78.5136 47.8791 78.6413 47.3345C78.6413 47.3345 78.3459 46.95 78.3444 46.8731C78.3444 46.8731 78.1429 47.393 78.1906 47.7575C78.1906 47.7575 77.9445 47.3761 78.2921 46.7516L78.0983 46.2901C78.0983 46.2901 77.7907 46.9623 77.8122 47.2899C77.8122 47.2899 77.6215 46.8623 78.0583 46.1686L77.9352 45.6887C77.7743 45.9792 77.6517 46.2895 77.5707 46.6116C77.5707 46.6116 77.4799 46.1763 77.906 45.5441L77.8614 45.2149C77.8614 45.2149 77.6461 45.6272 77.5938 45.7517C77.5415 45.8763 77.5046 45.8717 77.5046 45.8717C77.541 45.5808 77.657 45.3056 77.8399 45.0765C77.8399 45.0765 77.7845 44.392 77.7414 44.3905Z" fill="#2962FF"/>
<path opacity="0.1" d="M42.9938 72.6132C42.9938 72.6132 41.7402 76.0664 44.3274 76.3818C44.446 76.4401 44.58 76.4593 44.7102 76.4366C44.8404 76.414 44.96 76.3506 45.0519 76.2556C45.0519 76.2556 44.872 76.1956 45.0381 75.8603C45.0972 75.7405 45.1416 75.614 45.1704 75.4835C45.2101 75.3073 45.1906 75.1229 45.115 74.9589C45.115 74.9589 44.9996 73.8499 43.4984 72.9885C43.4984 72.9885 43.2307 72.5994 43.1369 72.584L43.2138 73.2516C43.2138 73.2516 43.7029 73.1762 44.0106 73.4408C44.0106 73.4408 43.2415 73.2331 43.2215 73.3515C43.2215 73.3761 43.2784 73.7038 43.2784 73.7038C43.2784 73.7038 44.1275 73.5761 44.5905 73.9991C44.5905 73.9991 43.7014 73.6284 43.2999 73.8284L43.4199 74.3191C43.4199 74.3191 44.3105 74.1391 44.8566 74.6021C44.8566 74.6021 43.9152 74.2452 43.4537 74.4237L43.6368 74.8851C43.6368 74.8851 44.5089 74.7313 44.9612 75.1143C44.9612 75.1143 43.8306 74.8067 43.686 74.9897C43.7648 75.1688 43.865 75.3377 43.9844 75.4927C43.9844 75.4927 44.6135 75.3927 44.8566 75.6465C44.8566 75.6465 44.0782 75.525 44.0506 75.6065C44.0506 75.6065 44.449 76.0818 44.7781 76.2218C44.4689 76.1133 44.1937 75.9255 43.9798 75.6773C43.9595 75.8779 43.9985 76.0801 44.0921 76.2587C44.0921 76.2587 43.7568 76.1049 43.8844 75.5604C43.8844 75.5604 43.5906 75.1758 43.5891 75.0989C43.5891 75.0989 43.3861 75.6188 43.4353 75.9834C43.4353 75.9834 43.1892 75.6019 43.5368 74.9774L43.343 74.5159C43.343 74.5159 43.0354 75.1881 43.0584 75.5158C43.0584 75.5158 42.8677 75.0882 43.3045 74.3944L43.1815 73.916C43.0202 74.2065 42.8977 74.5167 42.8169 74.839C42.8169 74.839 42.7246 74.4021 43.1507 73.7715L43.1061 73.4408C43.1061 73.4408 42.8908 73.853 42.84 73.9776C42.7892 74.1022 42.7508 74.0976 42.7508 74.0976C42.7863 73.8064 42.9025 73.531 43.0861 73.3023C43.0861 73.3023 43.0354 72.6132 42.9938 72.6132Z" fill="#2962FF"/>
<path opacity="0.1" d="M38.0193 40.0667C38.0193 40.0667 36.7672 43.5183 39.3529 43.8337C39.4717 43.8918 39.6057 43.9111 39.7361 43.8887C39.8664 43.8664 39.9864 43.8035 40.079 43.7091C40.079 43.7091 39.8974 43.6491 40.0651 43.3122C40.1231 43.1921 40.167 43.0656 40.1959 42.9354C40.2352 42.7598 40.2163 42.5762 40.142 42.4124C40.142 42.4124 40.0267 41.3034 38.5238 40.4404C38.5238 40.4404 38.2562 40.0513 38.1624 40.0359L38.2408 40.705C38.2408 40.705 38.7284 40.6281 39.0361 40.8927C39.0361 40.8927 38.267 40.685 38.247 40.805C38.247 40.8281 38.3039 41.1572 38.3039 41.1572C38.3039 41.1572 39.153 41.028 39.6175 41.4526C39.6175 41.4526 38.7284 41.0803 38.3254 41.2818L38.4454 41.771C38.4454 41.771 39.336 41.591 39.8836 42.054C39.8836 42.054 38.9407 41.6971 38.4792 41.8771L38.6623 42.3386C38.6623 42.3386 39.5344 42.1847 39.9867 42.5693C39.9867 42.5693 38.8561 42.2616 38.7115 42.4431C38.7903 42.6223 38.8905 42.7911 39.0099 42.9461C39.0099 42.9461 39.639 42.8477 39.8821 43.1C39.8821 43.1 39.1053 42.9784 39.0776 43.0584C39.0776 43.0584 39.4744 43.5353 39.8036 43.6737C39.4947 43.5639 39.2196 43.3758 39.0053 43.1276C38.9849 43.3288 39.024 43.5315 39.1176 43.7106C39.1176 43.7106 38.7823 43.5568 38.9115 43.0107C38.9115 43.0107 38.6161 42.6277 38.6146 42.5493C38.6146 42.5493 38.4131 43.0677 38.4608 43.4337C38.4608 43.4337 38.2131 43.0507 38.5623 42.4278L38.367 41.9663C38.367 41.9663 38.0593 42.6385 38.0824 42.9677C38.0824 42.9677 37.8917 42.5385 38.3285 41.8448L38.2054 41.3664C38.0445 41.657 37.9219 41.9672 37.8409 42.2893C37.8409 42.2893 37.7501 41.854 38.1747 41.2218L38.1316 40.8927C38.1316 40.8927 37.9147 41.3049 37.864 41.4279C37.8132 41.551 37.7747 41.5495 37.7747 41.5495C37.8103 41.2583 37.9264 40.9829 38.1101 40.7542C38.1101 40.7542 38.0624 40.0667 38.0193 40.0667Z" fill="#2962FF"/>
<path opacity="0.1" d="M47.3161 58.8633C47.3161 58.8633 48.2836 62.4011 50.5786 61.1706C50.709 61.1498 50.8295 61.0884 50.9229 60.995C51.0163 60.9016 51.0777 60.7811 51.0985 60.6507C51.0985 60.6507 50.917 60.706 50.8601 60.3353C50.8384 60.2037 50.8012 60.0752 50.7493 59.9523C50.6811 59.7853 50.5594 59.6457 50.4032 59.5555C50.4032 59.5555 49.6695 58.7156 47.9421 58.8756C47.9421 58.8756 47.4991 58.7141 47.413 58.7556L47.8622 59.2555C47.8622 59.2555 48.2175 58.9125 48.622 58.9479C48.622 58.9479 47.8698 59.2248 47.9252 59.3309C47.9375 59.3524 48.1744 59.5862 48.1744 59.5862C48.1744 59.5862 48.7897 58.991 49.4173 59.0694C49.4173 59.0694 48.4774 59.2786 48.2652 59.6754L48.6451 60.0062C48.6451 60.0062 49.2696 59.3463 49.9833 59.4078C49.9833 59.4078 49.0066 59.6601 48.7328 60.0723L49.1512 60.3476C49.1512 60.3476 49.7664 59.7154 50.3663 59.7723C50.3663 59.7723 49.2681 60.1769 49.2511 60.4045C49.4191 60.5056 49.5989 60.5857 49.7864 60.643C49.7864 60.643 50.2479 60.2 50.5847 60.263C50.5847 60.263 49.8787 60.6122 49.9033 60.6937C49.9033 60.6937 50.5032 60.8475 50.8493 60.7737C50.5342 60.863 50.2012 60.8684 49.8833 60.7891C49.9823 60.9651 50.131 61.108 50.3109 61.1998C50.3109 61.1998 49.9479 61.2659 49.7387 60.7476C49.7387 60.7476 49.2773 60.6045 49.2281 60.5399C49.2281 60.5399 49.3634 61.0813 49.6126 61.3521C49.6126 61.3521 49.1912 61.1813 49.1158 60.4707L48.6897 60.2046C48.6897 60.2046 48.8297 60.9291 49.0327 61.1859C49.0327 61.1859 48.6297 60.946 48.5866 60.1277L48.2113 59.8077C48.2479 60.1397 48.3275 60.4654 48.4482 60.7768C48.4482 60.7768 48.1236 60.4691 48.1067 59.7124L47.8806 59.4678C47.8806 59.4678 47.9421 59.9292 47.9714 60.06C48.0006 60.1907 47.9714 60.2138 47.9714 60.2138C47.8328 59.9554 47.7689 59.6635 47.7868 59.3709C47.7868 59.3709 47.3515 58.8402 47.3161 58.8633Z" fill="#2962FF"/>
<path opacity="0.1" d="M73.5637 62.0228C73.5637 62.0228 74.5312 65.5606 76.8247 64.33C76.9555 64.3098 77.0764 64.2486 77.1702 64.1551C77.2639 64.0617 77.3255 63.9409 77.3461 63.8101C77.3461 63.8101 77.1631 63.8655 77.1062 63.5025C77.0857 63.3708 77.049 63.2422 76.997 63.1195C76.9277 62.9527 76.8055 62.8133 76.6493 62.7226C76.6493 62.7226 75.9156 61.8828 74.1882 62.0443C74.1882 62.0443 73.7452 61.8813 73.6606 61.9228L74.1082 62.4227C74.1082 62.4227 74.4636 62.0797 74.8681 62.1151C74.8681 62.1151 74.1159 62.3919 74.1728 62.4981C74.1836 62.5196 74.422 62.7534 74.422 62.7534C74.422 62.7534 75.0373 62.1581 75.6649 62.2366C75.6649 62.2366 74.7235 62.4458 74.5112 62.8426L74.8927 63.1733C74.8927 63.1733 75.508 62.5134 76.2294 62.575C76.2294 62.575 75.2542 62.8272 74.9804 63.2395L75.3988 63.5148C75.3988 63.5148 76.0141 62.8826 76.6124 62.9395C76.6124 62.9395 75.5141 63.3441 75.4988 63.5717C75.6662 63.6728 75.8455 63.7529 76.0325 63.8101C76.0325 63.8101 76.494 63.3671 76.8308 63.4302C76.8308 63.4302 76.1263 63.7794 76.1494 63.8609C76.1494 63.8609 76.7493 64.0147 77.0969 63.9409C76.7813 64.0301 76.4478 64.0355 76.1294 63.9563C76.2289 64.1319 76.3775 64.2747 76.557 64.367C76.557 64.367 76.194 64.4331 75.9848 63.9147C75.9848 63.9147 75.5234 63.7717 75.4757 63.7071C75.4757 63.7071 75.6095 64.2485 75.8587 64.5192C75.8587 64.5192 75.4372 64.3485 75.3619 63.6379L74.9358 63.3687C74.9358 63.3687 75.0758 64.0932 75.2803 64.35C75.2803 64.35 74.8773 64.1101 74.8343 63.2918L74.4574 62.9718C74.4939 63.3039 74.5741 63.6298 74.6958 63.9409C74.6958 63.9409 74.3697 63.6333 74.3528 62.8765L74.1267 62.6319C74.1267 62.6319 74.1882 63.0933 74.2174 63.2241C74.2467 63.3548 74.2174 63.3779 74.2174 63.3779C74.0789 63.1195 74.015 62.8276 74.0329 62.535C74.0329 62.535 73.5991 61.9997 73.5637 62.0228Z" fill="#2962FF"/>
<path d="M63.7162 97.5518C63.7162 97.5518 71.6963 94.8646 70.0443 85.3433L59.9077 82.7114L57.5543 90.5239L63.7162 97.5518Z" fill="#CED7E7"/>
<path opacity="0.1" d="M57.5543 90.5239L63.7147 97.5518C63.7147 97.5518 71.6948 94.8646 70.0428 85.3433L57.5543 90.5239Z" fill="black"/>
<path d="M24.0219 20.1826C24.0219 20.1826 25.0986 21.9345 26.5706 21.0593C28.0427 20.1841 26.6306 17.7661 26.6306 17.7661C26.6306 17.7661 23.8111 17.38 24.0219 20.1826Z" fill="#FED253"/>
<path opacity="0.1" d="M26.5706 21.0594C26.397 21.1717 26.2022 21.2474 25.9983 21.2818C25.7944 21.3162 25.5856 21.3086 25.3847 21.2594C24.8448 21.1225 24.4295 20.7072 24.2064 20.4349C24.1399 20.3551 24.0783 20.2714 24.0219 20.1842C23.9465 19.1844 24.2572 18.5891 24.6879 18.2384C25.2801 17.7569 26.0999 17.7369 26.4537 17.7523C26.5629 17.7523 26.626 17.7677 26.626 17.7677L26.6552 17.8169C26.6968 17.8954 26.7875 18.0692 26.8844 18.3014C27.2136 19.0628 27.6058 20.4426 26.5706 21.0594Z" fill="black"/>
<path d="M64.5007 84.8955L70.0382 85.3431L80.344 85.4277L72.224 95.4259C72.224 95.4259 69.6475 95.5659 69.1168 95.9289C68.5861 96.2919 61.1352 96.0981 61.1352 96.0981L59.9323 90.9729L64.5007 84.8955Z" fill="#FFA2A2"/>
<path opacity="0.05" d="M64.5007 84.8955L70.0382 85.3431L80.344 85.4277L72.224 95.4259C72.224 95.4259 69.6475 95.5659 69.1168 95.9289C68.5861 96.2919 61.1352 96.0981 61.1352 96.0981L59.9323 90.9729L64.5007 84.8955Z" fill="black"/>
<path d="M58.9002 58.0142L60.1877 60.1985L60.4676 64.007C60.4676 64.007 61.3644 67.2541 62.0366 68.2063C62.7088 69.1584 62.9887 71.6795 62.9887 71.6795C62.9887 71.6795 63.2687 74.0314 63.604 74.5344C63.9393 75.0373 64.3885 78.6875 64.3885 78.6875C64.3885 78.6875 67.3572 84.6233 70.0444 85.3509C70.0444 85.3509 56.716 89.7193 63.7163 97.5595C63.7163 97.5595 58.7326 98.79 57.5558 97.3918C56.3791 95.9936 53.2997 75.2712 53.2997 75.2712L54.2518 57.7974L58.9002 58.0142Z" fill="#CED7E7"/>
<path opacity="0.05" d="M58.9002 58.0142L60.1877 60.1985L60.4676 64.007C60.4676 64.007 61.3644 67.2541 62.0366 68.2063C62.7088 69.1584 62.9887 71.6795 62.9887 71.6795C62.9887 71.6795 63.2687 74.0314 63.604 74.5344C63.9393 75.0373 64.3885 78.6875 64.3885 78.6875C64.3885 78.6875 67.3572 84.6233 70.0444 85.3509C70.0444 85.3509 56.716 89.7193 63.7163 97.5595C63.7163 97.5595 58.7326 98.79 57.5558 97.3918C56.3791 95.9936 53.2997 75.2712 53.2997 75.2712L54.2518 57.7974L58.9002 58.0142Z" fill="black"/>
<path d="M42.7292 36.7272C42.3552 38.6674 42.4662 40.6699 43.0523 42.5569L40.9788 48.4927C40.9788 48.4927 25.1862 39.7005 26.5306 37.5716C27.292 36.3641 27.3889 33.1693 27.3274 30.6313C27.2828 28.7024 27.1459 27.155 27.1459 27.155C27.1459 27.155 46.527 29.0608 43.9475 33.4847C43.3637 34.4901 42.952 35.586 42.7292 36.7272Z" fill="#FFA2A2"/>
<path opacity="0.1" d="M43.9475 33.4847C43.3637 34.4901 42.952 35.586 42.7292 36.7272C39.853 37.6473 36.7469 37.5428 33.939 36.4315C31.1311 35.3202 28.7948 33.2706 27.3274 30.6313C27.2828 28.7024 27.1459 27.155 27.1459 27.155C27.1459 27.155 46.5224 29.0608 43.9475 33.4847Z" fill="black"/>
<path d="M51.7876 23.9635C51.789 26.0167 51.3058 28.0414 50.3773 29.8728C49.4489 31.7041 48.1014 33.2906 46.4444 34.5032C44.7875 35.7158 42.8677 36.5203 40.8413 36.8512C38.8149 37.1822 36.7389 37.0304 34.7823 36.408C32.8256 35.7857 31.0433 34.7104 29.5804 33.2696C28.1175 31.8288 27.0153 30.0632 26.3632 28.1162C25.7112 26.1692 25.5277 24.0958 25.8278 22.0646C26.1279 20.0334 26.9031 18.1016 28.0903 16.4264C28.2749 16.1669 28.4692 15.9136 28.6733 15.6665C29.8361 14.2532 31.283 13.1003 32.9202 12.2825C33.8085 11.8381 34.7454 11.4984 35.712 11.2704C37.4575 10.8568 39.2694 10.8069 41.0349 11.1237C42.8005 11.4405 44.482 12.1172 45.9749 13.1117C47.4677 14.1062 48.7399 15.3972 49.7124 16.9045C50.6849 18.4118 51.3368 20.103 51.6276 21.8731C51.7363 22.5645 51.7898 23.2635 51.7876 23.9635Z" fill="#FFA2A2"/>
<path d="M56.939 77.6169C56.7436 78.6598 56.9882 80.5656 57.3589 82.5053C57.3743 82.5899 57.3912 82.6745 57.4081 82.7591C57.425 82.8437 57.4497 82.9744 57.4712 83.0806C57.6419 83.9143 57.8281 84.7403 58.0096 85.4909C58.1911 86.2415 58.3541 86.8845 58.4925 87.4136C58.7017 88.2058 58.8448 88.7042 58.8448 88.7042C58.8448 88.7042 58.8633 89.1933 58.8879 89.9716C58.9017 90.4208 58.9171 90.9684 58.9325 91.5729C58.9325 91.7483 58.9432 91.9267 58.9479 92.1113C58.9555 92.4327 58.9632 92.7665 58.9709 93.108C58.9709 93.2188 58.9709 93.3295 58.9786 93.4418C58.9786 93.8094 58.9925 94.1847 58.9986 94.5585C59.0063 95.0723 59.0125 95.586 59.0155 96.0844C59.0155 96.2751 59.0155 96.4628 59.0155 96.6474C59.0155 97.1242 59.0155 97.581 59.0155 98.001C58.9986 99.1931 58.9509 100.093 58.8494 100.353C58.814 100.442 58.7817 100.539 58.751 100.641C58.6176 101.118 58.5209 101.605 58.4618 102.097L58.2003 101.883C57.7004 101.471 57.2051 101.05 56.7021 100.641C55.8661 99.9402 54.9786 99.3036 54.0472 98.7362C53.9841 98.6993 53.9211 98.6624 53.8565 98.627C53.6842 98.527 53.5088 98.4332 53.3304 98.344C52.9628 98.1587 52.586 97.9923 52.2014 97.8456C50.4248 97.1688 48.522 96.9227 46.5931 96.9642C45.8241 97.258 45.3241 97.4688 45.3241 97.4688L44.3459 97.7641L44.1828 97.8133C43.123 98.1363 41.6325 98.5947 41.0957 98.7855C40.2281 99.0931 32.6956 100.66 32.6956 100.66C32.0075 100.848 31.3045 100.977 30.5945 101.045C29.3016 101.409 27.9854 101.684 26.6552 101.87C23.6323 102.256 20.562 102.009 17.6399 101.143C17.5527 101.149 17.4652 101.146 17.3784 101.136C17.4322 101.136 17.4845 101.123 17.5322 101.114L17.3445 101.059L17.0877 100.979C16.657 100.844 16.2299 100.695 15.8064 100.534L15.5495 100.436C15.1393 100.278 14.7378 100.108 14.3451 99.9268L14.0882 99.8099C13.678 99.6191 13.2766 99.4176 12.8838 99.2054C12.7423 99.1315 12.6023 99.0516 12.4639 98.9762C12.0455 98.7424 11.6353 98.4973 11.2333 98.2409C11.1657 97.661 11.1303 97.2734 11.1303 97.2734L10.5304 94.2863L10.4996 94.1324L10.0689 91.979L10.0382 91.8252L9.10141 87.1398L9.07065 86.986L8.63996 84.8326L8.60919 84.6787L7.66013 79.9965L7.62937 79.8427L7.19868 77.6892L7.16791 77.5354L6.22654 72.8439L6.19578 72.6901L5.76509 70.5444L5.73433 70.3905L5.56359 69.5445L5.30671 68.2632C5.30671 68.2632 4.48686 67.0911 3.56395 65.7052L3.46089 65.5514C3.19786 65.1623 2.92714 64.7577 2.66411 64.3609C2.57643 64.2301 2.49183 64.1009 2.40723 63.9732C2.27905 63.7794 2.15497 63.5902 2.03499 63.4056L1.95193 63.278L1.93501 63.2518C0.609092 61.1999 1.49662 60.3077 1.49662 60.3077C1.49662 60.3077 2.05345 59.554 2.77178 58.5573C2.80716 58.5065 2.84407 58.4558 2.88253 58.4035C3.19017 57.9728 3.52857 57.5021 3.86082 57.0314L4.11769 56.6653C4.2146 56.5284 4.30996 56.3915 4.40226 56.2562C4.43917 56.2054 4.47455 56.1531 4.50839 56.1023C5.21749 55.0779 5.80201 54.1842 5.92198 53.8674C6.10964 53.3674 7.30635 51.8892 8.49844 50.5926C9.43828 49.5681 10.3735 48.6575 10.7934 48.4391C11.7456 47.9361 12.1378 46.3103 12.1378 46.3103C12.1378 46.3103 14.2097 45.5842 14.4897 45.0243C14.7696 44.4644 18.6905 41.948 18.6905 41.948C18.6905 41.948 20.2763 40.9266 20.9178 40.3113C21.0086 40.2309 21.0878 40.1382 21.1531 40.036C21.3761 39.6361 22.8328 39.3069 23.425 39.1885C23.5788 39.1577 23.6742 39.1408 23.6742 39.1408C23.9133 38.7063 24.2155 38.3098 24.5709 37.9641C24.8124 37.7502 25.1139 37.0135 25.3677 36.2997C25.6431 35.5214 25.8569 34.7723 25.8569 34.7723C26.306 33.2603 27.2012 33.7079 27.2012 33.7079C27.2 33.9144 27.2196 34.1206 27.2597 34.3232C27.6335 36.169 29.6639 36.9381 30.7298 37.801C31.9065 38.7516 33.7539 41.2173 35.2106 41.7203C36.4165 42.1372 37.8147 43.7092 38.2577 44.2337L38.2916 44.2737C38.3654 44.3598 38.4023 44.4091 38.4023 44.4091C38.4023 44.4091 39.2283 44.366 39.7313 44.3568H39.9143C40.0167 44.3465 40.1138 44.307 40.1943 44.2429C40.6942 43.903 41.4387 42.9062 41.7632 42.6771C42.1539 42.3956 42.5477 37.8595 42.5477 37.8595L42.5677 37.8502C43.9628 37.1965 45.4595 43.7399 45.4595 43.7399C45.4595 43.7399 48.0913 44.5244 48.3159 45.0843C48.359 45.1951 48.5574 45.392 48.8558 45.6304C50.2146 46.6688 51.6607 47.5874 53.1781 48.376C53.212 48.393 53.2443 48.4099 53.2781 48.4237C53.3086 48.4402 53.3399 48.4551 53.3719 48.4683C53.4288 48.496 53.4842 48.5206 53.5365 48.5437C53.6196 48.5806 53.6965 48.6114 53.7672 48.636L53.8595 48.6683C54.08 48.7416 54.2876 48.8491 54.4748 48.9867C54.5302 49.0267 54.5856 49.0682 54.6394 49.1128C54.8489 49.2872 55.0415 49.4808 55.2147 49.6912C55.2408 49.7219 55.2654 49.7542 55.29 49.785C55.4069 49.9311 55.5115 50.0757 55.5977 50.2096C55.7391 50.416 55.868 50.6307 55.9838 50.8525C55.9838 50.8525 58.2787 54.7733 59.0078 55.2194C59.7369 55.6655 60.1846 60.2047 60.1846 60.2047L57.7235 69.3277C57.7235 69.3277 57.6081 71.6349 57.3927 73.9884C57.2728 75.3081 57.1205 76.651 56.939 77.6169Z" fill="#CED7E7"/>
<path d="M38.4024 44.6858C38.4024 44.6858 36.7519 45.581 35.4629 45.6656C35.2941 45.6735 35.1251 45.6637 34.9584 45.6364C33.6078 45.4318 31.6266 44.3212 31.6266 44.3212L33.9508 41.7725L36.778 43.1737L37.8178 44.1413L38.4024 44.6858Z" fill="#63667E"/>
<path opacity="0.1" d="M51.6215 21.8729C51.563 21.9556 51.4965 22.0324 51.4231 22.1021C50.614 22.8712 49.1773 22.5528 48.0744 22.3744C47.1161 22.2177 46.1799 21.9471 45.2857 21.5684C44.5074 21.2361 43.5737 20.83 42.8738 21.3069C42.6046 21.4884 42.4201 21.7791 42.1401 21.9391C41.8602 22.099 41.5033 22.1098 41.1726 22.1144C40.0959 22.1144 39.0191 22.1267 37.9686 21.8837C36.4011 21.5176 34.7799 20.5962 33.2894 21.2038C32.1234 21.6776 31.4913 22.9466 31.1759 24.1664C31.0221 24.7647 30.9083 25.3969 30.5607 25.9045C30.213 26.4121 29.5408 26.772 28.9686 26.5336C28.1242 26.1814 27.9996 24.7478 26.9813 24.6755C25.863 24.597 25.8769 25.7522 26.203 26.5875C26.686 27.818 27.3182 29.0486 27.3458 30.3314C26.144 28.1788 25.5761 25.73 25.7079 23.2681C25.8396 20.8063 26.6656 18.4321 28.0903 16.4201C28.3383 16.2665 28.5323 16.0397 28.6456 15.7709C28.657 15.7346 28.6663 15.6976 28.6733 15.6602C28.7579 15.231 28.5195 14.7803 28.5056 14.3312C28.4518 13.2345 29.6393 12.47 30.7283 12.3316C31.4528 12.2393 32.1942 12.31 32.9202 12.2869C33.2859 12.2789 33.6496 12.2304 34.0046 12.1424C34.6172 11.9588 35.1907 11.6642 35.6967 11.2733C37.4421 10.8598 39.254 10.8099 41.0196 11.1266C42.7851 11.4434 44.4666 12.1201 45.9595 13.1146C47.4523 14.1091 48.7246 15.4001 49.697 16.9074C50.6695 18.4147 51.3214 20.106 51.6123 21.876L51.6215 21.8729Z" fill="black"/>
<path d="M51.8845 20.967C51.8078 21.2713 51.6481 21.5482 51.4231 21.7669C50.614 22.536 49.1773 22.216 48.0744 22.0376C47.116 21.8844 46.1796 21.6158 45.2857 21.2378C44.5074 20.9071 43.5737 20.501 42.8738 20.9778C42.6046 21.1593 42.4201 21.45 42.1401 21.61C41.8602 21.77 41.5033 21.7807 41.1726 21.7838C40.0959 21.7915 39.0191 21.7977 37.9685 21.5546C36.4011 21.187 34.7799 20.2672 33.2894 20.8732C32.1234 21.347 31.4912 22.6175 31.1759 23.8373C31.0221 24.4356 30.9083 25.0678 30.5606 25.5739C30.213 26.08 29.5408 26.443 28.9686 26.2046C28.1242 25.8523 27.9996 24.4187 26.9813 24.3464C25.863 24.268 25.8769 25.4232 26.203 26.2584C26.7752 27.7151 27.5535 29.164 27.2982 30.7084C27.0444 30.7084 26.6244 30.6991 26.3752 30.693C26.5691 30.3623 26.1999 29.9685 25.8323 29.8562C25.4646 29.7439 25.0355 29.7455 24.7555 29.4778C24.4756 29.2102 24.474 28.7964 24.5033 28.4257C24.5671 27.6334 24.7609 26.857 25.077 26.1277C25.2785 25.6662 25.5385 25.1663 25.3846 24.6833C25.2923 24.4644 25.1812 24.2539 25.0524 24.0542C24.7325 23.4389 24.8078 22.6698 25.0816 22.0345C25.1985 21.7638 25.2831 21.5085 25.38 21.2654C25.5024 20.92 25.6795 20.5964 25.9046 20.3072C26.2568 19.8688 26.6014 19.2089 26.2122 18.8013C26.1138 18.6982 26.3106 18.6275 26.2476 18.4936C26.2364 18.4708 26.2287 18.4464 26.2245 18.4213C26.2064 18.2593 26.2456 18.0961 26.3352 17.9599C26.3534 17.9245 26.3734 17.8901 26.3952 17.8568C26.4129 17.8217 26.433 17.7878 26.4552 17.7553C26.7958 17.1866 27.2485 16.6931 27.7858 16.3048C28.1195 16.0633 28.5102 15.831 28.6425 15.4403C28.7963 14.9789 28.5256 14.4882 28.5026 14.0006C28.4487 12.9039 29.6362 12.1394 30.7252 12.001C31.8143 11.8625 32.9433 12.0917 34.0046 11.8102C35.5105 11.4134 36.5688 10.0844 37.9362 9.33836C38.6843 8.93837 39.5139 8.71463 40.3617 8.68424C41.2094 8.65385 42.0529 8.81761 42.8277 9.163C44.4243 9.8921 45.6287 11.3657 47.2961 11.9194C47.8868 12.1163 48.5266 12.1948 49.0589 12.5209C49.6741 12.8993 50.0479 13.5607 50.3679 14.2129C50.8555 15.2019 50.9539 16.1956 51.2908 17.2431C51.5584 18.0737 51.9291 19.1597 51.9599 20.1164C51.9772 20.4021 51.9518 20.6888 51.8845 20.967Z" fill="#896363"/>
<g opacity="0.1">
<path d="M26.4122 19.0396C26.4368 18.9412 26.4392 18.8385 26.4193 18.739C26.3993 18.6395 26.3575 18.5457 26.2968 18.4644C26.3368 18.5843 26.163 18.6536 26.2584 18.7535C26.3343 18.8334 26.3875 18.9322 26.4122 19.0396Z" fill="black"/>
<path d="M26.2922 18.1121C26.2741 18.1657 26.2632 18.2216 26.2599 18.2782C26.2891 18.229 26.3291 18.1782 26.2922 18.1121Z" fill="black"/>
<path d="M51.4662 21.3916C50.6555 22.1607 49.2204 21.8423 48.1144 21.6623C47.1567 21.5081 46.2213 21.238 45.3288 20.8578C44.5489 20.5256 43.6168 20.1195 42.9154 20.5964C42.6477 20.7779 42.4632 21.0686 42.1817 21.2285C41.9002 21.3885 41.5449 21.3993 41.2141 21.4024C40.1374 21.4024 39.0607 21.4162 38.0086 21.1716C36.4427 20.8055 34.8214 19.8872 33.3309 20.4918C32.165 20.9671 31.5328 22.2361 31.2175 23.4558C31.0637 24.0542 30.9514 24.6864 30.6022 25.194C30.253 25.7016 29.5808 26.0615 29.0102 25.8246C28.1657 25.4709 28.0411 24.0388 27.0228 23.9665C26.2276 23.9096 26.0061 24.4787 26.0599 25.1109C26.1061 24.6279 26.3676 24.2557 27.0228 24.3018C28.0411 24.3741 28.1657 25.8077 29.0102 26.16C29.5808 26.3984 30.2546 26.04 30.6022 25.5293C30.9498 25.0186 31.0637 24.3895 31.2175 23.7927C31.5328 22.5729 32.165 21.3024 33.3309 20.8286C34.8214 20.2226 36.4427 21.1363 38.0086 21.5085C39.0545 21.7531 40.1405 21.7454 41.2141 21.7377C41.5449 21.7377 41.894 21.7285 42.1817 21.5654C42.4693 21.4024 42.6431 21.1147 42.9154 20.9317C43.6168 20.4564 44.5489 20.8625 45.3288 21.1932C46.2215 21.5731 47.1568 21.8437 48.1144 21.9992C49.2204 22.1776 50.6555 22.4991 51.4662 21.7269C51.9061 21.307 52.0384 20.6994 52.0091 20.0349C51.9845 20.5625 51.8307 21.0409 51.4662 21.3916Z" fill="black"/>
<path d="M28.5564 13.7222C28.5479 13.7988 28.5448 13.8759 28.5472 13.9529C28.5625 14.2728 28.6841 14.5928 28.7225 14.905C28.7794 14.522 28.6025 14.1221 28.5564 13.7222Z" fill="black"/>
<path d="M25.4308 24.6356C25.4435 24.6816 25.4533 24.7283 25.46 24.7756C25.485 24.6169 25.475 24.4547 25.4308 24.3003C25.3391 24.0805 25.2279 23.8695 25.0986 23.6696C24.983 23.4421 24.9145 23.1936 24.8971 22.939C24.8658 23.3065 24.9355 23.6756 25.0986 24.0065C25.2282 24.2056 25.3394 24.4162 25.4308 24.6356Z" fill="black"/>
<path d="M27.3397 30.3237L26.4399 30.3098C26.4608 30.3642 26.4693 30.4226 26.4645 30.4807C26.4597 30.5388 26.4418 30.595 26.4122 30.6452C26.666 30.6452 27.0874 30.6544 27.3351 30.6606C27.3781 30.3973 27.3931 30.1302 27.3797 29.8638C27.3762 30.0178 27.3628 30.1714 27.3397 30.3237Z" fill="black"/>
<path d="M25.8676 29.4732C25.5 29.3625 25.0724 29.3609 24.7986 29.0918C24.6374 28.9155 24.5466 28.6861 24.5433 28.4473C24.5202 28.801 24.5433 29.1825 24.7986 29.4286C25.0724 29.6978 25.5 29.6993 25.8676 29.8101C25.9873 29.8449 26.0985 29.9038 26.1945 29.9831C26.2905 30.0625 26.3693 30.1606 26.426 30.2716C26.5814 29.9532 26.2245 29.5794 25.8676 29.4732Z" fill="black"/>
</g>
<path opacity="0.1" d="M53.8519 98.6268C53.6796 98.5269 53.5043 98.433 53.3258 98.3438C52.9583 98.1585 52.5814 97.9922 52.1968 97.8454C50.4202 97.1686 48.5175 96.9225 46.5886 96.9641C45.8195 97.2579 45.3196 97.4686 45.3196 97.4686L44.3413 97.7639L44.1782 97.8131C44.1675 97.7055 44.1552 97.5978 44.1444 97.4886C44.1336 97.3794 44.1213 97.2748 44.109 97.1671C43.7645 93.9046 43.4937 90.5529 43.4937 90.5529V87.658V87.3212L43.4753 78.7919L43.3215 75.9801L43.2492 74.7357L43.2353 74.4989L43.2076 74.0128L43.1923 73.7236C43.1583 73.632 43.1296 73.5385 43.1061 73.4437C43.0954 73.4052 43.0846 73.3622 43.0754 73.3175C43.0369 73.1637 42.9954 72.9653 42.9523 72.75C42.6708 71.3348 42.3186 68.9491 42.297 68.4646C42.2694 67.8185 41.7095 63.9546 41.7095 63.9546C41.6525 61.8273 39.8636 57.8219 39.4129 57.0666C38.9623 56.3114 38.4593 51.7737 38.6285 51.5291C38.7161 51.3984 38.7731 50.6247 38.8084 49.911C38.8084 49.8295 38.8161 49.7495 38.8192 49.671C38.8423 49.1127 38.853 48.6466 38.853 48.6466L40.6127 48.299L41.085 48.2067L41.1219 48.199L41.1372 48.2297C41.188 48.3236 41.3464 48.6235 41.5326 49.0173C41.5541 49.0588 41.5741 49.1034 41.5956 49.148C41.6049 49.1696 41.6156 49.1911 41.6264 49.2126C41.9709 49.9663 42.3693 50.9585 42.3524 51.5291C42.3247 52.5382 43.4738 54.9747 43.4738 54.9747C43.5845 55.5346 46.021 61.1059 46.021 61.1059C46.021 61.1059 48.0099 66.5664 47.8976 67.4632C47.7853 68.36 48.8497 74.2958 48.8497 74.2958L49.9418 80.4009C50.4725 81.6037 51.1724 84.3756 51.1724 84.3756L51.4385 85.9476L51.4892 86.2475L52.1983 90.4422L52.546 92.4972C52.546 92.4972 52.6921 93.5893 52.9136 94.8045C52.9321 94.9137 52.9536 95.0244 52.9751 95.1352C53.1116 95.9351 53.3054 96.7242 53.555 97.4963C53.6788 97.8662 53.778 98.2439 53.8519 98.6268Z" fill="black"/>
<path d="M54.0426 98.7362C53.9796 98.6993 53.9165 98.6624 53.8519 98.627C53.6796 98.527 53.5043 98.4332 53.3258 98.344C52.9583 98.1587 52.5814 97.9923 52.1968 97.8456C50.4202 97.1688 48.5175 96.9227 46.5886 96.9642C45.8195 97.258 45.3196 97.4687 45.3196 97.4687L44.3413 97.7641C44.329 97.6564 44.3182 97.5487 44.3059 97.4395C44.2936 97.3303 44.2844 97.2426 44.2752 97.1442C43.9306 93.8894 43.6599 90.5531 43.6599 90.5531V87.6305V87.2936L43.6414 78.7859L43.4876 76.1003L43.4568 75.5434L43.4353 75.1666L43.4076 74.6682L43.3799 74.1622L43.3599 73.7976V73.7176C43.3599 73.7099 43.3599 73.7007 43.3492 73.6915C43.3199 73.6084 43.2846 73.4823 43.2461 73.3223L43.2277 73.2454C43.22 73.21 43.2107 73.1716 43.203 73.1331C42.9139 71.821 42.4893 68.9923 42.4663 68.4616C42.4386 67.8156 41.8787 63.9517 41.8787 63.9517C41.8218 61.8244 40.0328 57.8189 39.5822 57.0637C39.1315 56.3084 38.63 51.7708 38.7977 51.5262C38.8946 51.3724 38.9515 50.4387 38.9884 49.6681C38.9884 49.6066 38.9884 49.5466 38.9884 49.4897C39.0084 49.0144 39.0161 48.6437 39.0161 48.6437L40.6527 48.3206L41.068 48.2391L41.1326 48.2268L41.2865 48.196C41.2865 48.196 41.488 48.5683 41.7295 49.0805L41.7602 49.1451C42.1125 49.905 42.5293 50.9386 42.517 51.5262C42.4893 52.5353 43.6383 54.9718 43.6383 54.9718C43.7491 55.5316 46.1856 61.103 46.1856 61.103C46.1856 61.103 48.1745 66.5635 48.0622 67.4603C47.9499 68.357 49.0143 74.2929 49.0143 74.2929L50.1064 80.398C50.6371 81.6008 51.337 84.3726 51.337 84.3726L51.5846 85.837L51.6354 86.1339L52.1937 89.444L52.709 92.4942C52.709 92.4942 52.8628 93.5817 53.0751 94.8015C53.0951 94.9123 53.1151 95.023 53.1366 95.1353C53.2729 95.9388 53.4667 96.7315 53.7165 97.5072C53.8529 97.909 53.9619 98.3196 54.0426 98.7362Z" fill="#63667E"/>
<path d="M52.6552 19.7365C52.6552 19.7365 52.0676 20.4933 51.5369 20.4933C51.0062 20.4933 48.9405 20.4087 47.8637 20.0734C46.787 19.7381 41.5079 19.4843 41.5079 19.4843C41.5079 19.4843 34.0324 19.512 33.7801 19.2597C33.5278 19.0074 29.1317 17.6631 28.6841 17.7477C28.5903 17.7661 28.3611 17.8061 28.055 17.8569L27.7043 17.9138C27.1736 17.9984 26.5106 18.0968 25.9046 18.1691C25.1555 18.2568 24.4972 18.3014 24.288 18.2245V17.58C24.288 17.58 25.1555 16.3187 25.2109 15.9572C25.2662 15.5957 25.9954 10.3551 27.8996 8.48009C28.6863 6.97622 29.9594 5.78334 31.5113 5.09608C34.0877 3.97474 36.6642 3.02414 36.6642 3.02414L37.1149 2.95954L38.5685 2.74419C38.6127 2.70021 38.6605 2.66007 38.7115 2.62421C39.1145 2.31658 40.3359 1.64747 41.9279 3.08567L42.2094 3.53482C42.2094 3.53482 47.1085 4.68231 49.3758 8.6862C51.6431 12.6901 51.7569 16.6109 51.9245 18.4029C51.9245 18.4029 51.8123 18.9074 52.0368 19.1028C52.1181 19.1746 52.1957 19.2506 52.2691 19.3304C52.2891 19.3504 52.3091 19.3704 52.3275 19.392C52.3921 19.4566 52.4521 19.5243 52.5014 19.5796C52.5072 19.584 52.5124 19.5891 52.5167 19.595C52.5288 19.6096 52.5416 19.6235 52.5552 19.6365L52.6552 19.7365Z" fill="#FED253"/>
<path opacity="0.05" d="M52.6551 19.7365C52.6551 19.7365 52.0676 20.4932 51.5369 20.4932C51.0062 20.4932 48.9404 20.4086 47.8637 20.0733C46.787 19.738 41.5079 19.4842 41.5079 19.4842C41.5079 19.4842 34.0323 19.5119 33.7801 19.2596C33.5278 19.0074 29.1317 17.663 28.6841 17.7476C28.5902 17.766 28.361 17.806 28.0549 17.8568L27.975 17.3646L27.955 17.2431C27.955 17.2431 36.4396 15.4234 42.0955 16.3771C47.7514 17.3307 51.9245 18.3921 51.9245 18.3921C51.9245 18.3921 51.8122 18.8966 52.0368 19.092C52.1181 19.1638 52.1956 19.2398 52.2691 19.3196C52.2891 19.3396 52.309 19.3596 52.3275 19.3811C52.3921 19.4457 52.4521 19.5134 52.5013 19.5688C52.5072 19.5731 52.5124 19.5783 52.5167 19.5842C52.5287 19.5987 52.5416 19.6126 52.5552 19.6257L52.6551 19.7365Z" fill="black"/>
<path opacity="0.1" d="M51.8846 20.9671C50.8371 21.0486 48.9066 20.7933 48.0622 20.6687C47.8222 20.6333 47.5869 20.5902 47.35 20.5379C46.444 20.341 43.6583 19.7888 41.9663 20.0442C39.9221 20.3518 34.1539 19.7919 34.1539 19.7919C34.1539 19.7919 30.5976 19.0644 29.1686 18.4768C28.6441 18.2599 27.7673 18.1922 26.8952 18.2999C26.6728 18.3276 26.452 18.3671 26.2338 18.4183C25.0432 18.6998 24.0388 19.3412 24.2126 20.4349C24.1461 20.3551 24.0844 20.2714 24.028 20.1841C23.9526 19.1843 24.2634 18.5891 24.6941 18.2383L24.7956 18.1968C25.3217 18.0473 25.8571 17.9327 26.3984 17.8538C26.483 17.84 26.5706 17.8276 26.6599 17.8169C28.1903 17.6108 30.4038 17.5646 32.2712 18.5045C32.2712 18.5045 34.0062 19.3182 35.1829 19.3182C36.3597 19.3182 45.9349 19.4028 48.176 20.0457C48.6221 20.1746 49.0771 20.2707 49.5373 20.3334C50.3544 20.4387 51.1846 20.3604 51.9676 20.1042C51.9836 20.3943 51.9556 20.6853 51.8846 20.9671Z" fill="black"/>
<path opacity="0.1" d="M52.6552 19.7365C52.6552 19.7365 52.0676 20.4932 51.5369 20.4932C51.0062 20.4932 48.9405 20.4086 47.8637 20.0733C46.787 19.738 41.5079 19.4842 41.5079 19.4842C41.5079 19.4842 34.0324 19.5119 33.7801 19.2596C33.5278 19.0074 29.1317 17.663 28.6841 17.7476C28.5903 17.766 28.3611 17.806 28.055 17.8568L27.7043 17.9137C27.0951 17.9106 26.4888 17.9966 25.9046 18.169C25.1555 18.2567 24.4972 18.3013 24.288 18.2244V18.0967C24.4492 18.0031 24.6174 17.9219 24.791 17.8537C25.8289 17.5631 26.8978 17.3968 27.975 17.3584C29.3178 17.3092 30.8883 17.4661 32.2681 18.1613C32.2681 18.1613 34.0031 18.975 35.1799 18.975C36.3566 18.975 45.9318 19.0581 48.1729 19.7026C48.6193 19.8303 49.0742 19.9259 49.5342 19.9887C50.5436 20.1159 51.5686 19.9687 52.5014 19.5626C52.5072 19.567 52.5124 19.5721 52.5167 19.578C52.5288 19.5926 52.5416 19.6064 52.5552 19.6195L52.6552 19.7365Z" fill="black"/>
<path d="M24.2341 20.4085C24.2341 20.4085 22.3575 18.9796 24.794 18.0274C24.794 18.0274 29.0502 16.7123 32.2711 18.3351C32.2711 18.3351 34.0062 19.1457 35.1829 19.1457C36.3596 19.1457 45.9348 19.2303 48.176 19.8748C48.6223 20.0026 49.0772 20.0983 49.5373 20.1609C50.7296 20.3055 51.9374 20.0759 52.9936 19.5041C53.1474 19.4195 53.2858 19.3764 53.3273 19.4256C53.4673 19.5948 53.3566 20.5747 52.1245 20.77C51.1631 20.9238 48.9789 20.6331 48.0606 20.4993C47.8222 20.4639 47.5853 20.4193 47.35 20.3685C46.444 20.1717 43.6583 19.6194 41.9586 19.8748C39.9159 20.1824 34.1462 19.6225 34.1462 19.6225C34.1462 19.6225 30.5914 18.895 29.1624 18.3058C27.7335 17.7167 23.7019 18.2243 24.2341 20.4085Z" fill="#FED253"/>
<path opacity="0.1" d="M40.0544 5.39449C39.9006 5.17299 37.924 3.5902 37.118 2.95031L38.5716 2.73497C38.6158 2.69098 38.6636 2.65084 38.7146 2.61499C39.7713 3.72402 40.0544 5.39449 40.0544 5.39449Z" fill="black"/>
<path opacity="0.1" d="M33.6432 13.8836L32.9987 14.8357L35.4629 14.7527L35.5183 13.6882L33.6432 13.8836Z" fill="black"/>
<path opacity="0.1" d="M48.679 15.0327L48.9589 15.9003L50.5279 16.1525L49.8557 15.1158L48.679 15.0327Z" fill="black"/>
<path opacity="0.1" d="M21.7422 44.1567C21.9099 44.4367 27.4258 51.6938 28.8825 51.4923C30.3392 51.2908 21.7422 44.1567 21.7422 44.1567Z" fill="black"/>
<path opacity="0.1" d="M40.2236 50.7893C40.2236 50.7893 41.5679 52.0783 41.3711 52.5813C41.1742 53.0843 40.2236 50.7893 40.2236 50.7893Z" fill="black"/>
<path opacity="0.1" d="M25.5508 59.6384C25.5508 59.6384 24.3741 65.1544 24.9909 65.3297C25.6077 65.5051 25.5508 59.6384 25.5508 59.6384Z" fill="black"/>
<path opacity="0.1" d="M40.6711 81.0593C40.8665 81.6192 42.4908 85.2601 42.8554 85.4555C43.2199 85.6508 40.6711 81.0593 40.6711 81.0593Z" fill="black"/>
<path opacity="0.1" d="M59.5447 66.1067C59.4878 66.302 58.0881 67.4511 58.3957 67.871C58.7033 68.2909 59.5447 66.1067 59.5447 66.1067Z" fill="black"/>
<path opacity="0.1" d="M48.679 76.3264C48.6513 76.4679 48.3713 79.4028 48.9036 79.9673C49.4358 80.5318 48.679 76.3264 48.679 76.3264Z" fill="black"/>
<path opacity="0.1" d="M63.0271 91.5728C62.6211 91.7989 62.2011 92.0173 61.7735 92.2265C61.3121 92.4511 60.8506 92.6649 60.3799 92.8664C60.1923 92.9479 60.0046 93.0279 59.8185 93.1048C59.5355 93.2217 59.2555 93.334 58.9786 93.4416C58.1372 93.7708 57.3266 94.0569 56.6052 94.2984C56.3253 94.3922 56.0576 94.4784 55.8084 94.5584C54.5533 94.9568 53.7196 95.1736 53.7196 95.1736C53.5291 95.1329 53.3342 95.1169 53.1397 95.126C53.0858 95.126 53.0305 95.126 52.9736 95.126C52.7131 95.1449 52.4538 95.1777 52.1968 95.2244C50.4786 95.532 48.0514 96.395 46.5885 96.9595C45.8195 97.2533 45.3195 97.464 45.3195 97.464L44.3413 97.7593L44.1782 97.8086C43.1184 98.1316 41.6279 98.59 41.0911 98.7807C40.2235 99.0883 32.691 100.656 32.691 100.656C32.0029 100.844 31.3 100.972 30.5899 101.04C28.8401 101.201 27.0814 101.241 25.3262 101.16C23.5635 101.274 20.7117 100.886 19.052 100.625L18.7874 100.583C18.146 100.479 17.7383 100.403 17.7383 100.403L17.9537 100.107L22.3698 94.0139L22.396 93.9769L26.5106 88.3026L26.6644 88.0965L27.0382 87.5812C27.0382 87.5812 27.2628 87.2735 28.1272 87.2535C28.2288 87.2535 28.3395 87.2535 28.461 87.2535C29.1872 87.3119 29.9035 87.4581 30.5945 87.6888L30.7945 87.7488C33.7739 88.6025 38.3793 88.3887 38.3793 88.3887C38.3793 88.3887 41.2449 87.9273 43.4968 87.6504L43.6645 87.6288C44.4003 87.5249 45.1413 87.4607 45.8841 87.4366C47.2561 87.4643 50.2248 86.7367 50.2248 86.7367C50.8632 86.5998 51.1323 86.4844 51.4923 86.2276C51.54 86.1937 51.5907 86.1568 51.6461 86.1168C51.7999 86.0014 51.9768 85.8599 52.2045 85.6846C52.6198 85.3662 53.2027 84.9339 54.1195 84.3279C54.1995 84.2756 54.2841 84.2233 54.3748 84.1741C54.4656 84.1249 54.581 84.0587 54.6917 84.0033C55.5795 83.5829 56.5156 83.2729 57.4789 83.0804C58.278 82.9087 59.0888 82.7971 59.9046 82.7466H60.0261C62.3334 82.6236 64.6899 83.0189 66.0681 84.3156C66.3091 84.5435 66.5191 84.8021 66.6926 85.0847C66.7769 85.2189 66.8519 85.3587 66.9172 85.5031C67.0429 85.7785 67.1364 86.0676 67.1956 86.3645C67.2069 86.4198 67.2161 86.4752 67.2233 86.5306C67.2233 86.5475 67.2233 86.5629 67.2233 86.5798C67.2233 86.6244 67.2325 86.669 67.2356 86.7136C67.3587 88.5548 65.4482 90.2192 63.0271 91.5728Z" fill="black"/>
<path d="M17.7383 100.073C17.7383 100.073 22.7221 100.996 25.3262 100.828C25.3262 100.828 30.1146 101.08 32.691 100.325C32.691 100.325 40.2282 98.7561 41.0911 98.4484C41.954 98.1408 45.3195 97.1318 45.3195 97.1318C45.3195 97.1318 51.8722 94.3876 53.7196 94.8352C53.7196 94.8352 68.2247 91.0836 67.1879 86.0153C66.1512 80.947 56.9959 82.096 54.1134 83.9987C51.2308 85.9015 51.6523 86.0999 50.2217 86.4075C50.2217 86.4075 47.253 87.1351 45.881 87.1074C44.5089 87.0797 38.3762 88.0595 38.3762 88.0595C38.3762 88.0595 33.5601 88.2841 30.593 87.3597C27.6258 86.4352 27.0367 87.2474 27.0367 87.2474L17.7383 100.073Z" fill="#FFA2A2"/>
<path opacity="0.1" d="M28.5457 86.9183C28.5464 86.9244 28.5464 86.9306 28.5457 86.9368C28.5349 87.0511 28.5053 87.1629 28.458 87.2675C27.8673 88.7165 24.5141 92.625 24.5141 92.625C24.3612 93.0893 24.1767 93.5426 23.9619 93.9817C23.4998 94.9202 22.9676 95.8226 22.3698 96.6812C21.4837 97.9656 20.5163 99.192 19.4734 100.353H19.4657C19.333 100.451 19.1949 100.542 19.052 100.625C18.6905 100.84 18.1475 101.107 17.6353 101.139C17.5481 101.144 17.4606 101.141 17.3738 101.131C17.4277 101.131 17.4799 101.119 17.5276 101.11L17.34 101.054L17.0831 100.974C16.6524 100.839 16.2253 100.691 15.8018 100.53L15.5449 100.431C15.1347 100.273 14.7333 100.104 14.3405 99.9221L14.0836 99.8052C13.6735 99.6145 13.272 99.413 12.8792 99.2007C12.7377 99.1269 12.5977 99.0469 12.4593 98.9715C12.0409 98.7377 11.6307 98.4926 11.2288 98.2363C10.8022 97.9645 10.3848 97.681 9.97668 97.3857C9.66905 96.815 9.41524 96.3089 9.27681 96.0367C9.02455 95.5306 9.00301 94.8061 9.03377 94.2816C9.03377 94.2278 9.03377 94.177 9.043 94.1278C9.06915 93.7986 9.10915 93.5725 9.10915 93.5725C8.88122 93.2678 8.6756 92.947 8.49387 92.6127C8.38947 92.4467 8.33009 92.2564 8.32159 92.0605C8.32855 91.9819 8.32126 91.9027 8.30006 91.8267C8.18162 91.3406 7.67248 90.5054 7.2018 89.9808C6.85109 89.5948 6.82955 88.1519 6.86339 87.129C6.88339 86.5138 6.92185 86.0615 6.92185 86.0615C6.85292 86.0171 6.80134 85.9503 6.77572 85.8723C6.65203 85.5357 6.5684 85.1857 6.52653 84.8295C6.52653 84.7787 6.51269 84.7279 6.505 84.6756C6.40655 83.9696 6.36195 83.2605 6.36195 83.2605C5.22369 82.4314 4.68225 81.1378 4.42998 79.9842L4.39768 79.8304C4.25914 79.1213 4.20033 78.399 4.22233 77.6769C4.22233 77.6077 4.22233 77.5554 4.22233 77.5231C4.22233 77.4908 4.22233 77.4846 4.22233 77.4846C4.22233 77.4846 4.37307 74.1514 4.79454 72.8501C4.81146 72.7947 4.82991 72.7439 4.84837 72.6962C4.87942 72.6145 4.91967 72.5366 4.96835 72.464C5.12217 72.2594 5.23138 71.8733 5.32213 71.4165C5.3852 71.0996 5.4375 70.7474 5.47595 70.3967C5.51133 70.1044 5.53902 69.8137 5.56055 69.5445C5.62054 68.8246 5.639 68.2632 5.639 68.2632L5.35443 66.8604C5.27599 66.4774 5.216 66.0913 5.17447 65.7052C5.17447 65.6544 5.16216 65.6037 5.15601 65.5514C5.08407 64.8384 5.07121 64.1207 5.11755 63.4056C5.11755 63.3533 5.11755 63.3026 5.12678 63.2518C5.24689 61.623 5.6727 60.0315 6.38194 58.5603L6.45885 58.4065C6.5614 58.2014 6.66907 57.9999 6.78187 57.802C6.86339 57.6559 6.94953 57.5113 7.03875 57.3682C7.27525 56.9852 7.53198 56.615 7.80784 56.2592C7.84783 56.2069 7.88936 56.1561 7.9309 56.1054C8.41087 55.5103 8.94428 54.9604 9.52446 54.4626C11.078 53.1275 12.5039 52.5476 13.7991 52.503C19.4627 52.303 22.639 62.3196 23.1528 64.0747C23.202 64.2439 23.2266 64.3362 23.2266 64.3362C23.2266 64.3362 25.5216 66.6327 24.8494 67.6402C24.7191 67.862 24.6397 68.11 24.6171 68.3663C24.4325 69.7214 24.9617 71.9533 24.9617 71.9533C24.9617 71.9533 25.1493 72.5686 25.6969 74.0422L25.8584 74.4729C26.2015 75.3958 26.2814 76.9447 26.0846 78.3322C25.8954 79.6612 25.4508 80.8363 24.7386 81.1378C23.282 81.7531 23.6742 82.3684 24.0095 82.8744C24.2088 83.2372 24.3751 83.6171 24.5064 84.0096C24.7171 84.5772 24.9125 85.174 24.9863 85.4063C25.0078 85.4709 25.0186 85.5063 25.0186 85.5063C25.2226 85.4273 25.4346 85.3705 25.6508 85.3371C25.9261 85.2986 26.1984 85.3263 26.2507 85.5616C26.2784 85.6878 26.4368 85.837 26.6598 85.9862C27.3213 86.4415 28.5457 86.9183 28.5457 86.9183Z" fill="black"/>
<path d="M28.2103 86.9183C28.2009 87.0353 28.1713 87.1498 28.1227 87.2567C27.5351 88.7072 24.1788 92.6249 24.1788 92.6249C24.0252 93.089 23.8407 93.5422 23.6266 93.9816C23.2554 94.7396 22.8356 95.4728 22.3699 96.1766C21.4056 97.6311 20.3374 99.014 19.1735 100.314L19.1381 100.353C19.1381 100.353 19.0028 100.456 18.7874 100.588C18.4026 100.834 17.9786 101.012 17.5338 101.114L17.3461 101.059L17.0893 100.979C16.6586 100.843 16.2315 100.695 15.808 100.534L15.5511 100.436C15.1409 100.278 14.7394 100.108 14.3467 99.9267L14.0898 99.8098C13.6796 99.6191 13.2782 99.4176 12.8854 99.2053C12.7439 99.1315 12.6039 99.0515 12.4655 98.9761C12.0471 98.7423 11.6369 98.4972 11.2349 98.2408C10.8083 97.9691 10.391 97.6856 9.98285 97.3902C9.79417 97.2549 9.60753 97.1159 9.42295 96.9734C9.2153 96.5796 9.04917 96.2474 8.94611 96.0412C8.69385 95.5352 8.67232 94.8107 8.70308 94.2862C8.70308 94.2323 8.70308 94.1816 8.71231 94.1324C8.73846 93.8032 8.77845 93.5771 8.77845 93.5771C8.77845 93.5771 8.65386 93.4094 8.50312 93.1817C8.41852 93.0556 8.32776 92.9095 8.24624 92.7649C8.09242 92.4942 7.97244 92.2204 7.99552 92.065C7.99864 92.0385 7.99864 92.0116 7.99552 91.985C7.99321 91.9331 7.98547 91.8816 7.97244 91.8312C7.854 91.3452 7.34333 90.5099 6.87264 89.9854C6.52194 89.5993 6.5004 88.1565 6.5327 87.1336C6.5327 87.0813 6.5327 87.0306 6.5327 86.9798C6.55424 86.4491 6.58654 86.0661 6.58654 86.0661C6.41272 85.9907 6.2789 85.4324 6.19276 84.8356L6.16969 84.6817C6.07125 83.9757 6.02664 83.2666 6.02664 83.2666C4.88838 82.4375 4.34694 81.1439 4.09622 79.9903C3.92154 79.1823 3.85431 78.3548 3.89625 77.5292C3.89625 77.5046 3.89625 77.4907 3.89625 77.4907C3.89625 77.4907 4.02854 74.1406 4.45 72.8377C4.46692 72.7823 4.48538 72.7316 4.50384 72.6839C4.54075 72.6041 4.58668 72.5287 4.64073 72.4593C4.87454 72.1332 5.0299 71.3487 5.13142 70.5458L5.14987 70.392C5.27754 69.3153 5.31292 68.2585 5.31292 68.2585L5.02682 66.8557C4.94888 66.4712 4.88889 66.0861 4.84685 65.7005C4.83916 65.6498 4.83455 65.5975 4.82839 65.5467C4.75647 64.8337 4.7436 64.116 4.78994 63.4009C4.78994 63.3486 4.78994 63.2979 4.80071 63.2471C4.92008 61.6182 5.34592 60.0265 6.05586 58.5557C6.08047 58.5034 6.10509 58.4526 6.13277 58.4018C6.33055 58.0023 6.55033 57.6141 6.79112 57.239C6.87418 57.1082 6.95878 56.979 7.04799 56.8513C7.18797 56.6483 7.3341 56.4483 7.48638 56.2545L7.60943 56.1007C8.0853 55.5079 8.61405 54.9596 9.18915 54.4625C10.8812 53.012 12.4193 52.4521 13.8037 52.5029C19.2566 52.6983 22.3176 62.355 22.8205 64.0747C22.8698 64.2439 22.8944 64.3362 22.8944 64.3362C22.8944 64.3362 25.1909 66.6327 24.5187 67.6402C24.3884 67.862 24.309 68.11 24.2864 68.3662C24.1003 69.7214 24.631 71.9533 24.631 71.9533C24.631 71.9533 24.8187 72.5685 25.3662 74.0421C25.4155 74.179 25.4693 74.3221 25.5201 74.4728C25.8631 75.3957 25.9431 76.9447 25.7462 78.3321C25.557 79.6626 25.114 80.8363 24.4003 81.1378C22.9451 81.753 23.3358 82.3683 23.6727 82.8744C23.872 83.2371 24.0382 83.6171 24.1695 84.0096C24.4356 84.734 24.6802 85.5062 24.6802 85.5062C24.7809 85.4674 24.8836 85.434 24.9879 85.4062C25.2018 85.3359 25.4284 85.3122 25.6523 85.337C25.7143 85.3418 25.7731 85.3661 25.8204 85.4065C25.8677 85.4468 25.9009 85.5011 25.9154 85.5616C25.9569 85.7462 26.2753 85.9754 26.6614 86.1922C27.1627 86.4651 27.68 86.7075 28.2103 86.9183Z" fill="#CED7E7"/>
<path opacity="0.1" d="M7.96472 72.1271C8.49693 72.0994 14.2098 69.8875 15.3865 70.6428C16.5632 71.398 23.8465 76.2987 23.8465 76.2987C23.8465 76.2987 19.2827 70.3351 15.3065 68.9354C11.3303 67.5356 7.96472 72.1271 7.96472 72.1271Z" fill="black"/>
<path opacity="0.1" d="M16.1771 81.1438C16.1771 81.1438 21.8899 82.2913 22.7575 83.0758L16.1771 81.1438Z" fill="black"/>
<path opacity="0.1" d="M15.0773 89.687C14.9942 89.7716 12.9238 94.4185 13.0899 94.4185C13.2561 94.4185 15.0219 91.6497 15.0219 91.6497L15.0773 89.687Z" fill="black"/>
<path opacity="0.1" d="M18.9704 84.1111C18.9704 84.1111 17.2907 84.7002 17.4861 84.7556C17.6814 84.811 18.9135 84.3633 18.9704 84.1111Z" fill="black"/>
<path opacity="0.1" d="M17.2908 91.1406C17.5707 91.7282 18.4659 93.4925 18.6628 93.2126C18.8597 92.9326 17.2908 91.1406 17.2908 91.1406Z" fill="black"/>
<path opacity="0.1" d="M38.2593 44.5674L38.0193 44.9089C38.0193 44.9089 36.1135 43.566 35.3306 42.8938C34.5476 42.2217 32.6987 45.3011 31.2421 46.141C29.7854 46.9808 27.3228 47.2054 27.3228 47.2054C27.3228 47.2054 25.4185 45.3011 25.4769 44.7443C25.5354 44.1875 24.5817 44.0167 24.5248 43.6245C24.4679 43.2323 24.1326 42.1125 23.685 41.5526C23.4481 41.2572 23.4142 40.3328 23.4358 39.5283C23.5896 39.4975 23.685 39.4806 23.685 39.4806C23.924 39.0462 24.2263 38.6496 24.5817 38.3039C25.0862 37.8563 25.8692 35.1122 25.8692 35.1122C26.3168 33.6001 27.212 34.0477 27.212 34.0477C27.212 36.3443 29.5654 37.1841 30.7406 38.1362C31.9158 39.0884 33.7647 41.5526 35.2214 42.0571C36.4165 42.4647 37.8147 44.0413 38.2593 44.5674Z" fill="black"/>
<path d="M38.2593 44.2305L38.0193 44.5735C38.0193 44.5735 36.1058 43.2337 35.3229 42.5569C34.5399 41.8801 32.691 44.9642 31.2344 45.8041C29.7777 46.6439 27.3151 46.87 27.3151 46.87C27.3151 46.87 25.4108 44.9642 25.4693 44.4089C25.5277 43.8536 24.574 43.6814 24.5171 43.2876C24.4602 42.8938 24.1249 41.7755 23.6773 41.2156C23.4404 40.9203 23.4066 39.9959 23.4281 39.1914L23.6773 39.1453C23.9163 38.7108 24.2186 38.3143 24.574 37.9685C25.0786 37.5194 25.8615 34.7768 25.8615 34.7768C26.3091 33.2648 27.2043 33.7108 27.2043 33.7108C27.2043 36.0074 29.5578 36.8487 30.7329 37.8009C31.9081 38.753 33.757 41.2156 35.2137 41.7202C36.4165 42.1339 37.8147 43.7044 38.2593 44.2305Z" fill="#CED7E7"/>
<path opacity="0.1" d="M38.4023 44.6859C38.4023 44.6859 36.7518 45.5811 35.4628 45.6657C35.2941 45.6736 35.125 45.6638 34.9583 45.6365C34.9583 45.6365 36.3811 44.5736 37.7024 44.3567L38.4023 44.6859Z" fill="black"/>
<path opacity="0.1" d="M41.7632 49.2497C41.7632 49.2497 39.6821 48.4391 38.9945 49.6589C39.0176 49.099 39.0268 48.6345 39.0268 48.6345L41.2956 48.1853C41.2956 48.1853 41.5141 48.5898 41.7694 49.1344C41.7632 49.2067 41.7632 49.2497 41.7632 49.2497Z" fill="black"/>
<path d="M34.9583 45.6364C34.9583 45.6364 37.4517 44.1397 38.65 44.2658C39.9067 44.3966 42.3416 44.4889 42.3416 44.4889C42.3416 44.4889 41.5018 46.3932 41.614 46.7854C41.7263 47.1776 41.754 49.0819 41.754 49.0819C41.754 49.0819 39.2345 48.1021 38.8145 49.9218C38.8145 49.9218 37.4425 47.8775 36.518 47.2607C35.9046 46.8175 35.3762 46.2673 34.9583 45.6364Z" fill="#63667E"/>
<path opacity="0.1" d="M49.0435 47.3746C48.3159 47.3746 45.7395 45.7487 45.1796 44.6858C44.6197 43.6229 43.8352 44.7966 43.1076 45.1903C42.6462 45.4426 40.8173 44.915 39.8313 44.532C40.3312 44.1921 41.4387 43.2353 41.7633 43.0061C42.154 42.7246 42.5477 38.1885 42.5477 38.1885C43.9475 37.461 45.4595 44.069 45.4595 44.069C45.4595 44.069 48.0929 44.8535 48.3159 45.4134C48.359 45.5241 48.5574 45.721 48.8558 45.9594C49.1635 46.7347 49.3327 47.3746 49.0435 47.3746Z" fill="black"/>
<path d="M49.0435 47.0377C48.316 47.0377 45.7395 45.4134 45.1796 44.3505C44.6197 43.2876 43.8352 44.4612 43.1077 44.8535C42.6462 45.1057 41.1803 44.6181 40.1943 44.2382C40.6942 43.8998 41.4387 42.903 41.7633 42.6723C42.154 42.3924 42.5478 37.8562 42.5478 37.8562C43.9475 37.1287 45.4595 43.7367 45.4595 43.7367C45.4595 43.7367 48.0929 44.5212 48.316 45.0811C48.359 45.1919 48.5574 45.3887 48.8559 45.6272C49.1635 46.3978 49.3327 47.0377 49.0435 47.0377Z" fill="#CED7E7"/>
<path d="M58.994 96.1013L83.345 75.7972C83.588 75.5919 83.8976 75.4825 84.2156 75.4896L93.3002 75.728C93.3002 75.728 93.9293 76.1894 93.0064 77.1985L70.0351 96.049C69.7869 96.2519 69.4788 96.3676 69.1583 96.3781L59.2247 96.7073C59.1534 96.7095 59.0832 96.6895 59.0238 96.6499C58.9644 96.6103 58.9188 96.5532 58.8934 96.4865C58.868 96.4198 58.8641 96.3468 58.8821 96.2778C58.9001 96.2087 58.9393 96.147 58.994 96.1013Z" fill="#2962FF"/>
<path d="M70.7734 93.6031C70.7734 93.6031 76.0925 101.22 82.0022 94.1353C87.9119 87.0504 86.203 83.328 84.411 83.1311C82.619 82.9342 72.5362 90.6913 70.7734 93.6031Z" fill="#FFA2A2"/>
<path opacity="0.1" d="M106.649 8.40929C106.649 8.40929 113.504 -4.89601 121.607 1.96583C121.607 1.96583 123.376 2.61033 123.243 4.48076C123.243 4.48076 122.561 4.10698 122.02 5.53596C121.821 6.043 121.563 6.52472 121.251 6.97109C120.836 7.57408 120.237 8.02635 119.543 8.26009C119.543 8.26009 115.907 10.9842 109.171 8.88305C109.171 8.88305 107.267 9.15685 106.959 8.91997L109.173 7.3018C109.173 7.3018 110.297 8.97073 111.941 9.16146C111.941 9.16146 109.173 7.42331 109.49 7.04646C109.554 6.96955 110.702 6.24199 110.702 6.24199C110.702 6.24199 112.669 9.13531 115.219 9.34912C115.219 9.34912 111.646 7.72018 111.134 5.96511L112.929 4.96375C112.929 4.96375 114.858 8.12473 117.754 8.47851C117.754 8.47851 114.078 6.64653 113.337 4.77148L115.236 4.03008C115.236 4.03008 117.179 7.07568 119.589 7.35409C119.589 7.35409 115.556 4.8084 115.682 3.88856C115.682 3.88856 117.468 3.31328 118.016 3.38865C118.016 3.38865 119.46 5.54211 120.875 5.58057C120.875 5.58057 118.36 3.59323 118.526 3.28713C118.526 3.28713 121.052 3.15639 122.372 3.76705C122.372 3.76705 120.495 2.72262 118.526 2.89182C118.526 2.89182 119.417 1.84431 120.578 1.61359C120.578 1.61359 119.186 1.04138 117.914 2.93027C117.914 2.93027 115.95 3.11024 115.707 3.32866C115.707 3.32866 116.701 1.28595 117.923 0.416878C117.923 0.416878 116.101 0.73836 115.198 3.50709L113.272 4.21004C113.272 4.21004 114.443 1.44131 115.475 0.586079C115.475 0.586079 113.666 1.20135 112.801 4.43154L111.029 5.39445C111.029 5.39445 111.855 2.93335 112.798 1.73203C112.798 1.73203 111.243 2.66417 110.531 5.68824L109.423 6.4681C109.423 6.4681 110.059 4.68073 110.288 4.18389C110.517 3.68706 110.402 3.584 110.402 3.584C109.632 4.49417 109.13 5.60016 108.951 6.77881C108.951 6.77881 106.776 8.53234 106.649 8.40929Z" fill="#2962FF"/>
<path opacity="0.1" d="M135.002 15.5248C135.002 15.5248 138.1 9.51203 141.761 12.613C141.761 12.613 142.561 12.9037 142.499 13.7482C142.499 13.7482 142.191 13.5805 141.947 14.2266C141.858 14.4554 141.743 14.6728 141.602 14.8741C141.415 15.1459 141.145 15.3503 140.833 15.4571C140.833 15.4571 139.189 16.6877 136.145 15.7386C136.145 15.7386 135.285 15.8617 135.147 15.7555L136.146 15.0234C136.146 15.0234 136.654 15.7786 137.398 15.8632C137.398 15.8632 136.149 15.0787 136.291 14.908C136.319 14.8741 136.837 14.545 136.837 14.545C136.837 14.545 137.726 15.8524 138.88 15.9493C138.88 15.9493 137.265 15.2125 137.034 14.4112L137.846 13.9605C137.846 13.9605 138.717 15.3894 140.026 15.5494C140.026 15.5494 138.364 14.7219 138.026 13.8743L138.884 13.539C138.884 13.539 139.761 14.9157 140.85 15.0418C140.85 15.0418 139.027 13.8912 139.086 13.4759C139.086 13.4759 139.892 13.216 140.139 13.2498C140.139 13.2498 140.792 14.2235 141.432 14.2389C141.432 14.2389 140.295 13.3421 140.37 13.2037C140.37 13.2037 141.512 13.1452 142.105 13.4206C142.105 13.4206 141.258 12.9483 140.37 13.0252C140.615 12.7468 140.936 12.5458 141.293 12.4469C141.293 12.4469 140.664 12.1885 140.089 13.0422C140.089 13.0422 139.201 13.1237 139.092 13.2221C139.092 13.2221 139.541 12.2992 140.093 11.907C140.093 11.907 139.269 12.0516 138.863 13.3037L138.001 13.6267C138.001 13.6267 138.529 12.3761 138.997 11.9885C138.997 11.9885 138.178 12.2669 137.788 13.7251L136.988 14.1589C136.988 14.1589 137.36 13.0452 137.786 12.5038C137.786 12.5038 137.083 12.9253 136.763 14.2912L136.262 14.6434C136.262 14.6434 136.549 13.8359 136.652 13.6113C136.755 13.3867 136.703 13.3406 136.703 13.3406C136.355 13.7533 136.128 14.2543 136.048 14.788C136.048 14.788 135.056 15.5802 135.002 15.5248Z" fill="#2962FF"/>
<path opacity="0.1" d="M101.434 22.5206C101.434 22.5206 104.532 16.5079 108.202 19.6089C108.202 19.6089 109 19.8996 108.94 20.7456C108.94 20.7456 108.633 20.5764 108.388 21.2224C108.299 21.451 108.183 21.6683 108.044 21.87C107.854 22.1431 107.582 22.3476 107.267 22.453C107.267 22.453 105.624 23.6835 102.58 22.7345C102.58 22.7345 101.72 22.859 101.582 22.7514L102.582 22.0192C102.582 22.0192 103.089 22.7744 103.832 22.8606C103.832 22.8606 102.583 22.0746 102.725 21.9038C102.754 21.87 103.272 21.5408 103.272 21.5408C103.272 21.5408 104.161 22.8483 105.313 22.9452C105.313 22.9452 103.7 22.2084 103.468 21.407L104.28 20.9579C104.28 20.9579 105.152 22.3853 106.461 22.5453C106.461 22.5453 104.8 21.7177 104.461 20.8702L105.32 20.5348C105.32 20.5348 106.198 21.9115 107.287 22.0377C107.287 22.0377 105.464 20.8871 105.521 20.4718C105.521 20.4718 106.329 20.2118 106.576 20.2457C106.576 20.2457 107.228 21.2193 107.868 21.2363C107.868 21.2363 106.732 20.338 106.807 20.1995C106.807 20.1995 107.947 20.1411 108.542 20.4164C108.542 20.4164 107.693 19.9442 106.805 20.0211C107.05 19.7426 107.371 19.5416 107.728 19.4427C107.728 19.4427 107.101 19.1843 106.525 20.038C106.525 20.038 105.638 20.1195 105.529 20.218C105.529 20.218 105.976 19.2951 106.53 18.9028C106.53 18.9028 105.706 19.0474 105.3 20.2995L104.427 20.6225C104.427 20.6225 104.957 19.372 105.423 18.9859C105.423 18.9859 104.606 19.2628 104.215 20.721L103.414 21.1547C103.414 21.1547 103.788 20.0411 104.214 19.4997C104.214 19.4997 103.511 19.9211 103.189 21.287L102.688 21.6393C102.688 21.6393 102.975 20.8317 103.078 20.6071C103.181 20.3826 103.131 20.3364 103.131 20.3364C102.782 20.7487 102.555 21.2499 102.475 21.7839C102.475 21.7839 101.488 22.576 101.434 22.5206Z" fill="#2962FF"/>
</g>
<defs>
<clipPath id="clip0_995_4787">
<rect width="164.946" height="120" fill="white"/>
</clipPath>
</defs>
</svg>
