<svg width="496" height="300" viewBox="0 0 496 300" fill="none" xmlns="http://www.w3.org/2000/svg">
<g clip-path="url(#clip0_610_3537)">
<path d="M41.4122 65.0866C55.5052 65.0866 66.9298 53.6619 66.9298 39.5689C66.9298 25.4759 55.5052 14.0513 41.4122 14.0513C27.3192 14.0513 15.8945 25.4759 15.8945 39.5689C15.8945 53.6619 27.3192 65.0866 41.4122 65.0866Z" fill="#AA00FA"/>
<path d="M246.722 300C382.751 300 493.025 295.53 493.025 290.015C493.025 284.5 382.751 280.03 246.722 280.03C110.693 280.03 0.419434 284.5 0.419434 290.015C0.419434 295.53 110.693 300 246.722 300Z" fill="#2962FF" fill-opacity="0.1"/>
<path d="M63.1041 164.877C97.7239 164.877 125.789 136.812 125.789 102.192C125.789 67.5727 97.7239 39.5078 63.1041 39.5078C28.4843 39.5078 0.419434 67.5727 0.419434 102.192C0.419434 136.812 28.4843 164.877 63.1041 164.877Z" fill="#2962FF"/>
<path d="M69.1464 291.001H56.3071L62.1601 92.7515L69.1464 291.001Z" fill="#3F3D56"/>
<path d="M63.2929 130.325L77.0763 111.255L63.1043 135.045L61.5938 132.402L63.2929 130.325Z" fill="#3F3D56"/>
<path d="M61.7824 149.584L47.9995 130.514L61.9715 154.304L63.4821 151.661L61.7824 149.584Z" fill="#3F3D56"/>
<path d="M459.463 291.21H446.624L452.477 92.9604L459.463 291.21Z" fill="#3F3D56"/>
<path d="M453.61 130.533L467.393 111.464L453.421 135.254L451.911 132.61L453.61 130.533Z" fill="#3F3D56"/>
<path d="M452.099 149.792L438.316 130.723L452.288 154.512L453.799 151.869L452.099 149.792Z" fill="#3F3D56"/>
<path d="M255.072 291.177C319.564 291.177 371.845 238.896 371.845 174.404C371.845 109.912 319.564 57.6309 255.072 57.6309C190.58 57.6309 138.299 109.912 138.299 174.404C138.299 238.896 190.58 291.177 255.072 291.177Z" fill="#3F3D56"/>
<path d="M255.072 281.51C314.225 281.51 362.179 233.557 362.179 174.404C362.179 115.251 314.225 67.2974 255.072 67.2974C195.919 67.2974 147.966 115.251 147.966 174.404C147.966 233.557 195.919 281.51 255.072 281.51Z" fill="white"/>
<path d="M254.686 189.097C262.587 189.097 268.992 182.692 268.992 174.791C268.992 166.889 262.587 160.484 254.686 160.484C246.784 160.484 240.379 166.889 240.379 174.791C240.379 182.692 246.784 189.097 254.686 189.097Z" fill="#3F3D56"/>
<path d="M257.779 72.7109H251.592V84.3109H257.779V72.7109Z" fill="#3F3D56"/>
<path d="M257.779 265.271H251.592V276.87H257.779V265.271Z" fill="#3F3D56"/>
<path d="M164.206 177.884V171.697H152.606V177.884H164.206Z" fill="#3F3D56"/>
<path d="M356.765 177.884V171.697H345.165V177.884H356.765Z" fill="#3F3D56"/>
<path d="M250.561 181.001L255.848 168.912L322.097 205.603L250.561 181.001Z" fill="#3F3D56"/>
<path d="M270.152 29.4043H239.992V64.2042H270.152V29.4043Z" fill="#3F3D56"/>
<path d="M493.087 23.3828C492.756 17.5186 490.352 11.9629 486.305 7.70603C482.258 3.4492 476.831 0.76799 470.991 0.140446C465.151 -0.487098 459.278 0.979818 454.419 4.27964C449.561 7.57947 446.031 12.4977 444.461 18.1575C444.161 18.1467 443.861 18.1347 443.558 18.1347C438.204 18.1357 432.994 19.8703 428.707 23.079C424.421 26.2878 421.288 30.7982 419.779 35.9354C416.231 34.3764 412.266 34.0382 408.505 34.9737C404.744 35.9092 401.4 38.0655 398.996 41.1051H476.304C478.56 41.1115 480.793 40.6627 482.871 39.7856C484.949 38.9085 486.828 37.6211 488.397 36.0006C489.965 34.3801 491.191 32.4597 492 30.3544C492.809 28.2491 493.185 26.0022 493.105 23.7483C493.1 23.6266 493.094 23.5048 493.087 23.3828Z" fill="#2962FF" fill-opacity="0.1"/>
<path d="M428.458 75.5421C432.134 75.5421 435.115 72.5617 435.115 68.8853C435.115 65.2089 432.134 62.2285 428.458 62.2285C424.782 62.2285 421.801 65.2089 421.801 68.8853C421.801 72.5617 424.782 75.5421 428.458 75.5421Z" fill="#2962FF" fill-opacity="0.1"/>
<path d="M448.558 58.7335C451.619 58.7335 454.101 56.2519 454.101 53.1907C454.101 50.1295 451.619 47.6479 448.558 47.6479C445.497 47.6479 443.015 50.1295 443.015 53.1907C443.015 56.2519 445.497 58.7335 448.558 58.7335Z" fill="#2962FF" fill-opacity="0.1"/>
<path d="M475.61 89.9654C479.287 89.9654 482.267 86.9851 482.267 83.3086C482.267 79.6322 479.287 76.6519 475.61 76.6519C471.934 76.6519 468.954 79.6322 468.954 83.3086C468.954 86.9851 471.934 89.9654 475.61 89.9654Z" fill="#2962FF" fill-opacity="0.1"/>
<path d="M425.13 120.476C428.806 120.476 431.787 117.495 431.787 113.819C431.787 110.142 428.806 107.162 425.13 107.162C421.453 107.162 418.473 110.142 418.473 113.819C418.473 117.495 421.453 120.476 425.13 120.476Z" fill="#2962FF" fill-opacity="0.1"/>
<path d="M475.61 158.752C479.287 158.752 482.267 155.772 482.267 152.095C482.267 148.419 479.287 145.438 475.61 145.438C471.934 145.438 468.954 148.419 468.954 152.095C468.954 155.772 471.934 158.752 475.61 158.752Z" fill="#2962FF" fill-opacity="0.1"/>
<path d="M465.059 280.454C465.062 280.381 465.07 280.311 465.07 280.238C465.072 279.123 464.793 278.025 464.259 277.046C463.725 276.066 462.953 275.237 462.014 274.635C461.075 274.032 460 273.675 458.888 273.598C457.775 273.52 456.66 273.723 455.647 274.189C454.696 273.091 453.411 272.336 451.989 272.038C450.568 271.741 449.088 271.918 447.776 272.542C446.465 273.166 445.394 274.203 444.729 275.494C444.063 276.785 443.839 278.258 444.091 279.689C444.057 279.688 444.024 279.683 443.99 279.683C442.931 279.682 441.886 279.933 440.943 280.417C440 280.9 439.186 281.602 438.569 282.463C437.952 283.325 437.549 284.321 437.394 285.369C437.24 286.418 437.338 287.488 437.68 288.491C438.023 289.494 438.6 290.4 439.363 291.136C440.126 291.871 441.054 292.413 442.069 292.717C443.084 293.021 444.158 293.078 445.199 292.884C446.241 292.69 447.222 292.25 448.059 291.601C448.587 292.63 449.375 293.504 450.344 294.136C451.314 294.768 452.431 295.136 453.586 295.204C454.741 295.273 455.894 295.038 456.931 294.525C457.968 294.011 458.853 293.236 459.499 292.276C460.291 292.852 461.2 293.247 462.162 293.43C463.124 293.614 464.115 293.584 465.064 293.34C466.013 293.097 466.896 292.647 467.651 292.023C468.406 291.398 469.013 290.615 469.43 289.728C469.847 288.842 470.063 287.875 470.063 286.895C470.062 285.916 469.846 284.948 469.428 284.062C469.011 283.176 468.403 282.393 467.647 281.769C466.892 281.146 466.008 280.696 465.059 280.454Z" fill="#2962FF" fill-opacity="0.1"/>
<path d="M481.712 128.242C483.244 128.242 484.486 127 484.486 125.468C484.486 123.936 483.244 122.694 481.712 122.694C480.18 122.694 478.938 123.936 478.938 125.468C478.938 127 480.18 128.242 481.712 128.242Z" fill="#2962FF" fill-opacity="0.1"/>
<path d="M463.961 61.6738C465.493 61.6738 466.735 60.432 466.735 58.9001C466.735 57.3683 465.493 56.1265 463.961 56.1265C462.429 56.1265 461.188 57.3683 461.188 58.9001C461.188 60.432 462.429 61.6738 463.961 61.6738Z" fill="#2962FF" fill-opacity="0.1"/>
<path d="M454.53 130.461C456.062 130.461 457.304 129.219 457.304 127.687C457.304 126.155 456.062 124.914 454.53 124.914C452.999 124.914 451.757 126.155 451.757 127.687C451.757 129.219 452.999 130.461 454.53 130.461Z" fill="#2962FF" fill-opacity="0.1"/>
<path d="M456.749 127.687C458.281 127.687 459.523 126.445 459.523 124.913C459.523 123.381 458.281 122.14 456.749 122.14C455.217 122.14 453.976 123.381 453.976 124.913C453.976 126.445 455.217 127.687 456.749 127.687Z" fill="#2962FF" fill-opacity="0.1"/>
<path d="M458.414 124.914C459.946 124.914 461.187 123.672 461.187 122.14C461.187 120.608 459.946 119.366 458.414 119.366C456.882 119.366 455.64 120.608 455.64 122.14C455.64 123.672 456.882 124.914 458.414 124.914Z" fill="#2962FF" fill-opacity="0.1"/>
<path d="M451.757 148.212C453.289 148.212 454.531 146.971 454.531 145.439C454.531 143.907 453.289 142.665 451.757 142.665C450.225 142.665 448.983 143.907 448.983 145.439C448.983 146.971 450.225 148.212 451.757 148.212Z" fill="#2962FF" fill-opacity="0.1"/>
<path d="M492.807 179.277C494.339 179.277 495.581 178.035 495.581 176.504C495.581 174.972 494.339 173.73 492.807 173.73C491.275 173.73 490.033 174.972 490.033 176.504C490.033 178.035 491.275 179.277 492.807 179.277Z" fill="#2962FF" fill-opacity="0.1"/>
<path d="M433.451 180.941C434.983 180.941 436.225 179.7 436.225 178.168C436.225 176.636 434.983 175.394 433.451 175.394C431.919 175.394 430.677 176.636 430.677 178.168C430.677 179.7 431.919 180.941 433.451 180.941Z" fill="#2962FF" fill-opacity="0.1"/>
<path d="M436.779 95.5126C438.311 95.5126 439.553 94.2708 439.553 92.739C439.553 91.2071 438.311 89.9653 436.779 89.9653C435.247 89.9653 434.005 91.2071 434.005 92.739C434.005 94.2708 435.247 95.5126 436.779 95.5126Z" fill="#2962FF" fill-opacity="0.1"/>
<path d="M449.538 145.438C451.07 145.438 452.311 144.197 452.311 142.665C452.311 141.133 451.07 139.891 449.538 139.891C448.006 139.891 446.764 141.133 446.764 142.665C446.764 144.197 448.006 145.438 449.538 145.438Z" fill="#2962FF" fill-opacity="0.1"/>
<path d="M446.764 141C448.296 141 449.538 139.759 449.538 138.227C449.538 136.695 448.296 135.453 446.764 135.453C445.233 135.453 443.991 136.695 443.991 138.227C443.991 139.759 445.233 141 446.764 141Z" fill="#2962FF" fill-opacity="0.1"/>
</g>
<defs>
<clipPath id="clip0_610_3537">
<rect width="495.161" height="300" fill="white" transform="translate(0.419434)"/>
</clipPath>
</defs>
</svg>
