<svg width="96" height="100" viewBox="0 0 96 100" fill="none" xmlns="http://www.w3.org/2000/svg">
<g clip-path="url(#clip0_63_2015)">
<path d="M36.9682 100C57.3852 100 73.9365 97.0762 73.9365 93.4693C73.9365 89.8624 57.3852 86.9385 36.9682 86.9385C16.5512 86.9385 0 89.8624 0 93.4693C0 97.0762 16.5512 100 36.9682 100Z" fill="#3F3D56"/>
<path d="M59.4368 72.2588C79.3905 72.2588 95.5662 56.0831 95.5662 36.1294C95.5662 16.1757 79.3905 0 59.4368 0C39.4831 0 23.3074 16.1757 23.3074 36.1294C23.3074 56.0831 39.4831 72.2588 59.4368 72.2588Z" fill="#3F3D56"/>
<path opacity="0.05" d="M59.4368 65.9552C75.9093 65.9552 89.2628 52.6017 89.2628 36.1292C89.2628 19.6568 75.9093 6.30322 59.4368 6.30322C42.9644 6.30322 29.6108 19.6568 29.6108 36.1292C29.6108 52.6017 42.9644 65.9552 59.4368 65.9552Z" fill="black"/>
<path opacity="0.05" d="M59.4368 60.5746C72.9374 60.5746 83.8818 49.6302 83.8818 36.1296C83.8818 22.629 72.9374 11.6846 59.4368 11.6846C45.9362 11.6846 34.9918 22.629 34.9918 36.1296C34.9918 49.6302 45.9362 60.5746 59.4368 60.5746Z" fill="black"/>
<path opacity="0.05" d="M59.4368 53.6563C69.1165 53.6563 76.9634 45.8093 76.9634 36.1296C76.9634 26.45 69.1165 18.603 59.4368 18.603C49.7571 18.603 41.9102 26.45 41.9102 36.1296C41.9102 45.8093 49.7571 53.6563 59.4368 53.6563Z" fill="black"/>
<path d="M23.6273 39.3628C23.6273 39.3628 20.7868 47.3583 22.0493 50.1988C23.3117 53.0393 25.3106 55.7745 25.3106 55.7745C25.3106 55.7745 24.5742 39.8888 23.6273 39.3628Z" fill="#D0CDE1"/>
<path opacity="0.1" d="M23.6273 39.3628C23.6273 39.3628 20.7868 47.3583 22.0493 50.1988C23.3117 53.0393 25.3106 55.7745 25.3106 55.7745C25.3106 55.7745 24.5742 39.8888 23.6273 39.3628Z" fill="black"/>
<path d="M25.6262 57.8784C25.6262 57.8784 25.4158 59.8772 25.3106 59.9824C25.2054 60.0876 25.4158 60.298 25.3106 60.6137C25.2054 60.9293 25.1002 61.3501 25.3106 61.4553C25.521 61.5605 24.1534 70.8184 24.1534 70.8184C24.1534 70.8184 20.7869 75.237 22.1545 82.1804L22.5753 89.229C22.5753 89.229 25.8366 89.4394 25.8366 88.2822C25.8366 88.2822 25.6262 86.9146 25.6262 86.2833C25.6262 85.6521 26.1522 85.6521 25.8366 85.3365C25.521 85.0209 25.521 84.8105 25.521 84.8105C25.521 84.8105 26.047 84.3897 25.9418 84.2845C25.8366 84.1793 26.8887 76.7098 26.8887 76.7098C26.8887 76.7098 28.0459 75.5526 28.0459 74.9213V74.2901C28.0459 74.2901 28.5719 72.9225 28.5719 72.8173C28.5719 72.7121 31.4124 66.2947 31.4124 66.2947L32.5696 70.9236L33.8321 77.5514C33.8321 77.5514 34.4633 83.548 35.7258 85.8625C35.7258 85.8625 37.935 93.4372 37.935 93.2268C37.935 93.0164 41.6172 92.4903 41.5119 91.5435C41.4067 90.5967 39.3027 77.341 39.3027 77.341L39.8287 57.668L25.6262 57.8784Z" fill="#2F2E41"/>
<path d="M22.7858 88.7034C22.7858 88.7034 19.9453 94.2792 21.8389 94.4896C23.7326 94.7 24.469 94.7 25.3107 93.8583C25.7708 93.3982 26.7025 92.7809 27.4527 92.3158C27.8972 92.0446 28.2563 91.6536 28.4888 91.1877C28.7213 90.7218 28.8178 90.1999 28.7672 89.6816C28.7117 89.1669 28.5194 88.7428 28.0459 88.7034C26.7835 88.5982 25.3107 87.4409 25.3107 87.4409L22.7858 88.7034Z" fill="#2F2E41"/>
<path d="M38.4611 92.8064C38.4611 92.8064 35.6206 98.3822 37.5142 98.5926C39.4079 98.803 40.1443 98.803 40.9859 97.9614C41.4461 97.5013 42.3778 96.8839 43.128 96.4188C43.5725 96.1476 43.9316 95.7567 44.1641 95.2908C44.3966 94.8249 44.4931 94.3029 44.4425 93.7847C44.387 93.2699 44.1947 92.8458 43.7212 92.8064C42.4588 92.7012 40.9859 91.5439 40.9859 91.5439L38.4611 92.8064Z" fill="#2F2E41"/>
<path d="M35.459 30.2383C37.9014 30.2383 39.8813 28.2583 39.8813 25.8159C39.8813 23.3735 37.9014 21.3936 35.459 21.3936C33.0166 21.3936 31.0366 23.3735 31.0366 25.8159C31.0366 28.2583 33.0166 30.2383 35.459 30.2383Z" fill="#FFB8B8"/>
<path d="M32.616 27.269C32.616 27.269 29.4572 33.0813 29.2045 33.0813C28.9518 33.0813 34.8904 34.9766 34.8904 34.9766C34.8904 34.9766 36.533 29.417 36.7857 28.9116L32.616 27.269Z" fill="#FFB8B8"/>
<path d="M37.4616 33.6291C37.4616 33.6291 31.1494 30.1574 30.5182 30.2626C29.887 30.3678 23.154 36.2592 23.2592 38.6789C23.3644 41.0986 24.206 45.0963 24.206 45.0963C24.206 45.0963 24.5216 56.2479 25.1528 56.3531C25.784 56.4583 25.0476 58.3519 25.258 58.3519C25.4684 58.3519 39.9865 58.3519 40.0917 58.0363C40.1969 57.7207 37.4616 33.6291 37.4616 33.6291Z" fill="#D0CDE1"/>
<path d="M40.9859 58.6152C40.9859 58.6152 42.9848 64.717 41.3015 64.5066C39.6183 64.2962 38.8818 59.2465 38.8818 59.2465L40.9859 58.6152Z" fill="#FFB8B8"/>
<path d="M35.6206 33.2608C35.6206 33.2608 31.7281 34.1024 32.3593 39.3626C32.9905 44.6227 34.1477 49.8829 34.1477 49.8829L38.0403 58.4044L38.4611 59.9825L41.3016 59.246L39.1975 47.0424C39.1975 47.0424 38.4611 33.9972 37.5142 33.5764C36.9172 33.3218 36.2679 33.2136 35.6206 33.2608Z" fill="#D0CDE1"/>
<path opacity="0.1" d="M33.2534 49.7252L38.0928 58.3518L34.0155 49.2617L33.2534 49.7252Z" fill="black"/>
<path d="M39.8618 24.5138L39.8764 24.1758L40.5486 24.3431C40.5414 24.2347 40.5108 24.129 40.4588 24.0335C40.4068 23.9381 40.3346 23.855 40.2474 23.7901L40.9635 23.7501C40.3626 22.8962 39.5949 22.1729 38.7067 21.624C37.8185 21.0751 36.8283 20.7119 35.7958 20.5564C34.2469 20.3319 32.5222 20.6567 31.46 21.8063C30.9448 22.3639 30.6211 23.0729 30.3908 23.7963C29.9667 25.1286 29.8803 26.7168 30.7647 27.7998C31.6635 28.9005 33.2335 29.1161 34.648 29.2523C35.1456 29.3003 35.6672 29.3449 36.1284 29.1518C36.1798 28.6227 36.112 28.089 35.9302 27.5895C35.8545 27.4349 35.8183 27.2639 35.8249 27.0919C35.8878 26.6711 36.4491 26.5651 36.8708 26.622C37.2924 26.6788 37.7995 26.7658 38.0765 26.4429C38.2674 26.2205 38.2561 25.8966 38.2814 25.6046C38.3502 24.8096 39.8545 24.6804 39.8618 24.5138Z" fill="#2F2E41"/>
<path d="M66.9863 94.3681C69.8321 94.3681 72.1391 92.0611 72.1391 89.2153C72.1391 86.3695 69.8321 84.0625 66.9863 84.0625C64.1405 84.0625 61.8335 86.3695 61.8335 89.2153C61.8335 92.0611 64.1405 94.3681 66.9863 94.3681Z" fill="#2962FF"/>
<path d="M6.4709 92.5702C9.31671 92.5702 11.6237 90.2632 11.6237 87.4174C11.6237 84.5716 9.31671 82.2646 6.4709 82.2646C3.6251 82.2646 1.31812 84.5716 1.31812 87.4174C1.31812 90.2632 3.6251 92.5702 6.4709 92.5702Z" fill="#2962FF"/>
<path d="M6.4709 84.3022C8.52253 84.3022 10.1857 82.639 10.1857 80.5874C10.1857 78.5357 8.52253 76.8726 6.4709 76.8726C4.41928 76.8726 2.7561 78.5357 2.7561 80.5874C2.7561 82.639 4.41928 84.3022 6.4709 84.3022Z" fill="#2962FF"/>
<path d="M6.4709 77.4713C7.9269 77.4713 9.10721 76.291 9.10721 74.835C9.10721 73.379 7.9269 72.1987 6.4709 72.1987C5.01491 72.1987 3.83459 73.379 3.83459 74.835C3.83459 76.291 5.01491 77.4713 6.4709 77.4713Z" fill="#2962FF"/>
</g>
<defs>
<clipPath id="clip0_63_2015">
<rect width="95.5662" height="100" fill="white"/>
</clipPath>
</defs>
</svg>
